<?xml version="1.0" encoding="UTF-8" standalone="no"?>
<!-- Created with Inkscape (http://www.inkscape.org/) -->

<svg
   width="120"
   height="120"
   viewBox="0 0 120 120"
   version="1.1"
   id="svg1"
   xml:space="preserve"
   xmlns="http://www.w3.org/2000/svg"
   xmlns:svg="http://www.w3.org/2000/svg"><defs
     id="defs1" /><g
     id="layer1"
     style="display:inline" /><text
     xml:space="preserve"
     style="font-style:normal;font-variant:normal;font-weight:bold;font-stretch:normal;font-size:32px;font-family:Arial;-inkscape-font-specification:'Arial, Bold';font-variant-ligatures:normal;font-variant-caps:normal;font-variant-numeric:normal;font-variant-east-asian:normal;text-align:center;text-anchor:middle;fill:#536dfe;fill-opacity:1;fill-rule:evenodd;stroke:none;stroke-width:2.33;stroke-linecap:round;stroke-miterlimit:4.1;paint-order:markers fill stroke"
     x="27.549406"
     y="32.851032"
     id="text5"><tspan
       id="tspan5"
       style="font-size:32px;fill:#536dfe;fill-opacity:1;stroke-width:2.33"
       x="27.549406"
       y="32.851032">3</tspan></text><text
     xml:space="preserve"
     style="font-style:normal;font-variant:normal;font-weight:bold;font-stretch:normal;font-size:10.6667px;font-family:Sans;-inkscape-font-specification:'Sans, Bold';font-variant-ligatures:normal;font-variant-caps:normal;font-variant-numeric:normal;font-variant-east-asian:normal;text-align:center;text-anchor:middle;fill:#000000;fill-opacity:1;fill-rule:evenodd;stroke:none;stroke-width:2.33;stroke-linecap:round;stroke-miterlimit:4.1;paint-order:markers fill stroke"
     x="71.833328"
     y="24.846363"
     id="text3"><tspan
       id="tspan3"
       x="71.833328"
       y="24.846363">Continents</tspan></text><text
     xml:space="preserve"
     style="font-style:normal;font-variant:normal;font-weight:bold;font-stretch:normal;font-size:10.6667px;font-family:Sans;-inkscape-font-specification:'Sans, Bold';font-variant-ligatures:normal;font-variant-caps:normal;font-variant-numeric:normal;font-variant-east-asian:normal;text-align:center;text-anchor:middle;opacity:1;fill:#000000;fill-opacity:1;fill-rule:evenodd;stroke:none;stroke-width:2.33;stroke-linecap:round;stroke-miterlimit:4.1;paint-order:markers fill stroke"
     x="40.340687"
     y="68.059433"
     id="text8"><tspan
       id="tspan8"
       x="40.340687"
       y="68.059433" /></text><text
     xml:space="preserve"
     style="font-style:normal;font-variant:normal;font-weight:bold;font-stretch:normal;font-size:4px;font-family:Sans;-inkscape-font-specification:'Sans, Bold';font-variant-ligatures:normal;font-variant-caps:normal;font-variant-numeric:normal;font-variant-east-asian:normal;text-align:center;text-anchor:middle;opacity:0.996063;fill:#000000;fill-opacity:1;fill-rule:evenodd;stroke-width:2.33;stroke-linecap:round;stroke-miterlimit:4.1;paint-order:markers fill stroke"
     x="60"
     y="44.196301"
     id="text7"><tspan
       id="tspan7"
       x="60.683594"
       y="44.196301"
       style="font-style:normal;font-variant:normal;font-weight:bold;font-stretch:normal;font-size:4px;font-family:Sans;-inkscape-font-specification:'Sans, Bold';font-variant-ligatures:normal;font-variant-caps:normal;font-variant-numeric:normal;font-variant-east-asian:normal;fill:#000000;fill-opacity:1"> NAM | EMEA | APAC </tspan></text><g
     id="g9"
     transform="matrix(0.1729808,0,0,0.1729808,1.0000008,53.23946)"><polygon
       points="201.509,477.358 183.53,479.399 188.862,526.385 201.044,525.001 "
       fill="#ffb8b8"
       id="polygon1" /><path
       d="m 484.74188,714.52179 -38.285,4.34447 v 0 l -1.67854,-14.79191 v 0 l 23.49311,-2.66593 a 14.88686,14.88686 0 0 1 16.47048,13.11336 v 0 z"
       transform="translate(-258.92169,-180.87436)"
       fill="#2f2e41"
       id="path1" /><polygon
       points="81.674,478.334 63.58,478.336 63.582,525.623 75.842,525.623 "
       fill="#ffb8b8"
       id="polygon2" /><path
       d="m 358.408,717.88029 -38.53073,0.002 v 0 l -6.9e-4,-14.88684 v 0 l 23.64386,-10e-4 a 14.88687,14.88687 0 0 1 14.88756,14.88616 z"
       transform="translate(-258.92169,-180.87436)"
       fill="#2f2e41"
       id="path2" /><path
       d="m 410.46523,495.02988 7,22.76923 38,82.23077 10,78 -23,1 -14,-72 -48,-52 -42,136 -19,-2 c 0,0 16,-176 38,-194 0,0 36,-17 53,0 z"
       transform="translate(-258.92169,-180.87436)"
       fill="#2f2e41"
       id="path3" /><circle
       cx="120.49239"
       cy="191.3484"
       r="24.561029"
       fill="#ffb8b8"
       id="circle3" /><path
       d="m 412.96523,499.52988 c 0,0 3,-102 -39,-95 -42,7 -24.5,105.5 -24.5,105.5 0,0 9,18 31,-2 22,-20 32.5,-8.5 32.5,-8.5 z"
       transform="translate(-258.92169,-180.87436)"
       fill="#cccccc"
       id="path4" /><polygon
       points="120.984,319.597 100.044,312.656 96.044,266.656 105.927,304.539 "
       opacity="0.2"
       style="isolation:isolate"
       id="polygon4-9" /><path
       d="m 413.27557,542.66812 a 10.0558,10.0558 0 0 1 -5.277,-14.48822 l -23.35887,-27.04333 18.41437,-2.39691 19.35886,26.04828 a 10.11028,10.11028 0 0 1 -9.13733,17.88018 z"
       transform="translate(-258.92169,-180.87436)"
       fill="#ffb8b8"
       id="path5-0" /><path
       d="m 384.8352,425.30564 2.63,51.72424 31,40 -13,10 -42,-42 c 0,0 -15,-51 -4,-66 4.125,-5.625 8.67188,-7.17188 12.74414,-6.9082 a 13.78032,13.78032 0 0 1 12.62586,13.18396 z"
       transform="translate(-258.92169,-180.87436)"
       fill="#cccccc"
       id="path6-8" /><path
       d="m 376.49294,398.03006 a 1.01364,1.01364 0 0 0 -0.14318,-1.61667 14.28326,14.28326 0 0 1 1.37609,-25.03744 c 7.22107,-3.4429 17.00605,-0.76444 22.34415,-7.3804 a 12.40871,12.40871 0 0 0 2.30264,-10.07721 c -1.15182,-6.24875 -5.84939,-10.88931 -11.11026,-14.06958 a 40.429,40.429 0 0 0 -61.08911,39.13443 c 0.67905,6.01413 2.53479,12.75778 -1.04129,17.64065 -3.14734,4.29746 -9.08816,5.10327 -14.30673,6.17108 -11.19313,2.29032 -21.99165,7.57389 -29.58752,16.10819 -7.59587,8.5343 -11.64806,20.50824 -9.35788,31.70139 2.29018,11.19315 11.478,21.03009 22.77061,22.765 9.19165,1.4122 18.68266,-2.4913 25.43251,-8.88821 6.74985,-6.39691 11.01639,-15.03534 13.70752,-23.937 3.19415,-10.56543 4.4541,-21.95038 10.22083,-31.36185 5.64312,-9.20972 17.80392,-15.81165 27.33493,-11.01526 a 1.022,1.022 0 0 0 1.14669,-0.13727 z"
       transform="translate(-258.92169,-180.87436)"
       fill="#2f2e41"
       id="path7-9" /><path
       d="m 566.92169,719.12564 h -307 a 1,1 0 0 1 0,-2 h 307 a 1,1 0 0 1 0,2 z"
       transform="translate(-258.92169,-180.87436)"
       fill="#3f3d56"
       id="path8-5" /><path
       d="m 877.051,378.6543 a 113.45516,113.45516 0 1 1 -7.18311,-39.95154 c 0.24738,0.66626 0.48859,1.33246 0.72333,2.00516 v 0.006 q 1.57068,4.43545 2.76672,9.03607 a 114.22515,114.22515 0 0 1 3.69306,28.90396 z"
       transform="translate(-258.92169,-180.87436)"
       fill="#3f3d56"
       id="path9-0" /><path
       d="m 750.33472,301.59162 a 38.323,38.323 0 0 0 -33.64392,-1.37646 c -4.704,2.04721 -9.65717,5.71963 -11.22644,12.35137 6.34668,-3.7456 14.56237,2.17243 16.19549,11.66614 l -0.38122,0.10514 c -0.86261,6.57574 1.063,13.735 4.79107,17.81237 a 12.528,12.528 0 0 1 6.01337,-8.91839 c 2.73907,-1.8006 5.76929,-3.10861 7.86,-6.20362 2.47852,-3.66922 3.10791,-9.03167 4.09247,-13.92361 0.98456,-4.89194 2.85258,-10.14984 6.29918,-11.51294 z"
       transform="translate(-258.92169,-180.87436)"
       fill="#6c63ff"
       id="path10-2" /><path
       d="m 714.80817,357.549 c -1.75769,2.63974 -4.10553,4.296 -6.21222,6.35827 a 14.301,14.301 0 0 0 -4.518,8.4459 c -0.26654,2.29708 0.14588,4.63217 0.0888,6.95474 -0.057,2.32242 -0.83124,4.93677 -2.41126,5.51422 -2.49383,0.901 -4.39752,-3.73117 -6.961,-4.05481 -2.037,-0.25382 -3.87079,2.95071 -3.2807,5.73007 0.59009,2.77936 3.36316,4.01032 4.95587,2.19553 1.44043,2.4176 0.42511,6.80249 -1.7387,7.54483 -0.22852,1.52292 -0.45685,3.03952 -0.679,4.56244 -5.46985,-3.82639 -10.99683,-7.71613 -15.64807,-13.31931 a 40.42889,40.42889 0 0 1 -9.21375,-21.77786 c -0.60284,-6.44074 0.29187,-13.80792 -2.665,-18.7637 -2.367,-3.966 -6.42816,-4.84174 -10.08319,-4.59421 -0.66626,0.0443 -1.3388,0.12051 -2.00518,0.203 a 112.96626,112.96626 0 0 1 8.17932,-18.71936 8.01392,8.01392 0 0 0 2.04956,-1.27554 c 3.40124,-2.88715 4.91156,-8.73148 7.67175,-12.77359 q 0.2666,-0.39024 0.55206,-0.76142 c 2.82386,-3.68679 6.60572,-5.5841 10.26075,-7.3482 8.09057,-3.92786 16.41583,-7.9065 24.957,-7.36081 l -2.43036,0.2348 q -4.25464,11.91692 -8.51575,23.83393 -0.64728,1.82739 -1.30713,3.66137 c -1.61182,4.518 -3.27435,9.32794 -3.02679,14.38535 0.146,2.995 1.18658,6.19327 3.16638,7.22122 1.84656,0.95184 3.86444,-0.21579 5.64746,-1.37067 0.75519,-0.48224 1.504,-0.96457 2.259,-1.45318 2.70954,-1.745 5.711,-3.53446 8.57282,-2.36692 2.62072,1.066 4.55609,4.62595 4.92413,8.465 a 16.9235,16.9235 0 0 1 -2.58875,10.62891 z"
       transform="translate(-258.92169,-180.87436)"
       fill="#6c63ff"
       id="path11-9" /><path
       d="m 730.92322,411.78889 q -11.87028,-7.30866 -23.7406,-14.61731 l 0.13427,-0.346 c -4.92022,1.874 -6.963,10.62 -6.14984,17.77243 0.81316,7.15243 3.57032,13.5462 4.9632,20.51526 a 54.45375,54.45375 0 0 1 -2.053,28.57345 234.0033,234.0033 0 0 0 27.489,-37.87884 20.26462,20.26462 0 0 0 2.48652,-5.51355 8.77124,8.77124 0 0 0 -0.58136,-6.23844 6.94574,6.94574 0 0 0 -2.54819,-2.267 z"
       transform="translate(-258.92169,-180.87436)"
       fill="#6c63ff"
       id="path12" /><path
       d="m 699.69128,323.14463 a 8.75071,8.75071 0 0 0 -0.401,6.36352 7.0537,7.0537 0 0 0 3.94092,3.65 l 4.37256,2.16739 c 1.45465,0.72107 3.02264,1.44931 4.50549,0.85605 1.78858,-0.71552 3.02869,-3.5196 2.70795,-6.12275 -0.34149,-2.77014 -2.08752,-4.67556 -3.70245,-6.29818 q -3.38992,-3.40614 -6.77973,-6.81226 l -1.27362,1.55994 a 17.009,17.009 0 0 0 -3.37012,4.63629 z"
       transform="translate(-258.92169,-180.87436)"
       fill="#6c63ff"
       id="path13" /><path
       d="m 853.6106,352.75812 q 2.95083,0.69484 5.90142,1.38959 c -0.34271,6.64386 -3.636,12.79273 -8.05249,15.01993 -1.84021,0.92651 -3.88983,1.2691 -5.41278,3.00149 -1.37695,1.5737 -2.075,4.023 -2.71594,6.36451 q -1.68466,6.12986 -3.36951,12.25955 c -1.20556,4.40381 -2.7539,9.29632 -5.88861,10.88269 -2.69049,1.3642 -5.76812,-0.30466 -7.83667,-3.103 -2.06866,-2.79831 -3.33142,-6.56125 -4.55615,-10.22891 0.0762,3.99768 -1.783,7.91925 -4.4165,9.30884 -2.63971,1.38959 -5.85065,0.13324 -7.61463,-2.96967 -1.2691,-2.22729 -1.79577,-5.16534 -3.03955,-7.42431 -1.24371,-2.259 -3.85168,-3.55347 -5.20965,-1.43409 -0.89478,1.40879 -0.78058,3.5662 -1.22474,5.35566 a 5.81555,5.81555 0 0 1 -4.86059,4.67666 8.10531,8.10531 0 0 1 -5.81891,-2.65884 26.35858,26.35858 0 0 1 -7.2276,-14.57566 17.38775,17.38775 0 0 1 0.20313,-7.97 c 0.78045,-2.46832 2.665,-4.37191 4.537,-3.90246 1.231,-2.60178 -1.19922,-6.05368 -3.38849,-5.74909 -2.19561,0.3046 -3.91522,2.65879 -5.71734,4.46726 -1.79578,1.80847 -4.30854,3.122 -6.11713,1.32617 a 2.48135,2.48135 0 0 1 -2.32416,2.62915 q -0.0975,0.006 -0.195,0.004 a 8.9977,8.9977 0 0 1 -3.28064,-1.73867 c -4.14362,-2.58268 -9.40418,-0.86933 -12.34845,4.01669 1.84021,-7.83042 4.537,-16.81571 10.19085,-18.656 2.30988,-0.75509 4.829,-0.13324 7.01191,-1.44046 3.8645,-2.316 4.645,-11.06662 1.30719,-14.67715 0.42511,3.41385 0.34271,7.39886 -1.45948,9.73407 -1.80212,2.3352 -5.5841,0.81216 -5.35559,-2.63974 a 2.31257,2.31257 0 0 1 -4.30224,0.91373 c -1.19928,-1.82746 -1.09772,-4.8162 -0.24744,-6.99909 a 16.48674,16.48674 0 0 1 3.6994,-5.25409 c 3.01416,-3.22983 6.07269,-6.4978 9.56281,-8.52844 3.4964,-2.03055 7.53216,-2.71585 11.03485,-0.69794 1.84668,1.066 3.47107,2.84281 5.35565,3.78189 a 3.96875,3.96875 0 0 0 5.46484,-1.27978 l 6e-5,-6e-5 q 0.0319,-0.0512 0.0621,-0.10355 c 1.40234,-2.4621 0.74237,-6.1171 1.26275,-9.19464 0.93274,-5.43808 6.37085,-7.98267 9.385,-4.39114 -2.25262,-0.5774 -4.58148,2.0877 -4.86065,5.31765 -0.28553,3.22983 1.34533,6.49149 3.52813,7.46869 3.66773,1.62439 7.25928,-2.46216 10.03235,-6.24405 q 4.34025,-5.93943 8.69336,-11.87246 a 14.347,14.347 0 0 1 1.55457,-1.891 5.0024,5.0024 0 0 1 6.83417,-0.13955 c 2.93164,2.39221 4.30859,7.29739 6.71362,10.67315 3.49,4.90509 8.71246,6.09806 13.573,7.0499 q 5.43484,1.05657 10.8764,2.12573 a 112.69,112.69 0 0 1 6.31378,13.94123 38.21131,38.21131 0 0 0 -16.25745,14.05531 z"
       transform="translate(-258.92169,-180.87436)"
       fill="#6c63ff"
       id="path14" /><path
       d="m 865.32452,429.10776 a 113.76078,113.76078 0 0 1 -9.45489,15.81937 c -2.28436,-0.97723 -4.74011,0.76776 -6.87854,2.405 -2.23364,1.71332 -4.91785,3.3822 -7.20856,1.82117 -2.34143,-1.59906 -3.09662,-6.07264 -2.35419,-9.61988 a 25.632,25.632 0 0 1 4.39112,-9.03607 c 1.90368,-2.8428 3.94049,-5.79349 6.58667,-6.89761 2.65246,-1.1041 6.06,0.45685 6.83417,4.22616 l 1.87829,-0.0635 c -1.0534,-1.44675 -0.50128,-4.44187 0.91382,-4.96854 1.63074,-0.61548 3.0459,1.62439 4.01031,3.60431 0.43152,0.89465 0.86928,1.79583 1.2818,2.70959 z"
       transform="translate(-258.92169,-180.87436)"
       fill="#6c63ff"
       id="path15" /><path
       d="m 793.38782,402.30463 c -4.03723,0.25388 -7.23517,-4.71615 -9.36023,-9.60559 -2.12506,-4.88944 -4.064,-10.48083 -7.70685,-12.96957 -2.08148,-1.42209 -4.45453,-1.61716 -6.71222,-2.30631 a 8.311,8.311 0 0 1 -5.70019,-5.01864 l -2.561,-1.03452 a 38.46146,38.46146 0 0 0 -9.72339,6.93308 21.732,21.732 0 0 0 -5.79388,12.6665 c -0.4892,5.12613 1.31732,10.84207 4.69281,12.7677 2.66717,1.52161 5.77252,0.56253 8.47412,1.95548 3.37555,1.74029 5.37952,6.79589 6.13812,11.78759 0.7586,4.9917 0.56635,10.17923 1.10907,15.2276 0.54272,5.04837 2.03851,10.30133 5.1341,12.88843 3.87371,3.23743 9.55792,0.5473 11.29583,-5.346 0.85248,-2.89068 0.82312,-6.15259 1.46082,-9.15329 1.1228,-5.28439 4.15283,-9.205 6.556,-13.53976 2.40317,-4.33476 4.29521,-10.222 2.69689,-15.2527 z"
       transform="translate(-258.92169,-180.87436)"
       fill="#6c63ff"
       id="path16-6" /><path
       d="m 753.49384,350.37812 a 10.77266,10.77266 0 0 1 1.05133,1.11609 3.66683,3.66683 0 0 1 -0.0645,3.7865 3.5227,3.5227 0 0 0 2.52277,-1.2822 16.21376,16.21376 0 0 0 1.93426,-2.7247 2.96967,2.96967 0 0 0 0.57032,-2.37677 c -0.19074,-0.54431 -0.64173,-0.77646 -0.95789,-1.18582 a 8.05816,8.05816 0 0 1 -0.88477,-2.56986 4.635,4.635 0 0 0 -3.359,-3.53991 l 0.20233,0.0387 a 1.91908,1.91908 0 0 0 -0.89893,2.04431 c 0.12256,0.79184 0.63135,1.44925 0.58075,2.25687 -0.0728,1.16132 -1.2334,1.70627 -1.30511,2.86774 a 2.2171,2.2171 0 0 0 0.60846,1.56906 z"
       transform="translate(-258.92169,-180.87436)"
       fill="#6c63ff"
       id="path17-3" /><path
       d="m 746.57672,330.64332 0.018,-0.004 a 3.24231,3.24231 0 0 0 0.34448,-0.367 z"
       transform="translate(-258.92169,-180.87436)"
       fill="#6c63ff"
       id="path18-2" /><path
       d="m 747.78748,336.0944 a 3.52068,3.52068 0 0 0 1.096,-3.49018 c -0.29327,-1.32046 -1.33129,-2.20828 -2.28875,-1.96441 a 2.33283,2.33283 0 0 1 -2.16907,0.63861 c -0.59192,-0.15241 -1.24182,-0.54489 -1.75525,-0.0988 a 2.65738,2.65738 0 0 0 -0.59784,1.16739 q -0.285,0.87506 -0.57013,1.74988 a 1.10427,1.10427 0 0 0 -0.0674,0.66311 0.56171,0.56171 0 0 0 0.43078,0.3425 l 3.42041,1.00833 a 2.9468,2.9468 0 0 0 2.50123,-0.0164 z"
       transform="translate(-258.92169,-180.87436)"
       fill="#6c63ff"
       id="path19-9" /><path
       d="m 833.8595,411.35193 q -0.79047,-1.29432 -1.58106,-2.58859 a 8.64807,8.64807 0 0 0 -2.08343,-2.616 1.84606,1.84606 0 0 0 -2.60059,0.22962 l -6e-5,6e-5 -0.0275,0.0336 0.0642,0.49286 a 11.13059,11.13059 0 0 1 2.777,5.4183 c 0.12012,0.88181 0.0784,1.79444 0.18371,2.68015 a 3.12568,3.12568 0 0 0 0.97645,2.186 c 0.82989,0.55439 1.80432,-0.263 2.39495,-1.26046 a 4.3404,4.3404 0 0 0 0.67243,-2.76267 4.844,4.844 0 0 0 -0.77602,-1.81284 z"
       transform="translate(-258.92169,-180.87436)"
       fill="#6c63ff"
       id="path20" /><path
       d="m 842.12714,412.47483 a 5.97438,5.97438 0 0 0 -0.19294,-2.40912 5.28822,5.28822 0 0 1 0.80475,-2.99811 9.74824,9.74824 0 0 0 1.254,-2.74914 2.29934,2.29934 0 0 0 -0.0601,-1.34629 c -0.17444,-0.39187 -0.597,-0.57064 -0.83935,-0.26031 l 0.51867,0.33408 a 4.72334,4.72334 0 0 0 -2.10492,0.10192 2.605,2.605 0 0 0 -1.59527,1.79831 11.12985,11.12985 0 0 1 -0.4184,1.86585 c -0.30945,0.636 -0.90832,0.8475 -1.28467,1.4057 a 3.36093,3.36093 0 0 0 0.0529,3.19281 3.727,3.727 0 0 0 2.108,1.65774 c 0.63342,0.22736 1.46753,0.23935 1.75733,-0.59344 z"
       transform="translate(-258.92169,-180.87436)"
       fill="#6c63ff"
       id="path21" /><path
       d="m 856.85028,416.917 a 7.24267,7.24267 0 0 0 0.91223,1.67438 c 0.7049,0.71 1.66278,0.27365 2.51795,0.10113 a 4.35339,4.35339 0 0 1 4.14141,1.66113 10.54144,10.54144 0 0 0 -6.06274,-7.56393 17.81169,17.81169 0 0 0 -6.23517,-0.975 l -0.36212,0.0928 c 0.92273,2.68584 3.82016,2.62578 5.08844,5.00951 z"
       transform="translate(-258.92169,-180.87436)"
       fill="#6c63ff"
       id="path22-4" /><path
       d="m 794.49225,422.41056 0.005,0.0117 0.10534,-0.20291 z"
       transform="translate(-258.92169,-180.87436)"
       fill="#6c63ff"
       id="path23-9" /><path
       d="m 792.25867,426.73383 a 19.84048,19.84048 0 0 0 -1.25305,2.75266 23.96251,23.96251 0 0 0 -0.90815,4.71 c -0.1134,0.90771 -0.14843,2.067 0.42029,2.50934 a 0.80669,0.80669 0 0 0 1.0553,-0.14331 4.17345,4.17345 0 0 0 0.765,-1.13709 26.195,26.195 0 0 0 2.58252,-6.12933 10.66622,10.66622 0 0 0 -0.423,-6.87381 q -1.11929,2.15587 -2.23891,4.31154 z"
       transform="translate(-258.92169,-180.87436)"
       fill="#6c63ff"
       id="path24" /><path
       d="m 770.71136,311.55219 a 2.5428,2.5428 0 0 0 2.74048,0.53485 9.04962,9.04962 0 0 0 2.57856,-1.70321 6.06684,6.06684 0 0 0 1.56317,-1.7052 3.4584,3.4584 0 0 0 0.31976,-2.6345 2.67591,2.67591 0 0 0 -2.03961,-1.61343 q -1.89825,-0.563 -3.79651,-1.12579 l 0.91547,-0.82511 c -0.9419,-0.50549 -1.98389,0.43265 -2.57258,1.59412 a 8.5823,8.5823 0 0 0 -0.78094,2.404 6.17054,6.17054 0 0 0 1.0722,5.07427 z"
       transform="translate(-258.92169,-180.87436)"
       fill="#6c63ff"
       id="path25" /><path
       d="m 793.05377,304.05164 a 2.09059,2.09059 0 0 0 2.84931,0.23178 3.18493,3.18493 0 0 0 1.26025,-2.26986 c 0.0895,-0.99546 -0.40265,-2.10181 -1.10553,-2.18781 l 0.16089,-0.932 c -1.35419,-0.24456 -3.02051,-0.29354 -3.74622,1.35093 a 3.861,3.861 0 0 0 0.5813,3.80696 z"
       transform="translate(-258.92169,-180.87436)"
       fill="#6c63ff"
       id="path26" /><ellipse
       cx="442.07178"
       cy="178.8942"
       rx="8.4473696"
       ry="11.32747"
       fill="#e6e6e6"
       id="ellipse26" /><ellipse
       cx="854.00983"
       cy="506.28088"
       rx="7.5566602"
       ry="5.2568102"
       transform="rotate(-14.91271,33.543235,1405.0184)"
       fill="#e6e6e6"
       id="ellipse27" /><ellipse
       cx="804.61328"
       cy="507.19598"
       rx="7.5566602"
       ry="5.2568002"
       transform="matrix(0.96632,-0.25735,0.25735,0.96632,-362.34695,43.27341)"
       fill="#e6e6e6"
       id="ellipse28" /><ellipse
       cx="862.7851"
       cy="465.18369"
       rx="7.5566602"
       ry="5.2568102"
       transform="rotate(-14.91271,42.318438,1363.9212)"
       fill="#e6e6e6"
       id="ellipse29" /><ellipse
       cx="878.11926"
       cy="448.05426"
       rx="3.3223"
       ry="4.7758098"
       transform="rotate(-7.0677,-715.77742,2453.9572)"
       fill="#e6e6e6"
       id="ellipse30" /><ellipse
       cx="881.8075"
       cy="417.04889"
       rx="3.3223"
       ry="4.7758098"
       transform="rotate(-7.0677,-712.08921,2422.9519)"
       fill="#e6e6e6"
       id="ellipse31" /><ellipse
       cx="832.0152"
       cy="476.65268"
       rx="3.3223"
       ry="4.7758098"
       transform="rotate(-7.0677,-761.88156,2482.5557)"
       fill="#e6e6e6"
       id="ellipse32" /><ellipse
       cx="856.98859"
       cy="485.69193"
       rx="3.3223"
       ry="4.7758098"
       transform="rotate(-7.0677,-736.9081,2491.5949)"
       fill="#e6e6e6"
       id="ellipse33" /><ellipse
       cx="826.66626"
       cy="511.29437"
       rx="3.3223"
       ry="4.7758098"
       transform="rotate(-7.0677,-767.23051,2517.1974)"
       fill="#e6e6e6"
       id="ellipse34" /><ellipse
       cx="608.48041"
       cy="464.79929"
       rx="7.5566602"
       ry="5.2568102"
       transform="rotate(-14.91271,-211.98618,1363.5368)"
       fill="#e6e6e6"
       id="ellipse35" /><ellipse
       cx="559.0838"
       cy="465.71436"
       rx="7.5566602"
       ry="5.2568002"
       transform="rotate(-14.91271,-261.38273,1364.4519)"
       fill="#e6e6e6"
       id="ellipse36" /><ellipse
       cx="617.25562"
       cy="423.70209"
       rx="7.5566602"
       ry="5.2568102"
       transform="matrix(0.96632,-0.25735,0.25735,0.96632,-347.17043,-7.75469)"
       fill="#e6e6e6"
       id="ellipse37" /><ellipse
       cx="632.58984"
       cy="406.57266"
       rx="3.3223"
       ry="4.7758098"
       transform="rotate(-7.0677,-961.30685,2412.4756)"
       fill="#e6e6e6"
       id="ellipse38" /><ellipse
       cx="636.27808"
       cy="375.56729"
       rx="3.3223"
       ry="4.7758098"
       transform="rotate(-7.0677,-957.61863,2381.4703)"
       fill="#e6e6e6"
       id="ellipse39" /><ellipse
       cx="586.48578"
       cy="435.17108"
       rx="3.3223"
       ry="4.7758098"
       transform="rotate(-7.0677,-1007.4109,2441.0741)"
       fill="#e6e6e6"
       id="ellipse40" /><ellipse
       cx="611.45917"
       cy="444.2103"
       rx="3.3223"
       ry="4.7758098"
       transform="rotate(-7.0677,-982.43752,2450.1133)"
       fill="#e6e6e6"
       id="ellipse41" /><ellipse
       cx="581.13678"
       cy="469.81277"
       rx="3.3223"
       ry="4.7758098"
       transform="rotate(-7.0677,-1012.7599,2475.7157)"
       fill="#e6e6e6"
       id="ellipse42" /><ellipse
       cx="908.58612"
       cy="274.86374"
       rx="7.5566602"
       ry="5.2568102"
       transform="rotate(-14.91271,88.119537,1173.6013)"
       fill="#e6e6e6"
       id="ellipse43" /><ellipse
       cx="859.18958"
       cy="275.77881"
       rx="7.5566602"
       ry="5.2568002"
       transform="rotate(-14.91271,38.722951,1174.5164)"
       fill="#e6e6e6"
       id="ellipse44" /><ellipse
       cx="917.36139"
       cy="233.76654"
       rx="7.5566602"
       ry="5.2568102"
       transform="matrix(0.96632,-0.25735,0.25735,0.96632,-288.18321,63.07944)"
       fill="#e6e6e6"
       id="ellipse45" /><ellipse
       cx="932.69556"
       cy="216.63712"
       rx="3.3223"
       ry="4.7758098"
       transform="rotate(-7.0677,-661.20118,2222.5401)"
       fill="#e6e6e6"
       id="ellipse46" /><ellipse
       cx="936.38385"
       cy="185.63174"
       rx="3.3223"
       ry="4.7758098"
       transform="rotate(-7.0677,-657.51288,2191.5347)"
       fill="#e6e6e6"
       id="ellipse47" /><ellipse
       cx="886.59149"
       cy="245.23553"
       rx="3.3223"
       ry="4.7758098"
       transform="rotate(-7.0677,-707.30523,2251.1385)"
       fill="#e6e6e6"
       id="ellipse48" /><ellipse
       cx="911.56488"
       cy="254.27477"
       rx="3.3223"
       ry="4.7758098"
       transform="rotate(-7.0677,-682.33186,2260.1778)"
       fill="#e6e6e6"
       id="ellipse49" /><ellipse
       cx="881.24255"
       cy="279.87723"
       rx="3.3223"
       ry="4.7758098"
       transform="rotate(-7.0677,-712.65418,2285.7802)"
       fill="#e6e6e6"
       id="ellipse50" /><path
       d="m 594.99137,476.90621 c -8.08165,0 -13.33564,-2.00809 -15.66108,-6.00039 -4.58578,-7.87213 3.09455,-21.68533 22.82726,-41.05525 l 1.65762,1.68843 c -18.32967,17.99344 -26.29924,31.55092 -22.44059,38.176 2.44175,4.19026 9.70845,5.69228 21.01906,4.34123 11.22819,-1.34027 26.10821,-5.33564 44.22683,-11.87444 37.301,-13.462 84.099,-36.16945 131.77311,-63.9399 47.67262,-27.76968 90.50989,-57.27632 120.62157,-83.08336 5.78355,-4.95782 11.03254,-9.72732 15.601,-14.17484 a 155.3539,155.3539 0 0 0 16.54457,-18.43905 c 6.75409,-9.1708 9.0337,-16.23339 6.59233,-20.42441 -4.07779,-6.99981 -21.20777,-6.34161 -48.23722,1.856 l -0.68631,-2.26459 c 28.99941,-8.79376 46.14788,-9.05757 50.96821,-0.7822 2.99518,5.14153 0.73021,12.88618 -6.73137,23.01867 a 157.68877,157.68877 0 0 1 -16.79953,18.731 c -4.60389,4.48258 -9.89023,9.28558 -15.71192,14.27614 -30.21682,25.89755 -73.1781,55.492 -120.97049,83.331 -47.79356,27.84054 -94.72942,50.61273 -132.16056,64.12168 -18.28731,6.59965 -33.34334,10.63662 -44.74984,11.99768 a 65.2269,65.2269 0 0 1 -7.68265,0.5006 z"
       transform="translate(-258.92169,-180.87436)"
       fill="#3f3d56"
       id="path50" /></g></svg>
