<?xml version="1.0" encoding="UTF-8" standalone="no"?>
<!-- Created with Inkscape (http://www.inkscape.org/) -->

<svg
   width="120"
   height="120"
   viewBox="0 0 120 120"
   version="1.1"
   id="svg1"
   xml:space="preserve"
   xmlns="http://www.w3.org/2000/svg"
   xmlns:svg="http://www.w3.org/2000/svg"><defs
     id="defs1" /><g
     id="layer1"
     style="display:inline" /><text
     xml:space="preserve"
     style="font-style:normal;font-variant:normal;font-weight:bold;font-stretch:normal;font-size:32px;font-family:Arial;-inkscape-font-specification:'Arial, Bold';font-variant-ligatures:normal;font-variant-caps:normal;font-variant-numeric:normal;font-variant-east-asian:normal;text-align:center;text-anchor:middle;fill:#536dfe;fill-opacity:1;fill-rule:evenodd;stroke:none;stroke-width:2.33;stroke-linecap:round;stroke-miterlimit:4.1;paint-order:markers fill stroke"
     x="27.549406"
     y="32.851032"
     id="text5"><tspan
       id="tspan5"
       style="font-size:32px;fill:#536dfe;fill-opacity:1;stroke-width:2.33"
       x="27.549406"
       y="32.851032">6</tspan></text><text
     xml:space="preserve"
     style="font-style:normal;font-variant:normal;font-weight:bold;font-stretch:normal;font-size:10.6667px;font-family:Sans;-inkscape-font-specification:'Sans, Bold';font-variant-ligatures:normal;font-variant-caps:normal;font-variant-numeric:normal;font-variant-east-asian:normal;text-align:center;text-anchor:middle;fill:#000000;fill-opacity:1;fill-rule:evenodd;stroke:none;stroke-width:2.33;stroke-linecap:round;stroke-miterlimit:4.1;paint-order:markers fill stroke"
     x="65.833328"
     y="24.846363"
     id="text3"><tspan
       id="tspan3"
       x="65.833328"
       y="24.846363">Domain</tspan></text><text
     xml:space="preserve"
     style="font-style:normal;font-variant:normal;font-weight:bold;font-stretch:normal;font-size:10.6667px;font-family:Sans;-inkscape-font-specification:'Sans, Bold';font-variant-ligatures:normal;font-variant-caps:normal;font-variant-numeric:normal;font-variant-east-asian:normal;text-align:center;text-anchor:middle;opacity:1;fill:#000000;fill-opacity:1;fill-rule:evenodd;stroke:none;stroke-width:2.33;stroke-linecap:round;stroke-miterlimit:4.1;paint-order:markers fill stroke"
     x="40.340687"
     y="68.059433"
     id="text8"><tspan
       id="tspan8"
       x="40.340687"
       y="68.059433" /></text><text
     xml:space="preserve"
     style="font-style:normal;font-variant:normal;font-weight:bold;font-stretch:normal;font-size:4px;font-family:Sans;-inkscape-font-specification:'Sans, Bold';font-variant-ligatures:normal;font-variant-caps:normal;font-variant-numeric:normal;font-variant-east-asian:normal;text-align:center;text-anchor:middle;opacity:0.996063;fill:#000000;fill-opacity:1;fill-rule:evenodd;stroke-width:2.33;stroke-linecap:round;stroke-miterlimit:4.1;paint-order:markers fill stroke"
     x="59.92448"
     y="44.196301"
     id="text7"><tspan
       id="tspan7"
       x="59.92448"
       y="44.196301"
       style="font-style:normal;font-variant:normal;font-weight:bold;font-stretch:normal;font-size:4px;font-family:Sans;-inkscape-font-specification:'Sans, Bold';font-variant-ligatures:normal;font-variant-caps:normal;font-variant-numeric:normal;font-variant-east-asian:normal;fill:#000000;fill-opacity:1">INFRA | GRC | SECURITY | PRODUCT | AUDIT | DR</tspan></text><g
     id="g8"
     transform="matrix(0.14963106,0,0,0.14963106,1.0000017,55.850362)"><path
       d="m 942.33387,700.8888 c -10.21678,-6.83513 -15.36154,-19.838 -15.56457,-32.1287 -0.0681,-4.12168 0.97214,-8.90006 4.6644,-10.73313 a 6.40929,6.40929 0 0 1 9.17367,6.78517 62.0452,62.0452 0 0 1 5.30063,-11.51634 c 1.82517,-3.08817 4.388,-6.30229 7.96315,-6.59584 4.14764,-0.34055 7.61254,3.6882 8.20046,7.80806 0.58792,4.11986 -0.91111,8.22009 -2.38458,12.11211 a 10.8304,10.8304 0 0 1 17.15884,-6.08445 c 4.05614,3.13127 5.39282,8.89413 4.37235,13.91565 -1.02047,5.02152 -4.01718,9.4151 -7.33124,13.32331 -3.886,4.5827 -8.38562,8.77056 -13.773,11.43105 -5.38738,2.66049 -11.75774,3.67806 -17.48911,1.87429 z"
       transform="translate(-205.69685,-197.26772)"
       fill="#f2f2f2"
       id="path1-7" /><path
       d="m 802.59173,536.29076 a 10.74267,10.74267 0 0 0 3.84155,-16.01843 l 25.033,-121.54 -23.36007,-0.30784 -17.384,119.99816 a 10.80091,10.80091 0 0 0 11.86954,17.86816 z"
       transform="translate(-205.69685,-197.26772)"
       fill="#ffb8b8"
       id="path2-2" /><path
       d="m 916.376,529.97948 a 10.74267,10.74267 0 0 0 -0.89739,-16.44817 L 904.72644,389.90678 882.253,396.289 899.89428,516.24961 a 10.80091,10.80091 0 0 0 16.48172,13.72987 z"
       transform="translate(-205.69685,-197.26772)"
       fill="#ffb8b8"
       id="path3-9" /><polygon
       points="620.499,444.868 638.593,444.869 638.591,492.157 626.331,492.156 "
       fill="#ffb8b8"
       id="polygon3" /><path
       d="m 617.57428,488.65334 h 23.64384 v 14.88687 H 602.6874 v 0 a 14.88688,14.88688 0 0 1 14.88688,-14.88687 z"
       fill="#2f2e41"
       id="path4-3" /><polygon
       points="675.499,444.868 693.593,444.869 693.591,492.157 681.331,492.156 "
       fill="#ffb8b8"
       id="polygon4" /><path
       d="m 672.57428,488.65334 h 23.64384 v 14.88687 H 657.6874 v 0 a 14.88688,14.88688 0 0 1 14.88688,-14.88687 z"
       fill="#2f2e41"
       id="path5" /><circle
       cx="641.7677"
       cy="129.73228"
       r="24.561029"
       fill="#ffb8b8"
       id="circle5" /><path
       d="m 881.99281,659.58678 a 4.33406,4.33406 0 0 1 -4.23108,-3.48972 l -16.604,-85.90651 a 3.34938,3.34938 0 0 0 -6.61752,0.26635 l -9.29766,83.67754 a 4.28546,4.28546 0 0 1 -4.08458,3.82523 l -13.94509,0.63365 a 4.23451,4.23451 0 0 1 -3.10607,-1.1271 4.27755,4.27755 0 0 1 -1.39229,-2.99626 l -5.347,-129.25883 a 4.28031,4.28031 0 0 1 1.50794,-3.45421 l 3.092,-2.63831 a 4.31148,4.31148 0 0 1 2.79486,-1.02991 h 72.27871 a 4.31139,4.31139 0 0 1 4.30654,4.30654 V 654.6251 a 4.29851,4.29851 0 0 1 -4.11939,4.3028 l -15.05116,0.65514 c -0.0616,0.002 -0.12302,0.004 -0.18421,0.004 z"
       transform="translate(-205.69685,-197.26772)"
       fill="#2f2e41"
       id="path6" /><path
       d="m 844.97576,536.89523 c -11.68574,9.4e-4 -21.98644,-3.11308 -27.18643,-12.19438 a 4.38672,4.38672 0 0 1 -0.586,-2.472 l 6.53388,-99.87659 a 3.34931,3.34931 0 0 0 -0.679,-2.25047 l -18.33387,-24.03831 a 4.305,4.305 0 0 1 0.82359,-6.043 l 27.50186,-20.8355 a 3.36648,3.36648 0 0 0 1.19813,-1.74953 l 0.80117,-2.80374 a 4.29778,4.29778 0 0 1 3.97523,-3.12056 l 20.1806,-0.77664 a 4.34761,4.34761 0 0 1 3.52851,1.614 l 2.14766,2.68411 a 3.3412,3.3412 0 0 0 0.996,0.84019 l 33.74952,18.65046 a 4.31507,4.31507 0 0 1 2.22336,3.72336 l 7e-4,0.0598 -0.0138,0.057 c -7.86729,32.80279 -7.42477,74.26445 1.39229,130.485 a 4.30494,4.30494 0 0 1 -2.58084,4.06355 c -7.3046,3.16361 -33.89198,13.98323 -55.67258,13.98323 z"
       transform="translate(-205.69685,-197.26772)"
       fill="#6c63ff"
       id="path7" /><path
       d="M 824.42414,433.87191 H 801.566 a 4.30071,4.30071 0 0 1 -4.29977,-4.55047 c 0.34019,-5.82336 1.01122,-16.89812 1.683,-25.63176 0.96682,-12.56822 13.28153,-18.7542 13.4056,-18.81588 l 0.24089,-0.11776 8.314,5.27757 7.73738,38.68783 a 4.30686,4.30686 0 0 1 -4.22289,5.15047 z"
       transform="translate(-205.69685,-197.26772)"
       fill="#6c63ff"
       id="path8" /><path
       d="m 887.06009,431.73827 a 4.31245,4.31245 0 0 1 -4.26028,-4.7757 l 4.21846,-38.81027 8.15,-5.96916 0.18551,0.0206 c 0.0871,0.0103 8.76939,1.0944 12.65888,10.81776 2.76962,6.92429 7,19.72149 9.27523,26.73363 a 4.30162,4.30162 0 0 1 -3.08084,5.50654 l -26.10817,6.35047 a 4.3564,4.3564 0 0 1 -1.03879,0.12617 z"
       transform="translate(-205.69685,-197.26772)"
       fill="#6c63ff"
       id="path9" /><path
       d="m 848.02362,351.73228 c 5.25293,-8.31094 -1.30517,-31.189 -15.5957,-31.78592 -3.29932,-0.13781 -4.56638,-4.93874 -5.68754,-8.04446 a 12.38934,12.38934 0 0 1 1.61042,-10.77928 20.33678,20.33678 0 0 1 8.67558,-7.0083 30.10675,30.10675 0 1 1 16.86118,57.15692 z"
       transform="translate(-205.69685,-197.26772)"
       fill="#2f2e41"
       id="path10" /><path
       d="m 699.69685,197.26772 h -487 a 7.00778,7.00778 0 0 0 -7,7 v 330 a 7.00779,7.00779 0 0 0 7,7 h 487 a 7.00779,7.00779 0 0 0 7,-7 v -330 a 7.00778,7.00778 0 0 0 -7,-7 z m 5,337 a 5.002,5.002 0 0 1 -5,5 h -487 a 5.002,5.002 0 0 1 -5,-5 v -330 a 5.002,5.002 0 0 1 5,-5 h 487 a 5.002,5.002 0 0 1 5,5 z"
       transform="translate(-205.69685,-197.26772)"
       fill="#3f3d56"
       id="path11" /><rect
       x="1"
       y="28.03998"
       width="499"
       height="2"
       fill="#3f3d56"
       id="rect11-2" /><circle
       cx="18"
       cy="15"
       r="6"
       fill="#3f3d56"
       id="circle11" /><circle
       cx="35.25"
       cy="15"
       r="6"
       fill="#3f3d56"
       id="circle12" /><circle
       cx="52.5"
       cy="15"
       r="6"
       fill="#3f3d56"
       id="circle13" /><path
       d="m 609.52362,293.73228 h -310 a 15.5,15.5 0 0 1 0,-31 h 310 a 15.5,15.5 0 0 1 0,31 z m -310,-29 a 13.5,13.5 0 0 0 0,27 h 310 a 13.5,13.5 0 0 0 0,-27 z"
       transform="translate(-205.69685,-197.26772)"
       fill="#3f3d56"
       id="path13-6" /><path
       d="m 379.52362,372.73228 h -60 a 15.5,15.5 0 0 1 0,-31 h 60 a 15.5,15.5 0 0 1 0,31 z m -60,-29 a 13.5,13.5 0 0 0 0,27 h 60 a 13.5,13.5 0 0 0 0,-27 z"
       transform="translate(-205.69685,-197.26772)"
       fill="#3f3d56"
       id="path14-1" /><path
       d="m 379.52362,424.73228 h -60 a 15.5,15.5 0 0 1 0,-31 h 60 a 15.5,15.5 0 0 1 0,31 z m -60,-29 a 13.5,13.5 0 0 0 0,27 h 60 a 13.5,13.5 0 0 0 0,-27 z"
       transform="translate(-205.69685,-197.26772)"
       fill="#3f3d56"
       id="path15-1" /><path
       d="m 379.52362,476.73228 h -60 a 15.5,15.5 0 0 1 0,-31 h 60 a 15.5,15.5 0 0 1 0,31 z m -60,-29 a 13.5,13.5 0 0 0 0,27 h 60 a 13.5,13.5 0 0 0 0,-27 z"
       transform="translate(-205.69685,-197.26772)"
       fill="#3f3d56"
       id="path16" /><path
       d="m 388.52362,285.23228 h -84 a 7,7 0 0 1 0,-14 h 84 a 7,7 0 0 1 0,14 z"
       transform="translate(-205.69685,-197.26772)"
       fill="#6c63ff"
       id="path17" /><path
       d="m 599.02362,281.73228 a 7,7 0 1 1 7,-7 7.00786,7.00786 0 0 1 -7,7 z m 0,-12 a 5,5 0 1 0 5,5 5.00573,5.00573 0 0 0 -5,-5 z"
       transform="translate(-205.69685,-197.26772)"
       fill="#3f3d56"
       id="path18" /><path
       d="m 609.85224,288.0648 a 0.99676,0.99676 0 0 1 -0.707,-0.293 l -7.02612,-7.02636 a 0.99989495,0.99989495 0 1 1 1.41406,-1.41407 l 7.02613,7.02637 a 1,1 0 0 1 -0.707,1.707 z"
       transform="translate(-205.69685,-197.26772)"
       fill="#3f3d56"
       id="path19" /><path
       d="m 595.02362,366.73228 h -34 a 9.5,9.5 0 0 1 0,-19 h 34 a 9.5,9.5 0 0 1 0,19 z"
       transform="translate(-205.69685,-197.26772)"
       fill="#6c63ff"
       id="path20-1" /><path
       d="m 595.02362,418.73228 h -34 a 9.5,9.5 0 0 1 0,-19 h 34 a 9.5,9.5 0 0 1 0,19 z"
       transform="translate(-205.69685,-197.26772)"
       fill="#6c63ff"
       id="path21-8" /><path
       d="m 595.02362,470.73228 h -34 a 9.5,9.5 0 0 1 0,-19 h 34 a 9.5,9.5 0 0 1 0,19 z"
       transform="translate(-205.69685,-197.26772)"
       fill="#6c63ff"
       id="path22" /><path
       d="m 993.30315,702.73228 h -248 a 1,1 0 0 1 0,-2 h 248 a 1,1 0 0 1 0,2 z"
       transform="translate(-205.69685,-197.26772)"
       fill="#3f3d56"
       id="path23" /></g></svg>
