<?xml version="1.0" encoding="UTF-8" standalone="no"?>
<!-- Created with Inkscape (http://www.inkscape.org/) -->

<svg
   width="120"
   height="120"
   viewBox="0 0 120 120"
   version="1.1"
   id="svg1"
   xml:space="preserve"
   xmlns="http://www.w3.org/2000/svg"
   xmlns:svg="http://www.w3.org/2000/svg"><defs
     id="defs1" /><g
     id="layer1"
     style="display:inline" /><text
     xml:space="preserve"
     style="font-style:normal;font-variant:normal;font-weight:bold;font-stretch:normal;font-size:32px;font-family:Arial;-inkscape-font-specification:'Arial, Bold';font-variant-ligatures:normal;font-variant-caps:normal;font-variant-numeric:normal;font-variant-east-asian:normal;text-align:center;text-anchor:middle;fill:#536dfe;fill-opacity:1;fill-rule:evenodd;stroke:none;stroke-width:2.33;stroke-linecap:round;stroke-miterlimit:4.1;paint-order:markers fill stroke"
     x="27.549406"
     y="32.851032"
     id="text5"><tspan
       id="tspan5"
       style="font-size:32px;fill:#536dfe;fill-opacity:1;stroke-width:2.33"
       x="27.549406"
       y="32.851032">4</tspan></text><text
     xml:space="preserve"
     style="font-style:normal;font-variant:normal;font-weight:bold;font-stretch:normal;font-size:10.6667px;font-family:Sans;-inkscape-font-specification:'Sans, Bold';font-variant-ligatures:normal;font-variant-caps:normal;font-variant-numeric:normal;font-variant-east-asian:normal;text-align:center;text-anchor:middle;fill:#000000;fill-opacity:1;fill-rule:evenodd;stroke:none;stroke-width:2.33;stroke-linecap:round;stroke-miterlimit:4.1;paint-order:markers fill stroke"
     x="65.833328"
     y="24.846363"
     id="text3"><tspan
       id="tspan3"
       x="65.833328"
       y="24.846363">Segment</tspan></text><g
     id="g7"
     transform="matrix(0.13288288,0,0,0.13288288,53.559264,78.892203)"><g
       id="g6"
       transform="translate(-395.53073,-170.44708)"><path
         d="m 369.70122,672.44322 -21.87443,-34.71387 21.88457,38.49557 0.0117,3.95547 q 2.34084,-0.0274 4.63442,-0.17946 l -1.78417,-50.81218 0.0235,-0.39275 -0.0402,-0.075 -0.16988,-4.80142 22.87164,-38.04637 -22.89523,34.4507 -0.0685,1.017 -1.34778,-38.39059 19.66232,-39.36387 -19.816,32.61808 -0.92176,-79.573 -0.004,-0.26483 -0.003,0.2606 -0.44881,62.73791 -18.78843,-25.10244 18.80506,30.50606 0.0872,34.362 -17.4329,-33.18692 17.44253,38.23878 0.0482,19.107 -25.32289,-46.20812 25.34285,52.87363 z"
         transform="translate(-156,-219.73719)"
         fill="#e2e2e2"
         id="path1" /><path
         d="m 557.41283,672.44322 -21.87443,-34.71387 21.8846,38.49557 0.0117,3.95547 q 2.34084,-0.0274 4.63442,-0.17946 l -1.78415,-50.81218 0.0235,-0.39275 -0.0402,-0.075 -0.16988,-4.80142 22.87162,-38.04635 -22.89524,34.4507 -0.0685,1.017 -1.34778,-38.39059 19.66232,-39.36387 -19.816,32.61808 -0.92176,-79.573 -0.004,-0.26483 -0.003,0.2606 -0.4488,62.73791 -18.78843,-25.10244 18.80506,30.50606 0.0872,34.362 -17.43291,-33.18692 17.44254,38.23878 0.0482,19.107 -25.32288,-46.20808 25.34285,52.87363 z"
         transform="translate(-156,-219.73719)"
         fill="#e2e2e2"
         id="path2" /><path
         d="m 181.81131,674.67584 -15.79541,-25.0667 15.80273,27.79745 0.008,2.85622 q 1.6903,-0.0197 3.34649,-0.12959 l -1.28834,-36.6912 0.0169,-0.2836 -0.029,-0.0541 -0.12267,-3.46707 16.51548,-27.47309 -16.53253,24.87667 -0.0495,0.73435 -0.97323,-27.72164 14.19806,-28.42444 -14.309,23.55334 -0.6656,-57.45927 -0.003,-0.19123 -0.002,0.18817 -0.32408,45.30272 -13.567,-18.12634 13.579,22.02826 0.063,24.81262 -12.58821,-23.9641 12.59516,27.612 0.0348,13.79707 -18.28561,-33.36659 18.29994,38.17977 z"
         transform="translate(-156,-219.73719)"
         fill="#e2e2e2"
         id="path3" /><path
         d="m 1013.9451,672.44322 -21.87448,-34.71387 21.88458,38.49557 0.012,3.95547 q 2.3408,-0.0274 4.6344,-0.17946 l -1.7841,-50.81218 0.023,-0.39275 -0.04,-0.075 -0.1699,-4.80142 22.8717,-38.04637 -22.8953,34.4507 -0.068,1.017 -1.3477,-38.39059 19.6623,-39.36387 -19.816,32.61808 -0.9218,-79.573 v -0.26483 0.2606 l -0.4488,62.73791 -18.78841,-25.10244 18.80511,30.50606 0.087,34.362 -17.43296,-33.18692 17.44256,38.23878 0.048,19.107 -25.32288,-46.20808 25.34288,52.87363 z"
         transform="translate(-156,-219.73719)"
         fill="#e2e2e2"
         id="path4" /><rect
         x="420.71393"
         y="615.03253"
         width="118"
         height="5"
         transform="rotate(180,401.71394,507.66397)"
         fill="#6c63ff"
         id="rect4" /><rect
         x="414.71393"
         y="610.03253"
         width="118"
         height="5"
         transform="rotate(180,395.71394,502.66397)"
         fill="#6c63ff"
         id="rect5" /><rect
         x="421.71393"
         y="605.03253"
         width="118"
         height="5"
         transform="rotate(180,402.71394,497.66397)"
         fill="#6c63ff"
         id="rect6" /><rect
         x="433.71393"
         y="600.03253"
         width="118"
         height="5"
         transform="rotate(180,414.71394,492.66397)"
         fill="#6c63ff"
         id="rect7" /><rect
         x="333.31299"
         y="577.93732"
         width="4.0969701"
         height="29.08849"
         transform="rotate(180,257.36147,482.61297)"
         fill="#3f3d56"
         id="rect8" /><rect
         x="407.83084"
         y="466.88794"
         width="4.0969701"
         height="163.62126"
         transform="rotate(-112.09151,257.89962,491.35106)"
         fill="#3f3d56"
         id="rect9" /><rect
         x="257.51901"
         y="636.52399"
         width="35.64365"
         height="13.9297"
         transform="rotate(180,197.34085,533.62026)"
         fill="#3f3d56"
         id="rect10" /><rect
         x="260.7966"
         y="648.81494"
         width="175.76006"
         height="15.56849"
         transform="rotate(180,270.67663,546.73057)"
         fill="#3f3d56"
         id="rect11" /><polygon
         points="144.332,383.806 133.68,410.565 133.68,436.862 175.879,436.862 175.879,383.806 "
         fill="#e2e2e2"
         id="polygon11" /><rect
         x="307.29721"
         y="606.82098"
         width="18.02667"
         height="18.02667"
         transform="rotate(180,238.31056,505.96571)"
         fill="#ffffff"
         id="rect12" /><polygon
         points="137.777,405.315 149.249,405.315 149.249,387.289 144.332,387.289 "
         fill="#ffffff"
         id="polygon12" /><rect
         x="320.40753"
         y="635.09009"
         width="4.0969701"
         height="7.7842498"
         transform="rotate(180,244.45601,529.1136)"
         fill="#3f3d56"
         id="rect13" /><path
         d="m 297.66934,618.49733 h 0.20485 a 3.89212,3.89212 0 0 1 3.89212,3.89212 v 0 a 3.89212,3.89212 0 0 1 -3.89212,3.89212 h -0.20485 v -7.78425 z"
         transform="rotate(180,221.71783,512.52086)"
         fill="#3f3d56"
         id="path13" /><path
         d="m 450.07667,648.81492 h 0.20485 a 3.89212,3.89212 0 0 1 3.89212,3.89212 v 0 a 3.89212,3.89212 0 0 1 -3.89212,3.89212 h -0.20485 v -7.78425 z"
         transform="rotate(180,374.12514,542.83845)"
         fill="#3f3d56"
         id="path14" /><path
         d="m 273.29236,648.75613 a 20.2704,20.2704 0 0 0 -15.75558,7.843 h -8.00685 l 7.78425,-21.68366 36.25819,-7.151 -1.02424,28.83466 H 289.048 a 20.27042,20.27042 0 0 0 -15.75564,-7.843 z"
         transform="translate(-156,-219.73719)"
         fill="#e2e2e2"
         id="path15" /><circle
         cx="116.88267"
         cy="441.98318"
         r="17.821819"
         fill="#3f3d56"
         id="circle15" /><circle
         cx="116.88267"
         cy="441.98318"
         r="9.3799105"
         fill="#e2e2e2"
         id="circle16" /><circle
         cx="277.89362"
         cy="444.03168"
         r="15.56849"
         fill="#3f3d56"
         id="circle17" /><circle
         cx="277.89362"
         cy="444.03168"
         r="8.1939402"
         fill="#e2e2e2"
         id="circle18" /><rect
         x="330.64996"
         y="596.16882"
         width="8.6036396"
         height="62.069111"
         transform="rotate(180,256.95178,517.3348)"
         fill="#3f3d56"
         id="rect18" /><rect
         x="330.64996"
         y="646.97125"
         width="123.72853"
         height="3.6872699"
         transform="rotate(180,314.51422,538.94632)"
         fill="#3f3d56"
         id="rect19" /><rect
         x="299.30814"
         y="625.87189"
         width="4.0969701"
         height="1.63879"
         transform="rotate(180,223.35661,516.82268)"
         fill="#3f3d56"
         id="rect20" /><path
         d="m 480.39425,620.00189 a 0.40971,0.40971 0 0 1 -0.10422,-0.31848 l 5.65034,-53.43206 a 0.40987,0.40987 0 0 1 0.40569,-0.36669 h 0.002 a 0.40985,0.40985 0 0 1 0.4071,0.36309 L 492.866,619.569 a 0.40975,0.40975 0 0 1 -0.4033,0.4563 l -11.76139,0.11083 h -0.004 a 0.40928,0.40928 0 0 1 -0.30326,-0.13424 z m 5.97,-49.96645 -5.211,49.27688 L 492,619.2103 Z"
         transform="translate(-156,-219.73719)"
         fill="#3f3d56"
         id="path20" /><path
         d="m 255.88024,635.70461 h 0.20485 a 3.89212,3.89212 0 0 1 3.89212,3.89212 v 0 a 3.89212,3.89212 0 0 1 -3.89212,3.89212 h -0.20485 v -7.78425 z"
         transform="rotate(20.71738,780.99603,103.00691)"
         fill="#3f3d56"
         id="path21" /><rect
         x="484.49121"
         y="516.07306"
         width="4.0969701"
         height="59.815781"
         transform="rotate(180,408.53971,436.11235)"
         fill="#3f3d56"
         id="rect21" /><circle
         cx="179.36148"
         cy="359.01953"
         r="5.7357602"
         fill="#3f3d56"
         id="circle21" /><rect
         x="343.71393"
         y="642.03253"
         width="118"
         height="5"
         transform="rotate(180,324.71394,534.66397)"
         fill="#6c63ff"
         id="rect22" /><rect
         x="350.71393"
         y="637.03253"
         width="118"
         height="5"
         transform="rotate(180,331.71394,529.66397)"
         fill="#6c63ff"
         id="rect23" /><rect
         x="345.71393"
         y="633.03253"
         width="118"
         height="5"
         transform="rotate(180,326.71394,525.66397)"
         fill="#6c63ff"
         id="rect24" /><rect
         x="352.71393"
         y="628.03253"
         width="118"
         height="5"
         transform="rotate(180,333.71394,520.66397)"
         fill="#6c63ff"
         id="rect25" /><path
         d="m 538.33725,341.97939 a 15.59567,15.59567 0 0 1 10.23657,3.81414 15.60631,15.60631 0 0 1 6.88715,-0.30262 15.65993,15.65993 0 0 1 28.55484,8.887 h -60.99694 a 15.66484,15.66484 0 0 1 15.31838,-12.39852 z"
         transform="translate(-156,-219.73719)"
         fill="#e2e2e2"
         id="path25" /><path
         d="m 446.57156,391.32748 a 14.74417,14.74417 0 0 1 9.67768,3.6059 14.75453,14.75453 0 0 1 6.51113,-0.2861 14.80494,14.80494 0 0 1 26.99582,8.40174 h -57.66666 a 14.80958,14.80958 0 0 1 14.48203,-11.72154 z"
         transform="translate(-156,-219.73719)"
         fill="#e2e2e2"
         id="path26" /><path
         d="m 354.82419,309.93539 a 15.34075,15.34075 0 0 1 10.06927,3.75181 15.35133,15.35133 0 0 1 6.77459,-0.29768 15.404,15.404 0 0 1 28.08814,8.7417 h -60 a 15.40882,15.40882 0 0 1 15.068,-12.19583 z"
         transform="translate(-156,-219.73719)"
         fill="#e2e2e2"
         id="path27" /><path
         d="M 750.99875,464.92273 V 589.82849 H 799.573 V 463.18787 l -11.27588,0.40271 v -25.55737 h -8.17871 l -1.34766,-56.60376 c 3.30029,-2.15052 5.62305,-7.25818 5.62305,-13.222 a 21.66875,21.66875 0 0 0 -0.59375,-5.084 10.4004,10.4004 0 0 0 1.12012,-12.66773 10.40734,10.40734 0 1 0 13.4873,-15.85144 10.40972,10.40972 0 1 0 -14.01367,-9.767 c 0,0.15247 0.005,0.30371 0.0112,0.45435 a 10.41549,10.41549 0 0 0 -13.33789,8.38257 10.409,10.409 0 1 0 -7.48535,19.1272 c -0.002,0.0756 -0.006,0.15051 -0.006,0.22656 a 50.59934,50.59934 0 0 0 3.67627,8.43457 21.02593,21.02593 0 0 0 -1.07373,6.74487 c 0,5.96387 2.32226,11.07153 5.62255,13.222 l -1.34765,56.60376 h -8.17822 v 26.48674 z m 30.332,-119.26843 0.0269,6.1e-4 c 0.15039,0 0.29931,-0.005 0.44775,-0.0112 q 0.14063,0.46143 0.32178,0.90356 a 10.45284,10.45284 0 0 0 -0.79636,-0.89294 z"
         transform="translate(-156,-219.73719)"
         fill="#e2e2e2"
         id="path28-7" /><rect
         x="724.25378"
         y="508.14822"
         width="147.45827"
         height="170.58897"
         transform="rotate(180,719.98294,483.5741)"
         fill="#3f3d56"
         id="rect28" /><rect
         x="778.10498"
         y="644.04114"
         width="39.755909"
         height="34.69606"
         transform="rotate(180,719.98294,551.52056)"
         fill="#e2e2e2"
         id="rect29" /><path
         d="m 675.11058,283.692 c -0.003,0.126 -0.01,0.2509 -0.01,0.37748 a 17.2926,17.2926 0 0 0 5.26,12.43748 17.32924,17.32924 0 0 0 0.86719,1.62029 35.02934,35.02934 0 0 0 -1.79014,11.24144 c 0,13.17395 6.796,23.85355 15.17953,23.85355 8.38353,0 15.17952,-10.6796 15.17952,-23.85355 a 36.10523,36.10523 0 0 0 -0.98931,-8.47345 17.33406,17.33406 0 0 0 1.86674,-21.11261 17.34558,17.34558 0 1 0 22.47882,-26.41915 17.34962,17.34962 0 1 0 -23.35625,-16.27825 c 0,0.254 0.008,0.506 0.0191,0.75729 a 17.3592,17.3592 0 0 0 -22.23,13.97086 17.34835,17.34835 0 1 0 -12.4756,31.87862 z m 29.62669,-11.91071 c 0.25024,0 0.49871,-0.008 0.74648,-0.0189 q 0.23348,0.76911 0.53578,1.506 a 17.38709,17.38709 0 0 0 -1.32708,-1.48825 z"
         transform="translate(-156,-219.73719)"
         fill="#e2e2e2"
         id="path29-5" /><path
         d="m 685.94113,451.76722 h 17.3501 l -0.61963,-26.02 v -0.01 l -2.27051,-95.41 a 11.09469,11.09469 0 0 1 -11.56982,0 l -2.27,95.41 v 0.01 z"
         transform="translate(-156,-219.73719)"
         fill="#6c63ff"
         id="path30-6" /><polygon
         points="498.141,250.82 498.141,459 579.092,459 579.092,247.93 560.301,248.6 560.301,206.01 516.931,206.01 516.931,250.15 "
         fill="#6c63ff"
         id="polygon30" /><path
         d="m 881.84129,283.692 c -0.003,0.126 -0.01,0.2509 -0.01,0.37748 a 17.2926,17.2926 0 0 0 5.26,12.43748 17.32924,17.32924 0 0 0 0.86719,1.62029 35.02934,35.02934 0 0 0 -1.79014,11.24144 c 0,13.17395 6.796,23.85355 15.17952,23.85355 8.38352,0 15.17953,-10.6796 15.17953,-23.85355 a 36.10576,36.10576 0 0 0 -0.98931,-8.47345 17.33406,17.33406 0 0 0 1.86674,-21.11261 17.34558,17.34558 0 1 0 22.47881,-26.41915 17.34962,17.34962 0 1 0 -23.35624,-16.27825 c 0,0.254 0.008,0.506 0.0191,0.75729 a 17.3592,17.3592 0 0 0 -22.23,13.97086 17.34835,17.34835 0 1 0 -12.4756,31.87862 z M 911.468,271.78128 c 0.25024,0 0.49871,-0.008 0.74648,-0.0189 q 0.23347,0.76911 0.53577,1.506 a 17.38528,17.38528 0 0 0 -1.32707,-1.48825 z"
         transform="translate(-156,-219.73719)"
         fill="#e2e2e2"
         id="path31-1" /><path
         d="m 892.67428,451.76711 h 17.348 L 907.131,330.33089 a 17.10079,17.10079 0 0 1 -11.56535,0 z"
         transform="translate(-156,-219.73719)"
         fill="#6c63ff"
         id="path32-7" /><polygon
         points="723.661,250.15 704.871,250.82 704.871,459 785.831,459 785.831,247.93 779.181,248.17 767.031,248.6 767.031,206.01 723.661,206.01 "
         fill="#6c63ff"
         id="polygon32" /><rect
         x="819.98291"
         y="528.73718"
         width="20"
         height="20"
         transform="rotate(180,751.98294,428.8686)"
         fill="#ffffff"
         id="rect32" /><rect
         x="787.98291"
         y="528.73718"
         width="20"
         height="20"
         transform="rotate(180,719.98294,428.8686)"
         fill="#ffffff"
         id="rect33" /><rect
         x="755.98291"
         y="528.73718"
         width="20"
         height="20"
         transform="rotate(180,687.98294,428.8686)"
         fill="#ffffff"
         id="rect34" /><rect
         x="819.98291"
         y="560.73718"
         width="20"
         height="20"
         transform="rotate(180,751.98294,460.8686)"
         fill="#ffffff"
         id="rect35" /><rect
         x="787.98291"
         y="560.73718"
         width="20"
         height="20"
         transform="rotate(180,719.98294,460.8686)"
         fill="#ffffff"
         id="rect36" /><rect
         x="755.98291"
         y="560.73718"
         width="20"
         height="20"
         transform="rotate(180,687.98294,460.8686)"
         fill="#ffffff"
         id="rect37" /><rect
         x="819.98291"
         y="592.73718"
         width="20"
         height="20"
         transform="rotate(180,751.98294,492.8686)"
         fill="#ffffff"
         id="rect38" /><rect
         x="787.98291"
         y="592.73718"
         width="20"
         height="20"
         transform="rotate(180,719.98294,492.8686)"
         fill="#ffffff"
         id="rect39" /><rect
         x="755.98291"
         y="592.73718"
         width="20"
         height="20"
         transform="rotate(180,687.98294,492.8686)"
         fill="#ffffff"
         id="rect40" /><rect
         x="684.61761"
         y="520.73718"
         width="20"
         height="20"
         transform="rotate(180,616.61758,420.8686)"
         fill="#ffffff"
         id="rect41" /><rect
         x="684.61761"
         y="552.73718"
         width="20"
         height="20"
         transform="rotate(180,616.61758,452.8686)"
         fill="#ffffff"
         id="rect42" /><rect
         x="684.61761"
         y="584.73718"
         width="20"
         height="20"
         transform="rotate(180,616.61758,484.8686)"
         fill="#ffffff"
         id="rect43" /><rect
         x="684.61761"
         y="616.73718"
         width="20"
         height="20"
         transform="rotate(180,616.61758,516.8686)"
         fill="#ffffff"
         id="rect44" /><rect
         x="891.1814"
         y="520.73718"
         width="20"
         height="20"
         transform="rotate(180,823.18137,420.8686)"
         fill="#ffffff"
         id="rect45" /><rect
         x="891.1814"
         y="552.73718"
         width="20"
         height="20"
         transform="rotate(180,823.18137,452.8686)"
         fill="#ffffff"
         id="rect46" /><rect
         x="891.1814"
         y="584.73718"
         width="20"
         height="20"
         transform="rotate(180,823.18137,484.8686)"
         fill="#ffffff"
         id="rect47" /><rect
         x="891.1814"
         y="616.73718"
         width="20"
         height="20"
         transform="rotate(180,823.18137,516.8686)"
         fill="#ffffff"
         id="rect48" /><rect
         y="458.29538"
         width="888"
         height="2"
         fill="#3f3d56"
         id="rect49"
         x="0" /></g></g><text
     xml:space="preserve"
     style="font-style:normal;font-variant:normal;font-weight:bold;font-stretch:normal;font-size:10.6667px;font-family:Sans;-inkscape-font-specification:'Sans, Bold';font-variant-ligatures:normal;font-variant-caps:normal;font-variant-numeric:normal;font-variant-east-asian:normal;text-align:center;text-anchor:middle;opacity:1;fill:#000000;fill-opacity:1;fill-rule:evenodd;stroke:none;stroke-width:2.33;stroke-linecap:round;stroke-miterlimit:4.1;paint-order:markers fill stroke"
     x="40.340687"
     y="68.059433"
     id="text8"><tspan
       id="tspan8"
       x="40.340687"
       y="68.059433" /></text><text
     xml:space="preserve"
     style="font-weight:bold;font-size:4px;font-family:Sans;-inkscape-font-specification:'Sans, Bold';text-align:center;text-anchor:middle;opacity:0.996063;fill:#000000;fill-opacity:1;fill-rule:evenodd;stroke-width:2.33;stroke-linecap:round;stroke-miterlimit:4.1;paint-order:markers fill stroke;font-style:normal;font-stretch:normal;font-variant:normal;font-variant-ligatures:normal;font-variant-caps:normal;font-variant-numeric:normal;font-variant-east-asian:normal"
     x="59.92448"
     y="44.196301"
     id="text7"><tspan
       id="tspan7"
       x="59.92448"
       y="44.196301"
       style="font-style:normal;font-variant:normal;font-weight:bold;font-stretch:normal;font-size:4px;font-family:Sans;-inkscape-font-specification:'Sans, Bold';font-variant-ligatures:normal;font-variant-caps:normal;font-variant-numeric:normal;font-variant-east-asian:normal;fill:#000000;fill-opacity:1">RETAIL | PHARMA | ENERGY | FINANCE</tspan></text></svg>
