<?xml version="1.0" encoding="UTF-8" standalone="no"?>
<!-- Created with Inkscape (http://www.inkscape.org/) -->

<svg
   width="120"
   height="120"
   viewBox="0 0 120 120"
   version="1.1"
   id="svg1"
   xml:space="preserve"
   inkscape:version="1.3 (0e150ed6c4, 2023-07-21)"
   sodipodi:docname="75prg.svg"
   xmlns:inkscape="http://www.inkscape.org/namespaces/inkscape"
   xmlns:sodipodi="http://sodipodi.sourceforge.net/DTD/sodipodi-0.dtd"
   xmlns="http://www.w3.org/2000/svg"
   xmlns:svg="http://www.w3.org/2000/svg"><sodipodi:namedview
     id="namedview1"
     pagecolor="#ffffff"
     bordercolor="#111111"
     borderopacity="1"
     inkscape:showpageshadow="0"
     inkscape:pageopacity="0"
     inkscape:pagecheckerboard="1"
     inkscape:deskcolor="#d1d1d1"
     inkscape:document-units="px"
     inkscape:zoom="4.040586"
     inkscape:cx="60.016048"
     inkscape:cy="60.016048"
     inkscape:window-width="1366"
     inkscape:window-height="705"
     inkscape:window-x="-8"
     inkscape:window-y="-8"
     inkscape:window-maximized="1"
     inkscape:current-layer="svg1" /><defs
     id="defs1" /><g
     inkscape:label="Layer 1"
     inkscape:groupmode="layer"
     id="layer1"
     style="display:inline" /><g
     id="g8"
     transform="matrix(0.13261234,0,0,0.15308777,11.919237,5.5088277)"><circle
       id="b"
       cx="436.31396"
       cy="42"
       r="18.934059"
       fill="#536dfe" /><path
       id="c-9574"
       d="m 434.43768,49.22279 c -0.42596,7.2e-4 -0.84058,-0.13708 -1.1814,-0.39262 l -0.0211,-0.01585 -4.44977,-3.40392 c -0.8667,-0.66447 -1.0307,-1.90575 -0.36621,-2.77248 0.66443,-0.86673 1.90576,-1.0307 2.77246,-0.36623 v 0 l 2.8822,2.21021 6.81079,-8.88542 c 0.66418,-0.86635 1.90491,-1.03024 2.77124,-0.36607 l 6e-5,3e-5 5.5e-4,4.3e-4 -0.0423,0.05869 0.0434,-0.05869 c 0.86536,0.66507 1.02887,1.90515 0.3656,2.77185 l -8.01099,10.44653 c -0.37567,0.48787 -0.95709,0.77295 -1.57281,0.77116 l -0.002,0.0024 z"
       fill="#ffffff" /><circle
       id="d"
       cx="436.31396"
       cy="170"
       r="18.93405"
       fill="#536dfe" /><path
       id="e-9575"
       d="m 434.43768,177.22278 c -0.42596,7e-4 -0.84058,-0.13708 -1.1814,-0.39264 l -0.0211,-0.0158 -4.44977,-3.40393 c -0.8667,-0.66446 -1.0307,-1.90573 -0.36621,-2.77246 0.66449,-0.86673 1.90576,-1.03067 2.77246,-0.36621 l 2.8822,2.21021 6.81079,-8.88541 c 0.66418,-0.86633 1.90491,-1.03021 2.77124,-0.36603 l 6e-5,3e-5 5.5e-4,4.3e-4 -0.0423,0.0587 0.0434,-0.0587 c 0.86536,0.66507 1.02887,1.90515 0.3656,2.77185 l -8.01099,10.44653 c -0.37567,0.48785 -0.95709,0.77295 -1.57281,0.77115 l -0.002,0.002 z"
       fill="#ffffff" /><path
       d="m 483.8642,368.95905 c -0.23236,-5.93018 4.38666,-10.9259 10.31683,-11.15823 0.63226,-0.0248 1.2655,0.006 1.89227,0.093 l 17.341,-34.02234 9.79852,17.25595 -17.96954,29.66269 c -1.20624,5.84369 -6.92139,9.60303 -12.76508,8.39679 -4.88965,-1.00934 -8.45087,-5.23767 -8.61407,-10.22778 l 6e-5,-6e-5 z"
       fill="#ffb7b7"
       id="path1" /><polygon
       points="551.10101,583.19299 544.62701,530.70203 564.71198,530.703 564.71002,583.19397 "
       fill="#ffb7b7"
       id="polygon1" /><path
       d="m 568.18018,596.3855 -43.88049,-0.002 v -0.55499 c 6.7e-4,-9.43243 7.64709,-17.07874 17.07953,-17.07922 h 10e-4 l 26.80072,10e-4 -8.5e-4,17.63477 z"
       fill="#2f2e41"
       id="path2-5" /><polygon
       points="624.87402,583.19299 618.40002,530.70203 638.48499,530.703 638.48297,583.19397 "
       fill="#ffb7b7"
       id="polygon2" /><path
       d="m 641.95349,596.3855 -43.88049,-0.002 v -0.55499 c 6.7e-4,-9.43243 7.64709,-17.07874 17.07953,-17.07922 h 0.001 l 26.80072,10e-4 -8.5e-4,17.63477 z"
       fill="#2f2e41"
       id="path3-1" /><path
       d="m 504.76678,339.34869 -5.94092,9.90152 c 0,0 9.90149,0 11.88177,14.8522 l 7.9212,-9.90149 -13.86206,-14.85223 z"
       fill="#e5e5e5"
       id="path4" /><path
       d="m 608.73242,318.55554 c 0,0 15.84241,41.58627 18.81281,67.33014 2.9704,25.7439 7.9212,94.06415 7.9212,94.06415 l 9.90155,88.12335 -27.72418,3.96057 -11.88184,-89.11346 -26.73401,-88.12335 -5.94092,88.12329 -4.95074,80.20215 -25.7439,0.99011 -1.98035,-83.17261 -10.89166,-105.94598 5.94092,-50.49762 73.27112,-5.94073 z"
       fill="#2f2e41"
       id="path5" /><polygon
       points="612.198,328.952 531.99597,330.93201 542.888,240.82899 552.789,215.08501 559.93597,205.636 589.42401,192.312 599.32599,199.242 "
       fill="#e5e5e5"
       id="polygon5" /><path
       d="m 591.40485,285.38553 3.02985,-89.56699 c 0,0 5.88153,0.45349 7.86182,3.42401 1.98029,2.97052 34.65521,8.91135 34.65521,8.91135 l -5.94092,92.08389 c 0,0 24.75372,73.27106 15.84241,77.23169 -8.91131,3.96063 -24.75372,2.97046 -24.75372,2.97046 l -30.69464,-95.05441 z"
       fill="#2f2e41"
       id="path6" /><path
       d="m 543.38263,273.99881 10.50378,-60.36459 -23.37579,15.80786 5.94092,43.56662 -4.95074,29.7045 c 0,0 -18.81287,82.18243 -12.87201,85.15289 5.94086,2.97046 12.87201,0 12.87201,0 l 11.88184,-83.17264 v -30.69464 z"
       fill="#2f2e41"
       id="path7" /><path
       d="m 537.44171,227.46179 -6.93109,1.98032 -2.97046,39.60599 -4.95074,34.65524 -23.76355,42.57635 c 0,0 11.88177,-7.92117 16.83252,14.85226 l 26.17065,-45.56387 z"
       fill="#2f2e41"
       id="path8-4" /><path
       d="m 591.2995,360.83893 c 0.92328,-5.86249 6.42419,-9.86649 12.28668,-8.94324 0.62506,0.0985 1.24017,0.25189 1.83826,0.45859 l 23.61572,-30.00879 6.26233,18.82983 -23.38599,25.61002 c -2.31775,5.49835 -8.65393,8.07678 -14.15228,5.75903 -4.60071,-1.93933 -7.27332,-6.77856 -6.46472,-11.70544 z"
       fill="#ffb7b7"
       id="path9-7" /><polygon
       points="622.59497,361.13199 610.71301,340.33899 615.66302,331.42801 631.50598,350.23999 "
       fill="#e5e5e5"
       id="polygon9" /><path
       d="m 629.52563,211.61938 7.9212,-3.9606 c 0,0 5.94092,7.9212 6.93103,14.85226 0.99011,6.93106 5.94092,15.84238 5.94092,20.79312 0,4.95074 13.86212,51.48776 13.86212,51.48776 l -31.68488,64.35977 c 0,0 -6.93103,-23.76358 -21.78326,-25.7439 l 24.75372,-34.65527 -13.86212,-24.75372 7.92126,-62.37943 z"
       fill="#2f2e41"
       id="path10-1" /><path
       d="m 800.92126,596.99609 h -381 c -0.55231,0 -1,-0.44769 -1,-1 0,-0.55231 0.44769,-1 1,-1 h 381 c 0.55231,0 1,0.44769 1,1 0,0.55231 -0.44769,1 -1,1 z"
       fill="#cbcbcb"
       id="path11-3" /><path
       d="M 365,212 H 0 v -84 h 365 z"
       fill="#ffffff"
       id="path12-0" /><path
       d="m 52.67781,155.77438 c -1.96416,0 -3.55641,1.59225 -3.55641,3.55643 0,1.96418 1.59225,3.5564 3.55641,3.5564 h 259.65938 c 1.96414,0 3.55643,-1.59225 3.55643,-3.5564 0,-1.96415 -1.59229,-3.55643 -3.55643,-3.55643 z"
       fill="#536dfe"
       id="path13-8" /><path
       d="m 52.67781,177.11282 c -1.96416,-0.004 -3.55977,1.58475 -3.5639,3.54892 -0.0041,1.96414 1.58475,3.55975 3.5489,3.5639 h 164.15933 c 1.96414,0 3.55643,-1.59225 3.55643,-3.5564 0,-1.96415 -1.59229,-3.55643 -3.55643,-3.55643 H 52.67781 Z"
       fill="#536dfe"
       id="path14-0" /><path
       d="M 365,212 H 0 V 128 H 365 Z M 6,206 H 359 V 134 H 6 Z"
       fill="#e5e5e5"
       id="path15-4" /><path
       d="m 52.67781,305.11282 c -1.96416,-0.004 -3.55977,1.58475 -3.56392,3.54892 -0.0041,1.96414 1.58476,3.55975 3.54892,3.5639 h 164.15933 c 1.96414,0 3.55643,-1.59225 3.55643,-3.55643 0,-1.96418 -1.59229,-3.5564 -3.55643,-3.5564 H 52.67781 Z"
       fill="#e6e6e6"
       id="path18-3" /><path
       d="M 368,84 H 3 V 0 h 365 z"
       fill="#ffffff"
       id="path20-0" /><path
       d="m 55.67781,27.77438 c -1.96414,0.0036 -3.5535,1.59874 -3.54993,3.56288 0.0036,1.95909 1.59084,3.54636 3.54993,3.54993 h 259.65941 c 1.96417,-0.0036 3.55353,-1.59874 3.54993,-3.56288 -0.004,-1.95909 -1.59082,-3.54636 -3.54993,-3.54993 z"
       fill="#536dfe"
       id="path21-5" /><path
       d="m 55.67781,49.11281 c -1.96414,-0.0041 -3.55977,1.58476 -3.5639,3.5489 -0.0041,1.96414 1.58476,3.55977 3.5489,3.5639 h 164.15933 c 1.96414,0.0036 3.5593,-1.58577 3.5629,-3.54993 0.004,-1.96414 -1.58578,-3.5593 -3.54993,-3.56288 -0.004,-2e-5 -0.009,-2e-5 -0.013,0 H 55.67781 Z"
       fill="#536dfe"
       id="path22-0" /><path
       d="M 368,84 H 3 V 0 H 368 Z M 9,78 H 362 V 6 H 9 Z"
       fill="#e5e5e5"
       id="path23" /><path
       d="m 739.24805,597.4574 v -72.34003 c 0,0 28.19165,51.28601 0,72.34003 z"
       fill="#f1f1f1"
       id="path24-2" /><path
       d="m 740.9895,597.4447 -53.28961,-48.92126 c 0,0 56.84515,13.91553 53.28961,48.92126 z"
       fill="#f1f1f1"
       id="path25-2" /><circle
       id="f"
       cx="484.31396"
       cy="347.84558"
       r="18.93405"
       fill="#536dfe" /><path
       id="g-9576"
       d="m 482.43768,355.06836 c -0.42596,7.3e-4 -0.84058,-0.13708 -1.1814,-0.39261 l -0.0211,-0.0159 -4.44977,-3.40393 c -0.8667,-0.66446 -1.03064,-1.90573 -0.36621,-2.77243 0.66449,-0.86673 1.90576,-1.03067 2.77246,-0.36621 v 0 l 2.8822,2.21021 6.81079,-8.88541 c 0.66418,-0.86633 1.90497,-1.03021 2.7713,-0.366 v 0 l 5.5e-4,4.3e-4 -0.0423,0.0587 0.0434,-0.0587 c 0.86536,0.66507 1.02887,1.90515 0.3656,2.77185 l -8.01099,10.44653 c -0.37567,0.48785 -0.95709,0.77295 -1.57281,0.77115 l -0.002,0.002 z"
       fill="#ffffff" /><circle
       cx="561.58679"
       cy="166.8501"
       r="27.103001"
       fill="#ffb6b6"
       id="circle25" /><path
       d="m 585.26218,187.67421 c 0,0 8.02722,-16.25754 7.88428,-22.46415 -0.14294,-6.20661 -4.52893,-22.17827 -6.37963,-23.23151 -1.8507,-1.05324 -21.80963,-11.18694 -27.21878,-8.14007 -5.40915,3.04687 -14.92809,13.4682 -25.19506,16.28763 -2.90394,0.79745 -0.36864,15.71588 -0.36864,15.71588 l 12.01448,-1.73784 c 0,0 12.52606,-11.24712 13.06773,-3.58854 0.54166,7.65857 12.15742,4.46876 12.15742,4.46876 l 0.14294,6.20661 4.75464,0.25579 1.30903,-6.60533 c 0,0 2.13657,13.46645 -0.62443,20.47051 -2.761,7.00406 8.45603,2.36228 8.45603,2.36228 z"
       fill="#2f2e41"
       id="path26-4" /></g><text
     xml:space="preserve"
     style="font-style:normal;font-variant:normal;font-weight:bold;font-stretch:normal;font-size:13.3333px;font-family:Arial;-inkscape-font-specification:'Arial, Bold';font-variant-ligatures:normal;font-variant-caps:normal;font-variant-numeric:normal;font-variant-east-asian:normal;text-align:center;text-anchor:middle;opacity:1;fill:#536dfe;fill-opacity:1;fill-rule:evenodd;stroke:none;stroke-width:2.33;stroke-linecap:round;stroke-miterlimit:4.1;paint-order:markers fill stroke"
     x="46.649273"
     y="48.126934"
     id="text5"><tspan
       sodipodi:role="line"
       id="tspan5"
       style="fill:#536dfe;fill-opacity:1;stroke-width:2.33"
       x="46.649273"
       y="48.126934">Over 75</tspan></text><text
     xml:space="preserve"
     style="font-style:normal;font-variant:normal;font-weight:bold;font-stretch:normal;font-size:10.6667px;font-family:Sans;-inkscape-font-specification:'Sans, Bold';font-variant-ligatures:normal;font-variant-caps:normal;font-variant-numeric:normal;font-variant-east-asian:normal;text-align:center;text-anchor:middle;opacity:1;fill:#000000;fill-opacity:1;fill-rule:evenodd;stroke:none;stroke-width:2.33;stroke-linecap:round;stroke-miterlimit:4.1;paint-order:markers fill stroke"
     x="41.578129"
     y="57.169926"
     id="text7"><tspan
       sodipodi:role="line"
       id="tspan7"
       x="41.578129"
       y="57.169926">Successful</tspan></text><text
     xml:space="preserve"
     style="font-style:normal;font-variant:normal;font-weight:bold;font-stretch:normal;font-size:10.6667px;font-family:Sans;-inkscape-font-specification:'Sans, Bold';font-variant-ligatures:normal;font-variant-caps:normal;font-variant-numeric:normal;font-variant-east-asian:normal;text-align:center;text-anchor:middle;opacity:1;fill:#000000;fill-opacity:1;fill-rule:evenodd;stroke:none;stroke-width:2.33;stroke-linecap:round;stroke-miterlimit:4.1;paint-order:markers fill stroke"
     x="40.340687"
     y="68.059433"
     id="text8"><tspan
       sodipodi:role="line"
       id="tspan8"
       x="40.340687"
       y="68.059433">Projects</tspan></text></svg>
