<?xml version="1.0" encoding="UTF-8" standalone="no"?>
<!-- Created with Inkscape (http://www.inkscape.org/) -->

<svg
   width="300"
   height="300"
   viewBox="0 0 300 300"
   version="1.1"
   id="svg1"
   xml:space="preserve"
   xmlns="http://www.w3.org/2000/svg"
   xmlns:svg="http://www.w3.org/2000/svg"><defs
     id="defs1" /><g
     id="layer1"><g
       id="g1"
       transform="matrix(0.46377398,0,0,0.49787495,3.8617212,0.59255296)"><path
         d="m 790.35308,612.97046 a 26,26 0 1 1 26,-26 26.02948,26.02948 0 0 1 -26,26 z"
         transform="translate(-284.2586,-153.02954)"
         fill="#cccccc"
         id="path1" /><path
         d="m 802.35308,585.97046 h -11 v -12.5 a 1,1 0 0 0 -2,0 v 12.5 h -11 a 1,1 0 1 0 0,2 h 11 v 12.5 a 1,1 0 0 0 2,0 v -12.5 h 11 a 1,1 0 0 0 0,-2 z"
         transform="translate(-284.2586,-153.02954)"
         fill="#ffffff"
         id="path2" /><polygon
         points="606.22,581.779 594.788,581.778 589.352,537.682 606.224,537.683 "
         fill="#ffb8b8"
         id="polygon2" /><path
         d="m 586.622,578.511 h 22.04782 v 13.882 h -35.92975 v 0 A 13.88193,13.88193 0 0 1 586.622,578.511 Z"
         fill="#2f2e41"
         id="path3" /><polygon
         points="560.72,581.779 549.288,581.778 543.852,537.682 560.724,537.683 "
         fill="#ffb8b8"
         id="polygon3" /><path
         d="m 541.122,578.511 h 22.04782 v 13.882 h -35.92975 v 0 A 13.88193,13.88193 0 0 1 541.122,578.511 Z"
         fill="#2f2e41"
         id="path4" /><path
         d="m 899.28547,582.35785 a 9.377,9.377 0 0 1 1.97614,-14.242 l -3.54086,-21.13341 12.31791,-5.28408 4.5812,29.9147 a 9.42779,9.42779 0 0 1 -15.33439,10.74481 z"
         transform="translate(-284.2586,-153.02954)"
         fill="#ffb8b8"
         id="path5" /><path
         d="m 802.84749,572.37212 a 9.377,9.377 0 0 0 0.40388,-14.37279 l 6.98357,-20.25805 -11.27569,-7.24646 -9.46034,28.74681 a 9.42779,9.42779 0 0 0 13.34858,13.13049 z"
         transform="translate(-284.2586,-153.02954)"
         fill="#ffb8b8"
         id="path6" /><circle
         cx="577.13928"
         cy="245.54228"
         r="24.561029"
         fill="#ffb8b8"
         id="circle6" /><path
         d="m 802.08818,557.21623 a 4.50221,4.50221 0 0 1 -1.24536,-0.17627 l -7.15869,-2.05517 a 4.50764,4.50764 0 0 1 -3.08765,-5.55127 l 14.77368,-52.16211 20.60206,-50.5752 c 2.04858,-5.02783 6.32861,-8.32519 11.16992,-8.605 a 11.44643,11.44643 0 0 1 10.77807,6.27686 v 0 a 15.62089,15.62089 0 0 1 0.35694,13.77051 l -23.417,51.21045 -18.61621,45.08349 a 4.49771,4.49771 0 0 1 -4.15576,2.78371 z"
         transform="translate(-284.2586,-153.02954)"
         fill="#3f3d56"
         id="path7" /><path
         d="m 875.258,419.16911 -13.64656,0.24261 a 9.07354,9.07354 0 0 1 -8.89589,-11.58969 21.1284,21.1284 0 0 0 0.65552,-3.01274 15.22429,15.22429 0 0 0 0.0898,-3.35353 4.952,4.952 0 0 0 -9.55443,-1.40837 v 0 c -2.2946,0.0327 -7.18294,-0.71535 -9.47754,-0.68266 -4.87207,-12.48981 5.7449,-28.83323 17.17381,-34.97183 11.65127,-6.258 26.77522,0.1087 31.2414,13.15168 6.19838,0.11141 11.23461,6.22466 12.0334,13.1063 0.79879,6.88164 -2.03239,14.06747 -6.36329,19.3418 -4.3309,5.27433 -10.0175,9.11885 -13.25619,9.17643 z"
         transform="translate(-284.2586,-153.02954)"
         fill="#2f2e41"
         id="path8" /><path
         d="m 830.4,730.69133 a 4.51452,4.51452 0 0 1 -4.46143,-4.00976 l -5.06347,-170.23536 63.78735,4.54053 0.0491,0.41016 c 14.4148,120.6626 9.48731,162.43164 9.43579,162.83935 a 4.49829,4.49829 0 0 1 -5.07544,4.20264 l -14.09667,0.33789 a 4.49788,4.49788 0 0 1 -3.989,-4.2959 l -13.17139,-123.2998 a 1.40643,1.40643 0 0 0 -1.46606,-1.05615 1.46264,1.46264 0 0 0 -1.43921,1.17724 l -5.08862,123.70361 a 4.48067,4.48067 0 0 1 -4.04126,4.67041 l -14.93237,0.99268 a 4.45633,4.45633 0 0 1 -0.44729,0.0225 z"
         transform="translate(-284.2586,-153.02954)"
         fill="#2f2e41"
         id="path9" /><path
         d="m 856.86846,576.787 c -0.3816,0 -0.76246,-0.006 -1.145,-0.0176 -18.3418,-0.55225 -32.69165,-14.4292 -36.65259,-18.66944 a 4.47811,4.47811 0 0 1 -1.0813,-4.09717 l 10.5813,-44.76416 -2.80737,-38.917 a 38.36931,38.36931 0 0 1 10.50561,-29.6333 31.66353,31.66353 0 0 1 24.38648,-9.86572 c 17.855,0.85205 31.9414,16.81152 32.0686,36.33252 0.19751,30.23486 -0.69263,32.312 -0.98486,32.99463 -8.91089,20.79687 -4.04419,49.98926 -2.34034,58.4414 a 4.51639,4.51639 0 0 1 -1.33715,4.1875 c -9.80032,9.29887 -20.29006,14.00786 -31.19338,14.00831 z"
         transform="translate(-284.2586,-153.02954)"
         fill="#3f3d56"
         id="path10" /><path
         d="m 902.93315,565.40813 a 4.49659,4.49659 0 0 1 -4.38037,-3.49414 L 887.636,514.35686 873.00539,459.99944 a 15.62106,15.62106 0 0 1 2.6272,-13.52246 11.45551,11.45551 0 0 1 11.6665,-4.41016 c 4.72876,1.07617 8.40527,5.03516 9.595,10.33252 l 11.95483,53.229 5.96241,53.94092 a 4.50859,4.50859 0 0 1 -3.96265,4.96484 l -7.3999,0.84424 a 4.48738,4.48738 0 0 1 -0.51563,0.0298 z"
         transform="translate(-284.2586,-153.02954)"
         fill="#3f3d56"
         id="path11" /><path
         d="m 315.0904,570.53683 a 10.74268,10.74268 0 0 0 1.58187,-16.3965 l 4.16719,-93.01794 -21.21552,2.38131 1.23255,90.98468 a 10.80091,10.80091 0 0 0 14.23391,16.04845 z"
         transform="translate(-284.2586,-153.02954)"
         fill="#ffb8b8"
         id="path12" /><polygon
         points="69.534,574.966 81.609,577.089 93.543,531.525 77.722,528.392 "
         fill="#ffb8b8"
         id="polygon12" /><path
         d="m 350.23234,727.314 h 38.53073 v 14.88687 H 365.1192 A 14.88686,14.88686 0 0 1 350.23234,727.314 Z"
         transform="rotate(-170.02922,220.69386,670.64083)"
         fill="#2f2e41"
         id="path13" /><polygon
         points="36.392,581.01 48.652,581.01 54.484,533.722 36.39,533.723 "
         fill="#ffb8b8"
         id="polygon13" /><path
         d="m 318.02393,730.53638 h 38.53073 v 14.88687 h -23.64388 a 14.88686,14.88686 0 0 1 -14.88686,-14.88686 v 0 z"
         transform="rotate(179.99738,195.16171,661.46181)"
         fill="#2f2e41"
         id="path14" /><path
         d="m 372.8035,721.09043 a 4.74805,4.74805 0 0 1 -0.57252,-0.0339 l -14.43,-1.1874 a 4.88077,4.88077 0 0 1 -4.24251,-5.65951 l 13.32468,-74.681 -9.00352,-47.474 a 1.62706,1.62706 0 0 0 -3.219,0.15995 l -11.25575,126.6277 a 4.92368,4.92368 0 0 1 -5.2096,4.43715 l -13.59479,-0.50631 a 4.88784,4.88784 0 0 1 -4.53645,-4.631 l -0.91385,-151.76761 70.48116,-8.80969 4.9236,76.04058 -0.0196,0.0805 -16.99071,83.675 a 4.88583,4.88583 0 0 1 -4.74115,3.72954 z"
         transform="translate(-284.2586,-153.02954)"
         fill="#2f2e41"
         id="path15" /><circle
         cx="58.12912"
         cy="223.25508"
         r="24.561029"
         fill="#ffb8b8"
         id="circle15" /><path
         d="m 365.53024,577.46685 a 20.11,20.11 0 0 1 -10.85692,-3.10569 c -11.89736,-7.43585 -25.41059,-4.48058 -32.40686,-2.057 a 4.88012,4.88012 0 0 1 -4.22053,-0.48089 4.81086,4.81086 0 0 1 -2.2244,-3.55163 L 303.099,454.64609 c -2.132,-19.03768 9.33586,-36.93669 27.2677,-42.55965 v 0 q 1.01052,-0.317 2.05519,-0.60112 a 39.56862,39.56862 0 0 1 32.972,5.72253 40.20353,40.20353 0 0 1 17.1668,29.35308 L 393.27115,560.948 a 4.80738,4.80738 0 0 1 -1.52715,4.0071 c -3.75447,3.47327 -14.65165,12.51069 -26.21376,12.51175 z"
         transform="translate(-284.2586,-153.02954)"
         fill="#f9a826"
         id="path16" /><path
         d="m 326.78912,479.0123 -28.70337,-3.156 a 5.71747,5.71747 0 0 1 -4.90543,-7.13382 l 7.30606,-27.84638 a 15.87852,15.87852 0 0 1 31.55638,3.56327 l 1.08461,28.67531 a 5.71749,5.71749 0 0 1 -6.33825,5.89758 z"
         transform="translate(-284.2586,-153.02954)"
         fill="#f9a826"
         id="path17" /><path
         d="m 393.15631,566.55375 a 10.74269,10.74269 0 0 0 -0.40564,-16.46764 l -7.07293,-92.84221 -20.78851,4.67965 12.20288,90.41406 a 10.80091,10.80091 0 0 0 16.0642,14.21614 z"
         transform="translate(-284.2586,-153.02954)"
         fill="#ffb8b8"
         id="path18" /><path
         d="m 356.91916,473.17592 a 5.71132,5.71132 0 0 1 -1.81845,-4.39984 l 1.08461,-28.67531 a 15.87852,15.87852 0 0 1 31.55638,-3.56327 l 7.30606,27.84638 a 5.71747,5.71747 0 0 1 -4.90543,7.13382 l -28.70337,3.156 a 5.71106,5.71106 0 0 1 -4.5198,-1.49778 z"
         transform="translate(-284.2586,-153.02954)"
         fill="#f9a826"
         id="path19" /><path
         d="m 340.92691,401.771 a 5.683,5.683 0 0 1 -1.29663,-0.15137 l -0.12475,-0.0303 c -21.59449,-3.30371 -26.3667,-15.81152 -27.41431,-21.03515 -1.08423,-5.4082 0.15039,-10.62842 2.94019,-12.65576 -1.521,-4.80274 -1.27686,-9.061 0.72729,-12.66211 3.49536,-6.28028 11.08106,-8.40381 12.09839,-8.66358 6.05811,-4.46924 13.3064,-1.48584 14.62524,-0.88086 11.71851,-4.33545 16.19751,-0.72656 17.00757,0.0791 5.23828,0.94091 8.43115,2.96435 9.49121,6.01562 1.991,5.731 -4.30542,12.85986 -4.57446,13.16064 l -0.13965,0.15577 -9.38013,0.44677 a 6.358,6.358 0 0 0 -5.9812,7.3169 v 0 a 29.60406,29.60406 0 0 0 0.96045,3.35547 c 1.602,5.00634 2.80225,9.2832 1.25415,10.90918 a 2.50966,2.50966 0 0 1 -2.62524,0.45507 c -1.46655,-0.3916 -2.4624,-0.30957 -2.9585,0.24463 -0.77026,0.85938 -0.53515,3.03467 0.66211,6.12549 a 5.73888,5.73888 0 0 1 -1.0459,5.84717 5.56805,5.56805 0 0 1 -4.22583,1.96729 z"
         transform="translate(-284.2586,-153.02954)"
         fill="#2f2e41"
         id="path20" /><path
         d="m 425.2586,746.97046 h -140 a 1,1 0 0 1 0,-2 h 140 a 1,1 0 1 1 0,2 z"
         transform="translate(-284.2586,-153.02954)"
         fill="#cccccc"
         id="path21" /><path
         d="m 913.2586,746.97046 h -140 a 1,1 0 0 1 0,-2 h 140 a 1,1 0 1 1 0,2 z"
         transform="translate(-284.2586,-153.02954)"
         fill="#cccccc"
         id="path22" /><path
         d="m 712.97125,577.02954 h -242 a 35.03979,35.03979 0 0 1 -35,-35 v -354 a 35.03979,35.03979 0 0 1 35,-35 h 242 a 35.03979,35.03979 0 0 1 35,35 v 354 a 35.03979,35.03979 0 0 1 -35,35 z"
         transform="translate(-284.2586,-153.02954)"
         fill="#ffffff"
         id="path23" /><path
         d="m 674.97161,434.059 h -166 c -16.957,-0.0817 -17.02751,-25.9115 8.4e-4,-25.99995 l 165.99916,-5e-5 c 16.94506,0.0794 17.03689,25.91126 0,26 z"
         transform="translate(-284.2586,-153.02954)"
         fill="#cccccc"
         id="path24" /><path
         d="m 674.97161,226 h -166 c -16.957,-0.0817 -17.02751,-25.91151 8.4e-4,-25.99995 L 674.97161,200 c 16.94506,0.0794 17.03689,25.91121 0,26 z"
         transform="translate(-284.2586,-153.02954)"
         fill="#cccccc"
         id="path25" /><path
         d="m 674.97161,482.059 h -166 c -16.957,-0.0817 -17.02751,-25.9115 8.4e-4,-25.99995 l 165.99916,-5e-5 c 16.94506,0.0794 17.03689,25.91126 0,26 z"
         transform="translate(-284.2586,-153.02954)"
         fill="#cccccc"
         id="path26" /><path
         d="m 674.97161,530.059 h -166 c -16.957,-0.0817 -17.02751,-25.9115 8.4e-4,-25.99995 l 165.99916,-5e-5 c 16.94506,0.0794 17.03689,25.91126 0,26 z"
         transform="translate(-284.2586,-153.02954)"
         fill="#cccccc"
         id="path27" /><path
         d="m 671.97119,376.85885 h -160 a 16.51868,16.51868 0 0 1 -16.5,-16.5 v -89.59961 a 16.51867,16.51867 0 0 1 16.5,-16.5 h 160 a 16.51866,16.51866 0 0 1 16.5,16.5 v 89.59961 a 16.51867,16.51867 0 0 1 -16.5,16.5 z"
         transform="translate(-284.2586,-153.02954)"
         fill="#f9a826"
         id="path28" /><path
         d="m 712.97125,577.02954 h -242 a 35.03979,35.03979 0 0 1 -35,-35 v -354 a 35.03979,35.03979 0 0 1 35,-35 h 242 a 35.03979,35.03979 0 0 1 35,35 v 354 a 35.03979,35.03979 0 0 1 -35,35 z m -242,-418 a 29.03284,29.03284 0 0 0 -29,29 v 354 a 29.03284,29.03284 0 0 0 29,29 h 242 a 29.03276,29.03276 0 0 0 29,-29 v -354 a 29.03276,29.03276 0 0 0 -29,-29 z"
         transform="translate(-284.2586,-153.02954)"
         fill="#e6e6e6"
         id="path29" /></g></g></svg>
