<?xml version="1.0" encoding="UTF-8" standalone="no"?>
<!-- Created with Inkscape (http://www.inkscape.org/) -->

<svg
   width="120"
   height="120"
   viewBox="0 0 120 120"
   version="1.1"
   id="svg1"
   xml:space="preserve"
   xmlns="http://www.w3.org/2000/svg"
   xmlns:svg="http://www.w3.org/2000/svg"><defs
     id="defs1" /><g
     id="layer1"
     style="display:inline" /><text
     xml:space="preserve"
     style="font-style:normal;font-variant:normal;font-weight:bold;font-stretch:normal;font-size:10.6667px;font-family:Sans;-inkscape-font-specification:'Sans, Bold';font-variant-ligatures:normal;font-variant-caps:normal;font-variant-numeric:normal;font-variant-east-asian:normal;text-align:center;text-anchor:middle;opacity:1;fill:#000000;fill-opacity:1;fill-rule:evenodd;stroke:none;stroke-width:2.33;stroke-linecap:round;stroke-miterlimit:4.1;paint-order:markers fill stroke"
     x="40.340687"
     y="68.059433"
     id="text8"><tspan
       id="tspan8"
       x="40.340687"
       y="68.059433" /></text><g
     id="g10"
     transform="matrix(0.12723471,0,0,0.15239859,-5.985503,16.146366)"><g
       id="g57"><circle
         cx="882.15369"
         cy="68.01825"
         r="63"
         fill="#ff6884"
         id="circle1" /><path
         d="m 789.21204,461.51721 -71.05322,-4.5293 -3.83154,-319.50098 c -0.0928,-7.75488 2.99902,-15.34863 8.4834,-20.83301 l 76.12061,-76.12061 c 10.65576,-10.65479 27.42725,-11.4248 39.01318,-1.78662 l 82.60742,68.71826 c 6.73926,5.60596 10.54541,13.84863 10.44189,22.61427 l -2.83838,240.28076 35.90381,49.86621 0.0762,0.10547 6.0835,52.72363 -181.00684,-11.53809 z"
         fill="#f1f2f2"
         id="path1" /><path
         d="m 801.15351,114.92589 v -14.81543 c 0,-3.91064 3.18164,-7.09229 7.09229,-7.09229 h 20.81592 c 3.91064,0 7.0918,3.18164 7.0918,7.09229 v 14.81543 c 0,3.91064 -3.18115,7.09229 -7.0918,7.09229 H 808.2458 c -3.91064,0 -7.09229,-3.18164 -7.09229,-7.09229 z"
         fill="#f9a826"
         id="path2" /><path
         d="m 757.15351,229.92589 v -54.81543 c 0,-3.91064 3.18164,-7.09229 7.09229,-7.09229 h 30.81592 c 3.91064,0 7.0918,3.18164 7.0918,7.09229 v 54.81543 c 0,3.91064 -3.18115,7.09229 -7.0918,7.09229 H 764.2458 c -3.91064,0 -7.09229,-3.18164 -7.09229,-7.09229 z"
         fill="#3f3d56"
         id="path3" /><path
         d="m 826.81018,358.23691 c -3.72461,-0.13184 -6.72803,-3.1543 -6.83838,-6.87988 l -1.55811,-52.98145 c -0.0664,-2.26172 0.9126,-4.36328 2.68604,-5.76855 1.77344,-1.4043 4.04443,-1.87305 6.23096,-1.29297 l 1.55811,0.41602 c 3.09961,0.82715 5.26465,3.64453 5.26465,6.85254 v 52.56641 c 0,1.94141 -0.76953,3.75391 -2.1665,5.10254 -1.33496,1.28906 -3.07275,1.98926 -4.91846,1.98926 -0.0859,0 -0.17188,-9.8e-4 -0.2583,-0.004 z"
         fill="#3f3d56"
         id="path4" /><path
         d="m 762.15351,350.92639 v -54.97461 c 0,-3.88086 3.03955,-6.99512 6.91943,-7.09082 l 28.0083,-0.68262 c 3.88232,-0.0537 7.14893,2.99316 7.2627,6.88477 l 1.61328,55.65723 c 0.0557,1.93262 -0.65527,3.76074 -2.00293,5.14746 -1.34668,1.38672 -3.15332,2.15039 -5.08643,2.15039 h -29.62207 c -3.91064,0 -7.09229,-3.18164 -7.09229,-7.0918 z"
         fill="#3f3d56"
         id="path5" /><path
         d="m 927.70124,388.49167 21.95245,39.02658 2.52002,43.89001 17.47998,1.10999 -6,-52 -36,-50 v 0 c -3.10706,5.59271 -3.08905,12.39722 0.0476,17.97342 z"
         fill="#cccccc"
         id="path6" /><rect
         x="880.22656"
         y="459.33347"
         width="71.255249"
         height="1.00009"
         transform="rotate(-0.78329,915.85398,459.83352)"
         fill="#3f3d56"
         id="rect6" /><rect
         x="879.59778"
         y="450.28473"
         width="67.556763"
         height="1.00003"
         transform="rotate(-0.44761,913.37578,450.78432)"
         fill="#3f3d56"
         id="rect7" /><rect
         x="879.02765"
         y="441.63315"
         width="64.631844"
         height="1.00018"
         transform="rotate(-1.11892,911.34324,442.13308)"
         fill="#3f3d56"
         id="rect8" /><rect
         x="879.58124"
         y="433.06323"
         width="62.089851"
         height="1.00055"
         transform="rotate(-1.9017,910.62617,433.56355)"
         fill="#3f3d56"
         id="rect9" /><rect
         x="879.01404"
         y="425.09485"
         width="59.659"
         height="1.00061"
         transform="rotate(-2.01348,908.84348,425.59502)"
         fill="#3f3d56"
         id="rect10" /><rect
         x="876.58228"
         y="417.01859"
         width="58.071289"
         height="1"
         fill="#3f3d56"
         id="rect11" /><rect
         x="875.21521"
         y="410.33206"
         width="56.439999"
         height="1.00006"
         transform="rotate(-0.6714,903.43565,410.83199)"
         fill="#3f3d56"
         id="rect12" /><rect
         x="873.95233"
         y="403.91479"
         width="54.715881"
         height="1.00055"
         transform="rotate(-1.9017,901.31029,404.41497)"
         fill="#3f3d56"
         id="rect13" /><rect
         x="872.64899"
         y="396.51849"
         width="54.009281"
         height="1.00015"
         transform="rotate(-1.00705,899.65387,397.0184)"
         fill="#3f3d56"
         id="rect14" /><rect
         x="870.93433"
         y="389.92554"
         width="51.731319"
         height="1.00049"
         transform="rotate(-1.78991,896.79986,390.42582)"
         fill="#3f3d56"
         id="rect15" /><rect
         x="869.40234"
         y="383.26859"
         width="51.252441"
         height="1.00006"
         transform="rotate(-0.55951,895.02813,383.76883)"
         fill="#3f3d56"
         id="rect16" /><path
         d="m 865.65351,362.42639 v -67.81543 c 0,-3.91113 3.18164,-7.09277 7.09229,-7.09277 h 32.81592 c 3.91064,0 7.0918,3.18164 7.0918,7.09277 v 67.81543 c 0,3.91016 -3.18115,7.0918 -7.0918,7.0918 H 872.7458 c -3.91064,0 -7.09229,-3.18164 -7.09229,-7.0918 z"
         fill="#f9a826"
         id="path16" /><path
         d="m 789.21204,461.51721 -58.09033,-3.7002 -0.46826,-0.0303 v -44.95703 c 0,-5.68555 4.62549,-10.31152 10.31104,-10.31152 h 57.37793 c 5.68555,0 10.31104,4.62598 10.31104,10.31152 v 48.68848 h -0.5 l -18.94141,-9.8e-4 z"
         fill="#cccccc"
         id="path17" /><path
         d="m 869.65351,239.42638 v -51.81592 c 0,-3.91064 3.18164,-7.09229 7.09229,-7.09229 h 10.81592 c 3.91064,0 7.0918,3.18164 7.0918,7.09229 v 51.81592 c 0,3.91016 -3.18115,7.0918 -7.0918,7.0918 H 876.7458 c -3.91064,0 -7.09229,-3.18164 -7.09229,-7.0918 z"
         fill="#3f3d56"
         id="path18" /><path
         d="m 880.65369,466.51825 -3,-44 -9,-42 -2.5,-11.5 v 0 c -5.13733,-3.49338 -12.05536,0.39255 -11.74512,6.59735 l 0.24512,4.90265 9,42 3,44"
         fill="#cccccc"
         id="path19" /><path
         d="m 540.21109,445.51721 -71.05176,-4.5293 -3.83203,-319.50098 c -0.0928,-7.75488 2.99902,-15.34863 8.4834,-20.83301 L 549.93179,24.5333 c 10.65527,-10.65625 27.42676,-11.42432 39.0127,-1.78662 l 82.60739,68.71826 c 6.73926,5.60596 10.54541,13.84863 10.44189,22.61426 l -2.83838,240.28078 35.90381,49.86621 0.0762,0.10547 6.0835,52.72363 -181.00781,-11.53809 h 3e-5 z"
         fill="#f1f2f2"
         id="path20" /><path
         d="M 552.15348,98.92589 V 84.11046 c 0,-3.91064 3.18164,-7.09229 7.09277,-7.09229 h 20.81543 c 3.91064,0 7.0918,3.18164 7.0918,7.09229 v 14.81543 c 0,3.91064 -3.18115,7.09229 -7.0918,7.09229 h -20.81543 c -3.91113,0 -7.09277,-3.18164 -7.09277,-7.09229 z"
         fill="#f9a826"
         id="path21" /><path
         d="m 508.15348,213.92589 v -54.81543 c 0,-3.91064 3.18164,-7.09229 7.09277,-7.09229 h 30.81543 c 3.91016,0 7.0918,3.18164 7.0918,7.09229 v 54.81543 c 0,3.91064 -3.18164,7.09229 -7.0918,7.09229 h -30.81543 c -3.91113,0 -7.09277,-3.18164 -7.09277,-7.09229 z"
         fill="#3f3d56"
         id="path22" /><path
         d="m 483.31949,340.25156 c -1.39648,-1.34863 -2.16602,-3.16113 -2.16602,-5.10254 v -52.56641 c 0,-3.20801 2.16504,-6.02539 5.26465,-6.85254 l 1.55859,-0.41602 c 2.18359,-0.58008 4.45703,-0.11133 6.23047,1.29297 1.77441,1.40527 2.75293,3.50781 2.68652,5.76855 l -1.55859,52.98145 c -0.10938,3.72559 -3.1123,6.74805 -6.83789,6.87988 -0.0859,0.003 -0.17285,0.004 -0.25879,0.004 -1.84473,0 -3.58301,-0.70117 -4.91895,-1.98926 z"
         fill="#3f3d56"
         id="path23" /><path
         d="m 513.15348,334.92639 v -54.97461 c 0,-3.88086 3.03906,-6.99512 6.91992,-7.09082 l 28.00781,-0.68262 c 0.0596,-9.8e-4 0.11719,-0.002 0.17578,-0.002 3.81348,0 6.97559,3.05371 7.08691,6.88672 l 1.61328,55.65723 c 0.0557,1.93262 -0.65527,3.76074 -2.00293,5.14746 -1.34668,1.38672 -3.15332,2.15039 -5.08691,2.15039 h -29.62109 c -3.91113,0 -7.09277,-3.18164 -7.09277,-7.0918 z"
         fill="#3f3d56"
         id="path24" /><path
         d="m 678.70124,372.49167 21.95245,39.02658 2.52002,43.89001 17.47998,1.10999 -6,-52 -36,-50 v 0 c -3.10706,5.59271 -3.08905,12.39722 0.0476,17.97342 z"
         fill="#cccccc"
         id="path25" /><rect
         x="631.22656"
         y="443.33347"
         width="71.255249"
         height="1.00009"
         transform="rotate(-0.78329,666.85438,443.83358)"
         fill="#3f3d56"
         id="rect25" /><rect
         x="630.59778"
         y="434.2847"
         width="67.556763"
         height="1.00003"
         transform="rotate(-0.44761,664.37619,434.78517)"
         fill="#3f3d56"
         id="rect26" /><rect
         x="630.02765"
         y="425.63318"
         width="64.631844"
         height="1.00018"
         transform="rotate(-1.11892,662.34337,426.13317)"
         fill="#3f3d56"
         id="rect27" /><rect
         x="630.58124"
         y="417.06326"
         width="62.089851"
         height="1.00055"
         transform="rotate(-1.9017,661.62604,417.56343)"
         fill="#3f3d56"
         id="rect28" /><rect
         x="630.01404"
         y="409.09488"
         width="59.659"
         height="1.00061"
         transform="rotate(-2.01348,659.84346,409.59526)"
         fill="#3f3d56"
         id="rect29" /><rect
         x="627.58228"
         y="401.01859"
         width="58.071289"
         height="1"
         fill="#3f3d56"
         id="rect30" /><rect
         x="626.21521"
         y="394.33203"
         width="56.439999"
         height="1.00006"
         transform="rotate(-0.6714,654.43554,394.83203)"
         fill="#3f3d56"
         id="rect31" /><rect
         x="624.95233"
         y="387.91479"
         width="54.715881"
         height="1.00055"
         transform="rotate(-1.9017,652.31015,388.41515)"
         fill="#3f3d56"
         id="rect32" /><rect
         x="623.64893"
         y="380.51849"
         width="54.009281"
         height="1.00015"
         transform="rotate(-1.00705,650.65354,381.01876)"
         fill="#3f3d56"
         id="rect33" /><rect
         x="621.93433"
         y="373.92554"
         width="51.731319"
         height="1.00049"
         transform="rotate(-1.78991,647.8001,374.42592)"
         fill="#3f3d56"
         id="rect34" /><rect
         x="620.40234"
         y="367.26855"
         width="51.252441"
         height="1.00006"
         transform="rotate(-0.55951,646.02832,367.76882)"
         fill="#3f3d56"
         id="rect35" /><path
         d="m 616.65351,346.42639 v -67.81543 c 0,-3.91113 3.18164,-7.09277 7.09229,-7.09277 h 32.81592 c 3.91064,0 7.0918,3.18164 7.0918,7.09277 v 67.81543 c 0,3.91016 -3.18115,7.0918 -7.0918,7.0918 H 623.7458 c -3.91064,0 -7.09229,-3.18164 -7.09229,-7.0918 z"
         fill="#f9a826"
         id="path35" /><path
         d="m 540.21109,445.51721 -58.08984,-3.7002 -0.46777,-0.0303 v -44.95703 c 0,-5.68555 4.62598,-10.31152 10.31152,-10.31152 h 57.37793 c 5.68555,0 10.31055,4.62598 10.31055,10.31152 v 48.68848 h -0.5 l -18.94238,-9.8e-4 z"
         fill="#cccccc"
         id="path36" /><path
         d="m 620.65351,223.42589 v -51.81543 c 0,-3.91064 3.18164,-7.09229 7.09229,-7.09229 h 10.81592 c 3.91064,0 7.0918,3.18164 7.0918,7.09229 v 51.81543 c 0,3.91064 -3.18115,7.09229 -7.0918,7.09229 H 627.7458 c -3.91064,0 -7.09229,-3.18164 -7.09229,-7.09229 z"
         fill="#3f3d56"
         id="path37" /><path
         d="m 631.65369,450.51825 -3,-44 -9,-42 -2.5,-11.5 v 0 c -5.13733,-3.49338 -12.05536,0.39255 -11.74512,6.59735 l 0.24512,4.90265 9,42 3,44"
         fill="#cccccc"
         id="path38" /><path
         d="m 291.21109,429.51721 -71.05176,-4.5293 -3.83203,-319.50098 c -0.0928,-7.75488 2.99902,-15.34863 8.4834,-20.83301 L 300.9318,8.53331 c 10.65527,-10.65576 27.42773,-11.42383 39.01172,-1.78662 l 82.6084,68.71826 c 6.73926,5.60596 10.54492,13.84863 10.44141,22.61426 l -2.83789,240.28078 35.9043,49.86621 0.0752,0.10547 6.08398,52.72363 -181.00781,-11.53809 z"
         fill="#f1f2f2"
         id="path39" /><path
         d="M 303.15348,82.92589 V 68.11046 c 0,-3.91064 3.18164,-7.09229 7.09277,-7.09229 h 20.81543 c 3.91016,0 7.0918,3.18164 7.0918,7.09229 v 14.81543 c 0,3.91064 -3.18164,7.09229 -7.0918,7.09229 h -20.81543 c -3.91113,0 -7.09277,-3.18164 -7.09277,-7.09229 z"
         fill="#f9a826"
         id="path40" /><path
         d="m 259.15348,197.92589 v -54.81543 c 0,-3.91064 3.18164,-7.09229 7.09277,-7.09229 h 30.81543 c 3.91016,0 7.0918,3.18164 7.0918,7.09229 v 54.81543 c 0,3.91064 -3.18164,7.09229 -7.0918,7.09229 h -30.81543 c -3.91113,0 -7.09277,-3.18164 -7.09277,-7.09229 z"
         fill="#3f3d56"
         id="path41" /><path
         d="m 237.54735,260.21329 1.55829,-0.41556 c 4.26292,-1.13678 8.41766,2.15347 8.28796,6.56345 l -1.55827,52.98154 c -0.10216,3.47351 -2.88312,6.27124 -6.35596,6.39429 h -2e-5 c -3.72997,0.13217 -6.82567,-2.8558 -6.82567,-6.5881 V 266.5829 c 0,-2.98663 2.00789,-5.6001 4.89366,-6.36966 v 6e-5 z"
         fill="#3f3d56"
         id="path42" /><path
         d="m 264.15348,318.92639 v -54.97461 c 0,-3.88086 3.03906,-6.99512 6.91992,-7.09082 l 28.00781,-0.68262 c 3.90234,-0.0625 7.14941,2.99316 7.2627,6.88477 l 1.61328,55.65723 c 0.0557,1.93262 -0.65527,3.76074 -2.00293,5.14746 -1.34668,1.38672 -3.15332,2.15039 -5.08691,2.15039 h -29.62109 c -3.91113,0 -7.09277,-3.18164 -7.09277,-7.0918 z"
         fill="#3f3d56"
         id="path43" /><path
         d="m 429.70124,356.49167 21.95245,39.02658 2.52002,43.89001 17.47998,1.10999 -6,-52 -36,-50 v 0 c -3.10706,5.59271 -3.08905,12.39722 0.0476,17.97342 z"
         fill="#cccccc"
         id="path44" /><rect
         x="382.22656"
         y="427.33347"
         width="71.25528"
         height="1.00009"
         transform="rotate(-0.78329,417.85405,427.83364)"
         fill="#3f3d56"
         id="rect44" /><rect
         x="381.59778"
         y="418.2847"
         width="67.556793"
         height="1.00003"
         transform="rotate(-0.44761,415.37661,418.78474)"
         fill="#3f3d56"
         id="rect45" /><rect
         x="381.02759"
         y="409.63318"
         width="64.631813"
         height="1.00018"
         transform="rotate(-1.11892,413.34349,410.13327)"
         fill="#3f3d56"
         id="rect46" /><rect
         x="381.58127"
         y="401.06323"
         width="62.089882"
         height="1.00055"
         transform="rotate(-1.9017,412.6262,401.56362)"
         fill="#3f3d56"
         id="rect47" /><rect
         x="381.01401"
         y="393.09488"
         width="59.659"
         height="1.00061"
         transform="rotate(-2.01348,410.84345,393.59522)"
         fill="#3f3d56"
         id="rect48" /><rect
         x="378.58224"
         y="385.01859"
         width="58.071289"
         height="1"
         fill="#3f3d56"
         id="rect49" /><rect
         x="377.21524"
         y="378.33203"
         width="56.439999"
         height="1.00006"
         transform="rotate(-0.6714,405.43543,378.83207)"
         fill="#3f3d56"
         id="rect50" /><rect
         x="375.95233"
         y="371.91479"
         width="54.715912"
         height="1.00055"
         transform="rotate(-1.9017,403.31032,372.41503)"
         fill="#3f3d56"
         id="rect51" /><rect
         x="374.6489"
         y="364.51849"
         width="54.009251"
         height="1.00015"
         transform="rotate(-1.00705,401.65378,365.01856)"
         fill="#3f3d56"
         id="rect52" /><rect
         x="372.93436"
         y="357.92554"
         width="51.73135"
         height="1.00049"
         transform="rotate(-1.78991,398.80002,358.42569)"
         fill="#3f3d56"
         id="rect53" /><rect
         x="371.40231"
         y="351.26855"
         width="51.252441"
         height="1.00006"
         transform="rotate(-0.55951,397.02851,351.7688)"
         fill="#3f3d56"
         id="rect54" /><path
         d="m 367.65348,330.42639 v -67.81543 c 0,-3.91113 3.18164,-7.09277 7.09277,-7.09277 h 32.81543 c 3.91016,0 7.0918,3.18164 7.0918,7.09277 v 67.81543 c 0,3.91016 -3.18164,7.0918 -7.0918,7.0918 h -32.81543 c -3.91113,0 -7.09277,-3.18164 -7.09277,-7.0918 z"
         fill="#f9a826"
         id="path54" /><path
         d="m 291.21109,429.51721 -58.08984,-3.7002 -0.46777,-0.0303 v -44.95703 c 0,-5.68555 4.62598,-10.31152 10.31152,-10.31152 h 57.37793 c 5.68555,0 10.31055,4.62598 10.31055,10.31152 v 48.68848 h -0.5 l -18.94238,-9.8e-4 z"
         fill="#cccccc"
         id="path55" /><path
         d="m 371.65348,207.42589 v -51.81543 c 0,-3.91064 3.18164,-7.09229 7.09277,-7.09229 h 10.81543 c 3.91016,0 7.0918,3.18164 7.0918,7.09229 v 51.81543 c 0,3.91064 -3.18164,7.09229 -7.0918,7.09229 h -10.81543 c -3.91113,0 -7.09277,-3.18164 -7.09277,-7.09229 z"
         fill="#3f3d56"
         id="path56" /><path
         d="m 382.65369,434.51825 -3,-44 -9,-42 -2.5,-11.5 v 0 c -5.13733,-3.49338 -12.05536,0.39255 -11.74512,6.59735 l 0.24513,4.90265 8.99998,42 3,44"
         fill="#cccccc"
         id="path57" /><rect
         x="581.22046"
         y="-7.3530998"
         width="2.0002401"
         height="911.77502"
         transform="rotate(-86.30501,582.22058,448.5344)"
         fill="#cccccc"
         id="rect57" /></g><g
       id="g114"><path
         d="m 661.99572,558.11742 -71.05322,-4.5293 -3.83154,-319.50098 c -0.0928,-7.75488 2.99902,-15.34863 8.4834,-20.83301 l 76.12061,-76.12061 c 10.65576,-10.65479 27.42725,-11.4248 39.01318,-1.78662 l 82.60742,68.71826 c 6.73926,5.60596 10.54541,13.84863 10.44189,22.61427 l -2.83838,240.28076 35.90381,49.86621 0.0762,0.10547 6.0835,52.72363 -181.00684,-11.53809 z"
         fill="#e6e6e6"
         id="path58" /><path
         d="m 673.93719,211.5261 v -14.81543 c 0,-3.91064 3.18164,-7.09229 7.09229,-7.09229 h 20.81592 c 3.91064,0 7.0918,3.18164 7.0918,7.09229 v 14.81543 c 0,3.91064 -3.18115,7.09229 -7.0918,7.09229 h -20.81592 c -3.91064,0 -7.09229,-3.18164 -7.09229,-7.09229 z"
         fill="#f9a826"
         id="path59" /><path
         d="m 629.93719,326.5261 v -54.81543 c 0,-3.91064 3.18164,-7.09229 7.09229,-7.09229 h 30.81592 c 3.91064,0 7.0918,3.18164 7.0918,7.09229 v 54.81543 c 0,3.91064 -3.18115,7.09229 -7.0918,7.09229 h -30.81592 c -3.91064,0 -7.09229,-3.18164 -7.09229,-7.09229 z"
         fill="#3f3d56"
         id="path60" /><path
         d="m 699.59387,454.83712 c -3.72461,-0.13184 -6.72803,-3.1543 -6.83838,-6.87988 l -1.55811,-52.98145 c -0.0664,-2.26172 0.9126,-4.36328 2.68604,-5.76855 1.77344,-1.4043 4.04443,-1.87305 6.23096,-1.29297 l 1.55811,0.41602 c 3.09961,0.82715 5.26465,3.64453 5.26465,6.85254 v 52.56641 c 0,1.94141 -0.76953,3.75391 -2.1665,5.10254 -1.33496,1.28906 -3.07275,1.98926 -4.91846,1.98926 -0.0859,0 -0.17188,-9.8e-4 -0.2583,-0.004 z"
         fill="#3f3d56"
         id="path61" /><path
         d="m 634.93719,447.5266 v -54.97461 c 0,-3.88086 3.03955,-6.99512 6.91943,-7.09082 l 28.0083,-0.68262 c 3.88232,-0.0537 7.14893,2.99316 7.2627,6.88477 l 1.61328,55.65723 c 0.0557,1.93262 -0.65527,3.76074 -2.00293,5.14746 -1.34668,1.38672 -3.15332,2.15039 -5.08643,2.15039 h -29.62207 c -3.91064,0 -7.09229,-3.18164 -7.09229,-7.0918 z"
         fill="#3f3d56"
         id="path62" /><path
         d="m 800.48492,485.09188 21.95245,39.02658 2.52002,43.89001 17.47998,1.10999 -6,-52 -36,-50 v 0 c -3.10706,5.59271 -3.08905,12.39722 0.0476,17.97342 z"
         fill="#cccccc"
         id="path63" /><rect
         x="753.01025"
         y="555.93372"
         width="71.255249"
         height="1.00009"
         transform="rotate(-0.78329,788.6378,556.43393)"
         fill="#3f3d56"
         id="rect63" /><rect
         x="752.38147"
         y="546.88495"
         width="67.556763"
         height="1.00003"
         transform="rotate(-0.44761,786.15947,547.38438)"
         fill="#3f3d56"
         id="rect64" /><rect
         x="751.81134"
         y="538.23334"
         width="64.631844"
         height="1.00018"
         transform="rotate(-1.11892,784.12738,538.73341)"
         fill="#3f3d56"
         id="rect65" /><rect
         x="752.36493"
         y="529.66345"
         width="62.089851"
         height="1.00055"
         transform="rotate(-1.9017,783.40978,530.16381)"
         fill="#3f3d56"
         id="rect66" /><rect
         x="751.79773"
         y="521.69507"
         width="59.659"
         height="1.00061"
         transform="rotate(-2.01348,781.62702,522.19532)"
         fill="#3f3d56"
         id="rect67" /><rect
         x="749.36597"
         y="513.61877"
         width="58.071289"
         height="1"
         fill="#3f3d56"
         id="rect68" /><rect
         x="747.9989"
         y="506.93225"
         width="56.439999"
         height="1.00006"
         transform="rotate(-0.6714,776.21868,507.43192)"
         fill="#3f3d56"
         id="rect69" /><rect
         x="746.73602"
         y="500.51501"
         width="54.715881"
         height="1.00055"
         transform="rotate(-1.9017,774.09391,501.01522)"
         fill="#3f3d56"
         id="rect70" /><rect
         x="745.43262"
         y="493.11868"
         width="54.009281"
         height="1.00015"
         transform="rotate(-1.00705,772.43704,493.61859)"
         fill="#3f3d56"
         id="rect71" /><rect
         x="743.71802"
         y="486.52576"
         width="51.731319"
         height="1.00049"
         transform="rotate(-1.78991,769.58371,487.02589)"
         fill="#3f3d56"
         id="rect72" /><rect
         x="742.18604"
         y="479.86877"
         width="51.252441"
         height="1.00006"
         transform="rotate(-0.55951,767.81272,480.36905)"
         fill="#3f3d56"
         id="rect73" /><path
         d="m 738.43719,459.0266 v -67.81543 c 0,-3.91113 3.18164,-7.09277 7.09229,-7.09277 h 32.81592 c 3.91064,0 7.0918,3.18164 7.0918,7.09277 v 67.81543 c 0,3.91016 -3.18115,7.0918 -7.0918,7.0918 h -32.81592 c -3.91064,0 -7.09229,-3.18164 -7.09229,-7.0918 z"
         fill="#f9a826"
         id="path73" /><path
         d="m 661.99572,558.11742 -58.09033,-3.7002 -0.46826,-0.0303 v -44.95703 c 0,-5.68555 4.62549,-10.31152 10.31104,-10.31152 h 57.37793 c 5.68555,0 10.31104,4.62598 10.31104,10.31152 v 48.68848 h -0.5 l -18.94141,-9.8e-4 z"
         fill="#cccccc"
         id="path74" /><path
         d="m 742.43719,336.02659 v -51.81592 c 0,-3.91064 3.18164,-7.09229 7.09229,-7.09229 h 10.81592 c 3.91064,0 7.0918,3.18164 7.0918,7.09229 v 51.81592 c 0,3.91016 -3.18115,7.0918 -7.0918,7.0918 h -10.81592 c -3.91064,0 -7.09229,-3.18164 -7.09229,-7.0918 z"
         fill="#3f3d56"
         id="path75" /><path
         d="m 753.43738,563.11846 -3,-44 -9,-42 -2.5,-11.5 v 0 c -5.13733,-3.49338 -12.05536,0.39255 -11.74512,6.59735 l 0.24512,4.90265 9,42 3,44"
         fill="#cccccc"
         id="path76" /><path
         d="m 412.99478,542.11742 -71.05176,-4.5293 -3.83203,-319.50098 c -0.0928,-7.75488 2.99902,-15.34863 8.4834,-20.83301 l 76.12109,-76.12062 c 10.65527,-10.65625 27.42676,-11.42432 39.0127,-1.78662 l 82.60739,68.71826 c 6.73926,5.60596 10.54541,13.84863 10.44189,22.61426 l -2.83838,240.28078 35.90381,49.86621 0.0762,0.10547 6.0835,52.72363 -181.00781,-11.53809 h 3e-5 z"
         fill="#e6e6e6"
         id="path77" /><path
         d="m 424.93716,195.5261 v -14.81543 c 0,-3.91064 3.18164,-7.09229 7.09277,-7.09229 h 20.81543 c 3.91064,0 7.0918,3.18164 7.0918,7.09229 v 14.81543 c 0,3.91064 -3.18115,7.09229 -7.0918,7.09229 h -20.81543 c -3.91113,0 -7.09277,-3.18164 -7.09277,-7.09229 z"
         fill="#f9a826"
         id="path78" /><path
         d="m 380.93716,310.5261 v -54.81543 c 0,-3.91064 3.18164,-7.09229 7.09277,-7.09229 h 30.81543 c 3.91016,0 7.0918,3.18164 7.0918,7.09229 v 54.81543 c 0,3.91064 -3.18164,7.09229 -7.0918,7.09229 h -30.81543 c -3.91113,0 -7.09277,-3.18164 -7.09277,-7.09229 z"
         fill="#3f3d56"
         id="path79" /><path
         d="m 356.10318,436.85177 c -1.39648,-1.34863 -2.16602,-3.16113 -2.16602,-5.10254 v -52.56641 c 0,-3.20801 2.16504,-6.02539 5.26465,-6.85254 l 1.55859,-0.41602 c 2.18359,-0.58008 4.45703,-0.11133 6.23047,1.29297 1.77441,1.40527 2.75293,3.50781 2.68652,5.76855 l -1.55859,52.98145 c -0.10938,3.72559 -3.1123,6.74805 -6.83789,6.87988 -0.0859,0.003 -0.17285,0.004 -0.25879,0.004 -1.84473,0 -3.58301,-0.70117 -4.91895,-1.98926 z"
         fill="#3f3d56"
         id="path80" /><path
         d="m 385.93716,431.5266 v -54.97461 c 0,-3.88086 3.03906,-6.99512 6.91992,-7.09082 l 28.00781,-0.68262 c 0.0596,-9.8e-4 0.11719,-0.002 0.17578,-0.002 3.81348,0 6.97559,3.05371 7.08691,6.88672 l 1.61328,55.65723 c 0.0557,1.93262 -0.65527,3.76074 -2.00293,5.14746 -1.34668,1.38672 -3.15332,2.15039 -5.08691,2.15039 h -29.62109 c -3.91113,0 -7.09277,-3.18164 -7.09277,-7.0918 z"
         fill="#3f3d56"
         id="path81" /><path
         d="m 551.48492,469.09188 21.95245,39.02658 2.52002,43.89001 17.47998,1.10999 -6,-52 -36,-50 v 0 c -3.10706,5.59271 -3.08905,12.39722 0.0476,17.97342 z"
         fill="#cccccc"
         id="path82" /><rect
         x="504.01022"
         y="539.93372"
         width="71.255249"
         height="1.00009"
         transform="rotate(-0.78329,539.6382,540.43399)"
         fill="#3f3d56"
         id="rect82" /><rect
         x="503.38144"
         y="530.88495"
         width="67.556763"
         height="1.00003"
         transform="rotate(-0.44761,537.15989,531.38523)"
         fill="#3f3d56"
         id="rect83" /><rect
         x="502.81131"
         y="522.2334"
         width="64.631844"
         height="1.00018"
         transform="rotate(-1.11892,535.127,522.7335)"
         fill="#3f3d56"
         id="rect84" /><rect
         x="503.36493"
         y="513.66345"
         width="62.089851"
         height="1.00055"
         transform="rotate(-1.9017,534.40996,514.16369)"
         fill="#3f3d56"
         id="rect85" /><rect
         x="502.7977"
         y="505.69507"
         width="59.659"
         height="1.00061"
         transform="rotate(-2.01348,532.6273,506.19528)"
         fill="#3f3d56"
         id="rect86" /><rect
         x="500.36597"
         y="497.6188"
         width="58.071289"
         height="1"
         fill="#3f3d56"
         id="rect87" /><rect
         x="498.99893"
         y="490.93225"
         width="56.439999"
         height="1.00006"
         transform="rotate(-0.6714,527.21857,491.43196)"
         fill="#3f3d56"
         id="rect88" /><rect
         x="497.73602"
         y="484.51501"
         width="54.715881"
         height="1.00055"
         transform="rotate(-1.9017,525.09407,485.01541)"
         fill="#3f3d56"
         id="rect89" /><rect
         x="496.43262"
         y="477.11871"
         width="54.009281"
         height="1.00015"
         transform="rotate(-1.00705,523.43728,477.61895)"
         fill="#3f3d56"
         id="rect90" /><rect
         x="494.71802"
         y="470.52576"
         width="51.731319"
         height="1.00049"
         transform="rotate(-1.78991,520.58363,471.02599)"
         fill="#3f3d56"
         id="rect91" /><rect
         x="493.18604"
         y="463.86877"
         width="51.252441"
         height="1.00006"
         transform="rotate(-0.55951,518.81188,464.36903)"
         fill="#3f3d56"
         id="rect92" /><path
         d="m 489.43719,443.0266 v -67.81543 c 0,-3.91113 3.18164,-7.09277 7.09229,-7.09277 h 32.81592 c 3.91064,0 7.0918,3.18164 7.0918,7.09277 v 67.81543 c 0,3.91016 -3.18115,7.0918 -7.0918,7.0918 h -32.81592 c -3.91064,0 -7.09229,-3.18164 -7.09229,-7.0918 z"
         fill="#f9a826"
         id="path92" /><path
         d="m 412.99478,542.11742 -58.08984,-3.7002 -0.46777,-0.0303 v -44.95703 c 0,-5.68555 4.62598,-10.31152 10.31152,-10.31152 h 57.37793 c 5.68555,0 10.31055,4.62598 10.31055,10.31152 v 48.68848 h -0.5 l -18.94238,-9.8e-4 z"
         fill="#cccccc"
         id="path93" /><path
         d="m 493.43719,320.0261 v -51.81543 c 0,-3.91064 3.18164,-7.09229 7.09229,-7.09229 h 10.81592 c 3.91064,0 7.0918,3.18164 7.0918,7.09229 v 51.81543 c 0,3.91064 -3.18115,7.09229 -7.0918,7.09229 h -10.81592 c -3.91064,0 -7.09229,-3.18164 -7.09229,-7.09229 z"
         fill="#3f3d56"
         id="path94" /><path
         d="m 504.43738,547.11846 -3,-44 -9,-42 -2.5,-11.5 v 0 c -5.13733,-3.49338 -12.05536,0.39255 -11.74512,6.59735 l 0.24512,4.90265 9,42 3,44"
         fill="#cccccc"
         id="path95" /><path
         d="m 163.99478,526.11742 -71.05176,-4.5293 -3.83203,-319.50098 c -0.09277,-7.75488 2.99902,-15.34863 8.4834,-20.83301 l 76.12109,-76.12062 c 10.65527,-10.65576 27.42773,-11.42383 39.01172,-1.78662 l 82.6084,68.71826 c 6.73926,5.60596 10.54492,13.84863 10.44141,22.61426 l -2.83789,240.28078 35.9043,49.86621 0.0752,0.10547 6.08398,52.72363 -181.00781,-11.53809 z"
         fill="#e6e6e6"
         id="path96" /><path
         d="m 175.93716,179.5261 v -14.81543 c 0,-3.91064 3.18164,-7.09229 7.09277,-7.09229 h 20.81543 c 3.91016,0 7.0918,3.18164 7.0918,7.09229 v 14.81543 c 0,3.91064 -3.18164,7.09229 -7.0918,7.09229 h -20.81543 c -3.91113,0 -7.09277,-3.18164 -7.09277,-7.09229 z"
         fill="#f9a826"
         id="path97" /><path
         d="m 131.93716,294.5261 v -54.81543 c 0,-3.91064 3.18164,-7.09229 7.09277,-7.09229 h 30.81543 c 3.91016,0 7.0918,3.18164 7.0918,7.09229 v 54.81543 c 0,3.91064 -3.18164,7.09229 -7.0918,7.09229 h -30.81543 c -3.91113,0 -7.09277,-3.18164 -7.09277,-7.09229 z"
         fill="#3f3d56"
         id="path98" /><path
         d="m 110.33104,356.8135 1.55829,-0.41556 c 4.26292,-1.13678 8.41766,2.15347 8.28796,6.56345 l -1.55827,52.98154 c -0.10216,3.47351 -2.88312,6.27124 -6.35596,6.39429 h -2e-5 c -3.72997,0.13217 -6.82567,-2.8558 -6.82567,-6.5881 v -52.56601 c 0,-2.98663 2.00789,-5.6001 4.89366,-6.36966 v 6e-5 z"
         fill="#3f3d56"
         id="path99" /><path
         d="m 136.93716,415.5266 v -54.97461 c 0,-3.88086 3.03906,-6.99512 6.91992,-7.09082 l 28.00781,-0.68262 c 3.90234,-0.0625 7.14941,2.99316 7.2627,6.88477 l 1.61328,55.65723 c 0.0557,1.93262 -0.65527,3.76074 -2.00293,5.14746 -1.34668,1.38672 -3.15332,2.15039 -5.08691,2.15039 h -29.62109 c -3.91113,0 -7.09277,-3.18164 -7.09277,-7.0918 z"
         fill="#3f3d56"
         id="path100" /><path
         d="m 302.48492,453.09188 21.95245,39.02658 2.52002,43.89001 17.47998,1.10999 -6,-52 -36,-50 v 0 c -3.10706,5.59271 -3.08905,12.39722 0.0476,17.97342 z"
         fill="#cccccc"
         id="path101" /><rect
         x="255.01022"
         y="523.93365"
         width="71.25528"
         height="1.00009"
         transform="rotate(-0.78329,290.63787,524.43405)"
         fill="#3f3d56"
         id="rect101" /><rect
         x="254.38145"
         y="514.88489"
         width="67.556793"
         height="1.00003"
         transform="rotate(-0.44761,288.16031,515.3848)"
         fill="#3f3d56"
         id="rect102" /><rect
         x="253.81128"
         y="506.2334"
         width="64.631813"
         height="1.00018"
         transform="rotate(-1.11892,286.12713,506.73359)"
         fill="#3f3d56"
         id="rect103" /><rect
         x="254.36496"
         y="497.66345"
         width="62.089882"
         height="1.00055"
         transform="rotate(-1.9017,285.40982,498.16387)"
         fill="#3f3d56"
         id="rect104" /><rect
         x="253.7977"
         y="489.6951"
         width="59.659"
         height="1.00061"
         transform="rotate(-2.01348,283.62729,490.19524)"
         fill="#3f3d56"
         id="rect105" /><rect
         x="251.36594"
         y="481.6188"
         width="58.071289"
         height="1"
         fill="#3f3d56"
         id="rect106" /><rect
         x="249.99893"
         y="474.93222"
         width="56.439999"
         height="1.00006"
         transform="rotate(-0.6714,278.21932,475.43201)"
         fill="#3f3d56"
         id="rect107" /><rect
         x="248.73602"
         y="468.51501"
         width="54.715912"
         height="1.00055"
         transform="rotate(-1.9017,276.09394,469.01529)"
         fill="#3f3d56"
         id="rect108" /><rect
         x="247.4326"
         y="461.11871"
         width="54.009251"
         height="1.00015"
         transform="rotate(-1.00705,274.43696,461.61875)"
         fill="#3f3d56"
         id="rect109" /><rect
         x="245.71803"
         y="454.52576"
         width="51.73135"
         height="1.00049"
         transform="rotate(-1.78991,271.58387,455.02608)"
         fill="#3f3d56"
         id="rect110" /><rect
         x="244.18599"
         y="447.86877"
         width="51.252441"
         height="1.00006"
         transform="rotate(-0.55951,269.81207,448.36902)"
         fill="#3f3d56"
         id="rect111" /><path
         d="m 240.43716,427.0266 v -67.81543 c 0,-3.91113 3.18164,-7.09277 7.09277,-7.09277 h 32.81543 c 3.91016,0 7.0918,3.18164 7.0918,7.09277 v 67.81543 c 0,3.91016 -3.18164,7.0918 -7.0918,7.0918 h -32.81543 c -3.91113,0 -7.09277,-3.18164 -7.09277,-7.0918 z"
         fill="#f9a826"
         id="path111" /><path
         d="m 163.99478,526.11742 -58.08984,-3.7002 -0.46777,-0.0303 v -44.95703 c 0,-5.68555 4.62598,-10.31152 10.31152,-10.31152 h 57.37793 c 5.68555,0 10.31055,4.62598 10.31055,10.31152 v 48.68848 h -0.5 l -18.94238,-9.8e-4 z"
         fill="#cccccc"
         id="path112" /><path
         d="m 244.43716,304.0261 v -51.81543 c 0,-3.91064 3.18164,-7.09229 7.09277,-7.09229 h 10.81543 c 3.91016,0 7.0918,3.18164 7.0918,7.09229 v 51.81543 c 0,3.91064 -3.18164,7.09229 -7.0918,7.09229 h -10.81543 c -3.91113,0 -7.09277,-3.18164 -7.09277,-7.09229 z"
         fill="#3f3d56"
         id="path113" /><path
         d="m 255.43738,531.11846 -3,-44 -9,-42 -2.5,-11.5 v 0 c -5.13733,-3.49338 -12.05536,0.39255 -11.74512,6.59735 l 0.24513,4.90265 8.99998,42 3,44"
         fill="#cccccc"
         id="path114" /><rect
         x="454.00415"
         y="89.247108"
         width="2.0002401"
         height="911.77502"
         transform="rotate(-86.30501,455.00426,545.1346)"
         fill="#cccccc"
         id="rect114" /></g></g></svg>
