<?xml version="1.0" encoding="UTF-8" standalone="no"?>
<!-- Created with Inkscape (http://www.inkscape.org/) -->

<svg
   width="550"
   height="435"
   viewBox="0 0 550 435"
   version="1.1"
   id="svg1"
   xml:space="preserve"
   xmlns="http://www.w3.org/2000/svg"
   xmlns:svg="http://www.w3.org/2000/svg"><defs
     id="defs1" /><g
     id="layer1"><text
       xml:space="preserve"
       style="font-style:normal;font-variant:normal;font-weight:normal;font-stretch:normal;font-size:128px;font-family:Gabriola;-inkscape-font-specification:'Gabriola, Normal';font-variant-ligatures:normal;font-variant-caps:normal;font-variant-numeric:normal;font-variant-east-asian:normal;text-align:center;text-anchor:middle;opacity:0.996;fill:#6c63ff;fill-opacity:1;fill-rule:evenodd;stroke-width:2.33;stroke-linecap:round;stroke-miterlimit:4.1;paint-order:markers fill stroke"
       x="272.5625"
       y="133.90962"
       id="text1"><tspan
         id="tspan1"
         x="272.5625"
         y="133.90962"
         style="font-style:normal;font-variant:normal;font-weight:normal;font-stretch:normal;font-size:128px;font-family:Gabriola;-inkscape-font-specification:'Gabriola, Normal';font-variant-ligatures:normal;font-variant-caps:normal;font-variant-numeric:normal;font-variant-east-asian:normal;fill:#6c63ff;fill-opacity:1">PRIVACY</tspan></text><g
       id="g1"
       transform="matrix(0.57173673,0,0,0.57173673,1.6528453,86.915162)"><path
         d="m 310.01916,435.42226 a 27.98147,27.98147 0 0 0 42.37447,6.73419 l 86.25673,49.47155 -3.21476,-51.5724 -81.418,-39.07245 a 28.13311,28.13311 0 0 0 -43.99844,34.43911 z"
         transform="translate(-305.93035,-105.86477)"
         fill="#ffb8b8"
         id="path1" /><path
         d="m 559.74073,633.60374 c -25.58649,35.81171 -24.67114,95.72552 -17.53253,161.29907 h 120.97431 l 5.25976,-12.27277 7.013,12.27277 h 113.96137 c 0,0 -8.76624,-166.5589 -24.54554,-171.81867 -15.7793,-5.25977 -205.13037,10.5196 -205.13037,10.5196 z"
         transform="translate(-305.93035,-105.86477)"
         fill="#2f2e41"
         id="path2" /><circle
         cx="357.2522"
         cy="92.218399"
         r="61.363781"
         fill="#ffb8b8"
         id="circle2" /><path
         d="m 707.534,275.36772 12,23 83,37 -21.81737,211.13583 -9.18263,21.86417 4.96133,18.98719 -11.96133,14.01281 c 12.00666,10.86383 13.53168,22.23645 7,34 l -38.22143,8.75551 c 0,0 -212.52143,18.89787 -194.6109,-14.026 19.5697,-35.97382 24.5531,-142.21509 -18.64893,-198.988 C 483.37531,382.9105 511.534,320.36769 511.534,320.36769 l 87,-26 32,-19 z"
         transform="translate(-305.93035,-105.86477)"
         fill="#3f3d56"
         id="path3" /><path
         d="m 690.42555,108.19489 a 3.3845,3.3845 0 0 1 3.25677,-1.93272 c -28.09344,-1.68047 -57.68463,1.5939 -81.18768,17.0753 -5.694,3.75065 -11.06234,8.2243 -17.25845,10.94508 a 1.85911,1.85911 0 0 0 -0.37964,3.163 l 0.68052,0.53368 a 1.86606,1.86606 0 0 1 -0.60741,3.25335 v 0 a 1.86606,1.86606 0 0 0 -0.4688,3.35219 l 5.21528,3.37072 a 1.85778,1.85778 0 0 1 0.0171,3.12575 9.27094,9.27094 0 0 1 -1.38684,0.70319 1.86177,1.86177 0 0 0 -0.59,3.12753 18.53712,18.53712 0 0 1 5.04588,7.37659 c 1.73828,4.51977 2.05054,9.44217 2.34418,14.27575 1.79657,-6.9743 9.408,-11.07971 16.59783,-11.49687 7.18983,-0.41716 14.20191,1.95513 21.1991,3.66045 a 117.27165,117.27165 0 0 0 46.548,1.79065 c -5.25647,10.54876 -0.82245,23.13119 3.63952,34.03981 l 14.44311,-6.19059 c 19.83576,-11.1969 6.01886,36.16774 -1.39679,42.67007 15.14148,5.24939 54.77246,-53.01373 42.02326,-75.11433 -6.632,-11.49641 -1.92432,-26.324 -14.96289,-37.2275 -6.39032,-6.72715 -19.14893,-3.73718 -25.66358,-9.32824 -2.56408,-2.20055 1.34412,-8.08781 -2.17956,-9.37084 -1.17046,-0.42615 -14.73537,-2.23152 -14.92891,-1.80202 z"
         transform="translate(-305.93035,-105.86477)"
         fill="#2f2e41"
         id="path4" /><path
         d="m 586.484,300.30766 c -11.26,49.99 -40.14,166.71 -69.44,191.12011 a 17.09185,17.09185 0 0 1 -6.52,3.84986 c -102.99,25.09009 -135.99,-38.90991 -135.99,-38.90991 0,0 27.6,-13.45 28.3,-39.74 l 55.66,17.27 48.52,-109.19007 7.14,-6.66 0.04,-0.0399 z"
         transform="translate(-305.93035,-105.86477)"
         fill="#3f3d56"
         id="path5" /><path
         d="m 806.07542,761.94066 a 27.9815,27.9815 0 0 0 -2.93831,-42.80551 L 832.009,623.98224 782.47042,638.67851 762.648,726.78424 a 28.13311,28.13311 0 0 0 43.42743,35.15642 z"
         transform="translate(-305.93035,-105.86477)"
         fill="#ffb8b8"
         id="path6" /><path
         d="m 779.6504,330.0445 22.8836,5.32322 c 0,0 94.58417,184.02791 71.79194,219.09292 -22.79223,35.06501 -50.7146,151.15612 -50.7146,151.15612 0,0 -41.298,-8.21 -57.07734,-29.249 L 795.42958,538.6815 765.62428,422.9669 Z"
         transform="translate(-305.93035,-105.86477)"
         fill="#3f3d56"
         id="path7" /><path
         d="m 345.50989,603.32045 0.82172,-296.38866 a 22.65241,22.65241 0 0 1 22.68944,-22.564 l 223.83925,0.62059 a 22.65238,22.65238 0 0 1 22.56385,22.68944 l -0.82172,296.38866 a 22.65238,22.65238 0 0 1 -22.68932,22.564 L 368.07387,626.0099 a 22.6524,22.6524 0 0 1 -22.56398,-22.68945 z"
         transform="translate(-305.93035,-105.86477)"
         fill="#e6e6e6"
         id="path8" /><path
         d="m 362.92794,513.84626 0.52828,-190.54552 a 21.21423,21.21423 0 0 1 21.24934,-21.13184 l 192.371,0.53334 a 21.21515,21.21515 0 0 1 21.13292,21.24935 l -0.73122,263.74558 A 21.21517,21.21517 0 0 1 576.22782,608.829 L 457.058,608.49863 a 94.49829,94.49829 0 0 1 -94.13006,-94.65237 z"
         transform="translate(-305.93035,-105.86477)"
         fill="#ffffff"
         id="path9" /><path
         d="m 555.034,385.86772 h -150 a 9,9 0 0 1 0,-18 h 150 a 9,9 0 0 1 0,18 z"
         transform="translate(-305.93035,-105.86477)"
         fill="#6c63ff"
         id="path10" /><path
         d="m 438.034,344.36772 h -33 a 9,9 0 0 1 0,-18 h 33 a 9,9 0 0 1 0,18 z"
         transform="translate(-305.93035,-105.86477)"
         fill="#6c63ff"
         id="path11" /><path
         d="m 555.034,427.36772 h -150 a 9,9 0 0 1 0,-18 h 150 a 9,9 0 0 1 0,18 z"
         transform="translate(-305.93035,-105.86477)"
         fill="#6c63ff"
         id="path12" /><path
         d="m 555.034,468.86772 h -150 a 9,9 0 0 1 0,-18 h 150 a 9,9 0 0 1 0,18 z"
         transform="translate(-305.93035,-105.86477)"
         fill="#6c63ff"
         id="path13" /><circle
         cx="236.96655"
         cy="436.54263"
         r="35.81102"
         fill="#6c63ff"
         id="circle13" /><path
         d="m 538.01154,561.04537 a 3.98231,3.98231 0 0 1 -3.18646,-1.59372 l -9.7698,-13.02661 a 3.98339,3.98339 0 1 1 6.37358,-4.77985 l 6.39173,8.52166 16.41634,-24.62419 a 3.98356,3.98356 0 1 1 6.629,4.41936 l -19.53955,29.30938 a 3.9851,3.9851 0 0 1 -3.204,1.77267 c -0.0369,6.5e-4 -0.0739,10e-4 -0.11084,10e-4 z"
         transform="translate(-305.93035,-105.86477)"
         fill="#ffffff"
         id="path14" /><circle
         cx="160.60365"
         cy="92.502953"
         r="17"
         fill="#f2f2f2"
         id="circle14" /><circle
         cx="98.603653"
         cy="581.50293"
         r="17"
         fill="#f2f2f2"
         id="circle15" /><circle
         cx="489.60364"
         cy="158.50294"
         r="17"
         fill="#f2f2f2"
         id="circle16" /></g></g></svg>
