<?xml version="1.0" encoding="UTF-8" standalone="no"?>
<!-- Created with Inkscape (http://www.inkscape.org/) -->

<svg
   width="550"
   height="435"
   viewBox="0 0 550 435"
   version="1.1"
   id="svg1"
   xml:space="preserve"
   xmlns="http://www.w3.org/2000/svg"
   xmlns:svg="http://www.w3.org/2000/svg"><defs
     id="defs1" /><g
     id="layer1"><text
       xml:space="preserve"
       style="font-style:normal;font-variant:normal;font-weight:normal;font-stretch:normal;font-size:128px;font-family:Gabriola;-inkscape-font-specification:'Gabriola, Normal';font-variant-ligatures:normal;font-variant-caps:normal;font-variant-numeric:normal;font-variant-east-asian:normal;text-align:center;text-anchor:middle;opacity:0.996;fill:#6c63ff;fill-opacity:1;fill-rule:evenodd;stroke-width:2.33;stroke-linecap:round;stroke-miterlimit:4.1;paint-order:markers fill stroke"
       x="272.5625"
       y="133.90962"
       id="text1"><tspan
         id="tspan1"
         x="272.5625"
         y="133.90962"
         style="font-style:normal;font-variant:normal;font-weight:normal;font-stretch:normal;font-size:128px;font-family:Gabriola;-inkscape-font-specification:'Gabriola, Normal';font-variant-ligatures:normal;font-variant-caps:normal;font-variant-numeric:normal;font-variant-east-asian:normal;fill:#6c63ff;fill-opacity:1">Security</tspan></text><g
       id="g2"
       transform="matrix(0.74366859,0,0,0.74366859,13.893554,50.572524)"><path
         d="m 854.37384,671.40435 16.11882,-5.113 a 54.56124,54.56124 0 0 0 -0.38831,-26.249 c -6.47575,14.3987 -25.47463,17.92647 -36.29963,29.419 a 32.81871,32.81871 0 0 0 -8.3953,27.17926 l -3.39124,11.504 a 54.99381,54.99381 0 0 0 40.024,-22.76717 53.12122,53.12122 0 0 0 6.22435,-11.78347 c -6.87404,-0.6882 -13.89269,-2.18962 -13.89269,-2.18962 z"
         transform="translate(-300.34479,-190.05939)"
         fill="#f2f2f2"
         id="path1-0" /><path
         d="m 837.14986,650.13183 12.14673,-11.765 A 54.56128,54.56128 0 0 0 837.24247,615.046 c 0.62547,15.7755 -14.806,27.40615 -19.36941,42.52016 a 32.81867,32.81867 0 0 0 4.60727,28.07073 l 2.09524,11.809 a 54.99378,54.99378 0 0 0 25.66943,-38.22759 53.12068,53.12068 0 0 0 0.31586,-13.32264 c -6.4594,2.44982 -13.411,4.23617 -13.411,4.23617 z"
         transform="translate(-300.34479,-190.05939)"
         fill="#f2f2f2"
         id="path2-1" /><path
         d="M 756.405,224.54359 H 302.112 a 1.807,1.807 0 0 1 0,-3.61319 h 454.293 a 1.807,1.807 0 0 1 0,3.61319 z"
         transform="translate(-300.34479,-190.05939)"
         fill="#3f3d56"
         id="path3-2" /><ellipse
         cx="32.691521"
         cy="10.82345"
         rx="10.58751"
         ry="10.82345"
         fill="#3f3d56"
         id="ellipse3" /><ellipse
         cx="69.266541"
         cy="10.82345"
         rx="10.58751"
         ry="10.82345"
         fill="#3f3d56"
         id="ellipse4" /><ellipse
         cx="105.84156"
         cy="10.82345"
         rx="10.58751"
         ry="10.82345"
         fill="#3f3d56"
         id="ellipse5" /><path
         d="m 734.38374,192.74209 h -25.981 a 1.96762,1.96762 0 0 0 0,3.93446 h 25.981 a 1.96762,1.96762 0 0 0 0,-3.93446 z"
         transform="translate(-300.34479,-190.05939)"
         fill="#3f3d56"
         id="path5-3" /><path
         d="m 734.38374,200.12647 h -25.981 a 1.96761,1.96761 0 0 0 0,3.93445 h 25.981 a 1.96761,1.96761 0 0 0 0,-3.93445 z"
         transform="translate(-300.34479,-190.05939)"
         fill="#3f3d56"
         id="path6-2" /><path
         d="m 734.38374,207.50114 h -25.981 a 1.96761,1.96761 0 0 0 0,3.93445 h 25.981 a 1.96761,1.96761 0 0 0 0,-3.93445 z"
         transform="translate(-300.34479,-190.05939)"
         fill="#3f3d56"
         id="path7-9" /><circle
         cx="35.193378"
         cy="94.795212"
         r="13.08937"
         fill="#e6e7e8"
         id="circle7" /><path
         d="m 668.86084,313.839 h -342.5141 a 3.89775,3.89775 0 1 1 0,-7.7955 h 342.5141 a 3.89775,3.89775 0 1 1 0,7.7955 z"
         transform="translate(-300.34479,-190.05939)"
         fill="#e6e7e8"
         id="path8-4" /><path
         d="M 579.03041,329.241 H 326.34674 a 3.89794,3.89794 0 0 1 0,-7.79588 h 252.68367 a 3.89794,3.89794 0 1 1 0,7.79588 z"
         transform="translate(-300.34479,-190.05939)"
         fill="#e6e7e8"
         id="path9-3" /><circle
         cx="35.193378"
         cy="299.09982"
         r="13.08937"
         fill="#e6e7e8"
         id="circle9" /><path
         d="m 668.86084,518.14363 h -342.5141 a 3.89775,3.89775 0 1 1 0,-7.79549 h 342.5141 a 4.35939,4.35939 0 0 1 4.11419,4.19844 3.84941,3.84941 0 0 1 -4.11419,3.59705 z"
         transform="translate(-300.34479,-190.05939)"
         fill="#e6e7e8"
         id="path10-5" /><path
         d="M 579.03041,533.54558 H 326.34674 a 3.89794,3.89794 0 0 1 0,-7.79588 h 252.68367 a 3.89794,3.89794 0 1 1 0,7.79588 z"
         transform="translate(-300.34479,-190.05939)"
         fill="#e6e7e8"
         id="path11-1" /><circle
         cx="35.193378"
         cy="189.24655"
         r="13.08937"
         fill="#e6e7e8"
         id="circle11" /><path
         d="m 668.86084,408.29035 h -342.5141 a 3.89775,3.89775 0 1 1 0,-7.7955 h 342.5141 a 3.89775,3.89775 0 1 1 0,7.7955 z"
         transform="translate(-300.34479,-190.05939)"
         fill="#e6e7e8"
         id="path12-8" /><path
         d="M 621.16327,423.6923 H 326.34674 a 3.89794,3.89794 0 0 1 0,-7.79588 h 294.81653 a 3.89794,3.89794 0 0 1 0,7.79588 z"
         transform="translate(-300.34479,-190.05939)"
         fill="#e6e7e8"
         id="path13-3" /><path
         d="M 601.15322,439.09425 H 326.34674 a 3.89794,3.89794 0 0 1 0,-7.79588 h 274.80648 a 3.89794,3.89794 0 1 1 0,7.79588 z"
         transform="translate(-300.34479,-190.05939)"
         fill="#e6e7e8"
         id="path14-0" /><circle
         cx="306.4946"
         cy="324.42078"
         r="96.933601"
         fill="#6c63ff"
         id="circle14-0" /><circle
         cx="306.36145"
         cy="344.39337"
         r="13.84766"
         fill="#3f3d56"
         id="circle15-9" /><circle
         cx="306.36145"
         cy="344.39337"
         r="6.3912301"
         fill="#6c63ff"
         id="circle16-1" /><path
         d="m 632.41156,565.278 h -51.144 a 19.12258,19.12258 0 0 1 -19.10157,-19.10059 v -23.44919 a 19.12342,19.12342 0 0 1 19.10157,-19.10156 h 51.144 a 19.12331,19.12331 0 0 1 19.10107,19.10156 v 23.44922 A 19.12247,19.12247 0 0 1 632.41156,565.278 Z m -51.144,-59.65137 a 17.12113,17.12113 0 0 0 -17.10157,17.10156 v 23.44922 a 17.12029,17.12029 0 0 0 17.10153,17.10059 h 51.144 a 17.11986,17.11986 0 0 0 17.10107,-17.10059 v -23.44919 a 17.1207,17.1207 0 0 0 -17.10107,-17.10156 z"
         transform="translate(-300.34479,-190.05939)"
         fill="#ffffff"
         id="path16" /><path
         d="m 578.23849,552.5493 h 45.39544 a 17.94254,17.94254 0 0 0 17.94256,-17.94256 v -19.62355 a 17.86278,17.86278 0 0 0 -1.18355,-6.36529 17.895,17.895 0 0 1 7.13091,14.2951 v 19.62355 a 17.94254,17.94254 0 0 1 -17.94257,17.94256 h -45.39543 a 17.93276,17.93276 0 0 1 -16.759,-11.57727 17.83961,17.83961 0 0 0 10.81164,3.64746 z"
         transform="translate(-300.34479,-190.05939)"
         fill="#3f3d56"
         id="path17" /><polygon
         points="416.912,463.515 416.909,506.542 405.755,506.541 400.448,463.514 "
         fill="#a0616a"
         id="polygon17" /><path
         d="m 717.64736,708.23783 -34.30291,-10e-4 v -0.43381 a 13.35238,13.35238 0 0 1 13.35164,-13.35144 h 8.3e-4 l 6.26586,-4.75361 11.69073,4.75434 2.99442,10e-5 z"
         transform="translate(-300.34479,-190.05939)"
         fill="#2f2e41"
         id="path18" /><polygon
         points="495.836,463.515 495.838,506.542 506.993,506.541 512.3,463.514 "
         fill="#a0616a"
         id="polygon18" /><path
         d="m 795.79,708.23783 34.3029,-10e-4 v -0.43381 a 13.35238,13.35238 0 0 0 -13.35164,-13.35144 h -8.3e-4 l -6.26586,-4.75361 -11.69072,4.75433 -2.99442,10e-5 z"
         transform="translate(-300.34479,-190.05939)"
         fill="#2f2e41"
         id="path19" /><path
         d="m 700.302,621.95549 c 0.16474,-2.45511 1.47464,-16.03273 1.47464,-16.03273 l 3.13752,-28.79462 5.52988,-76.32805 0.36083,-4.9965 28.96716,-5.56128 19.79775,-9.491 23.53141,7.52223 18.32311,6.87118 c 0,0 0.0314,2.94142 0.17254,6.49469 0.18825,4.65142 0.51767,10.35383 1.30205,11.83632 1.30991,2.61985 0.98048,16.68379 0.98048,16.68379 0,0 1.30205,28.61417 2.94143,31.7517 1.63938,3.13753 1.96875,9.67142 1.47464,10.98132 -0.49411,1.3099 1.63937,35.6736 1.63937,35.6736 0,0 5.4758,60.811 2.04021,69.98042 -3.43559,9.16942 -16.41791,3.163 -16.41791,3.163 0,0 0.62749,-2.44726 -3.13753,-3.60033 -3.76502,-1.15307 -15.2327,-87.38 -15.2327,-87.38 0,0 -2.13349,-17.68 -4.09444,-22.747 -1.96095,-5.067 -3.765,-19.30358 -3.765,-19.30358 0,0 -12.11084,-23.56282 -12.26772,-28.80248 0,0 -1.58447,-4.90237 -3.08261,0.49417 -1.49814,5.39654 -5.91421,18.32311 -5.91421,18.32311 l -4.30624,15.8758 -5.06712,23.71975 -3.2787,19.97034 c 0,0 -4.91023,26.50419 -5.69461,27.6494 -0.78438,1.14521 0,25.359 0,25.359 0,0 -3.79638,20.62135 -9.16156,24.22167 -5.36518,3.60032 -19.57964,0.0572 -19.57964,0.0572 0,0 -0.83775,-51.13598 -0.67303,-53.5911 z"
         transform="translate(-300.34479,-190.05939)"
         fill="#2f2e41"
         id="path20" /><polygon
         points="454.319,325.447 464.116,341.025 506.81,330.593 495.922,262.556 495.922,258.108 492.848,249.519 492.848,231.337 500.966,177.215 476.736,168.728 465.151,159.559 461.402,172.454 445.44,169.615 445.024,159.927 432.811,171.466 422.527,174.399 410.213,177.215 408.644,181.137 411.781,180.353 411.272,231.377 412.315,236.13 418.755,255.528 410.809,264.987 414.308,268.588 411.727,273.678 404.997,327.032 441.894,341.025 "
         fill="#2f2e41"
         id="polygon20" /><path
         d="m 701.63112,497.16362 6.19682,-59.98181 1.63562,-24.68654 -17.34473,-3.13627 c 0,0 0.68726,17.65162 -1.58492,27.61085 -2.24226,9.82765 -0.29746,58.87688 -0.15891,60.18842 a 8.4387,8.4387 0 1 0 11.25612,0.005 z"
         transform="translate(-300.34479,-190.05939)"
         fill="#a0616a"
         id="path21" /><path
         d="m 684.71257,449.61094 4.82391,0.99618 16.55046,3.42774 0.91771,0.18824 1.9531,-7.76533 2.26687,-2.41591 4.31409,-22.60584 0.22745,-1.17657 6.5182,-13.93061 4.50971,-41.87022 -16.77006,3.012 c -0.0863,0.0863 -0.16474,0.18039 -0.24315,0.27451 -2.40806,2.72963 -4.12585,6.52605 -6.93395,10.346 -9.138,12.43246 -16.14988,42.6389 -15.87532,59.18936 0.008,0.26666 -0.26671,0.55688 -0.59614,0.855 a 9.18008,9.18008 0 0 0 -1.66288,11.47545 z"
         transform="translate(-300.34479,-190.05939)"
         fill="#2f2e41"
         id="path22" /><path
         d="m 809.45309,497.16362 -6.19682,-59.98181 -1.63562,-24.68654 17.34473,-3.13627 c 0,0 -0.68726,17.65162 1.58492,27.61085 2.24226,9.82765 0.29746,58.87688 0.15891,60.18842 a 8.43869,8.43869 0 1 1 -11.25612,0.005 z"
         transform="translate(-300.34479,-190.05939)"
         fill="#a0616a"
         id="path23" /><path
         d="m 826.37164,449.61094 -4.82391,0.99618 -16.55045,3.42774 -0.91772,0.18824 -1.95309,-7.76533 -2.26688,-2.41591 -4.31409,-22.60586 -0.22745,-1.17657 -6.5182,-13.93061 1.4903,-41.87022 10.77,3.012 c 0.0863,0.0863 0.16474,0.18039 0.24316,0.27451 2.40805,2.72963 4.12584,6.52605 6.93394,10.346 9.138,12.43246 16.14988,42.6389 15.87532,59.18936 -0.008,0.26666 0.26671,0.55688 0.59614,0.855 a 9.18008,9.18008 0 0 1 1.66293,11.47547 z"
         transform="translate(-300.34479,-190.05939)"
         fill="#2f2e41"
         id="path24" /><path
         d="m 737.489,370.65369 7.87971,-20.6669 20.12717,-0.36864 6.67878,21.03554 24.0059,134.1036 c 0,0 -73.54408,20.48067 -72.79806,-4.13807 0.78438,-25.88455 4.32336,-60.26788 4.32336,-60.26788 z"
         transform="translate(-300.34479,-190.05939)"
         fill="#6c63ff"
         id="path25" /><circle
         cx="454.63748"
         cy="130.43677"
         r="23.70998"
         fill="#a0616a"
         id="circle25" /><path
         d="m 729.87412,303.296 c 3.86011,-4.2014 8.68826,-11.892 23.31228,-15.12147 18.07034,-3.99055 26.60919,12.33362 22.05218,12.6012 13.32515,4.03514 4.76529,31.6106 0.94512,29.29792 A 1.12494,1.12494 0 0 1 776.08928,330 18.77,18.77 0 0 1 768.592,317.1934 l -0.725,-6.52543 c -0.10351,5.30926 -5.53035,6.01158 -11.07409,4.05623 a 6.95535,6.95535 0 0 1 4.91385,-4.83821 23.78593,23.78593 0 0 1 -13.97147,6.07912 9.51087,9.51087 0 0 1 4.62511,-6.36419 l -0.2188,-0.215 a 22.84961,22.84961 0 0 1 -7.33,4.1504 c -3.056,0.87594 -6.71782,0.40207 -8.81164,-1.99015 a 6.50041,6.50041 0 0 1 -1.25249,-2.25409 c 0.45268,4.2047 -2.36752,9.00438 -4.55825,8.18032 -1.82247,-0.35417 -2.88481,-11.3795 -0.3151,-14.1764 z"
         transform="translate(-300.34479,-190.05939)"
         fill="#2f2e41"
         id="path26" /><path
         d="m 898.72738,708.23514 a 1.18647,1.18647 0 0 1 -1.19006,1.19 h -280.29 a 1.19,1.19 0 0 1 0,-2.38 h 280.29 a 1.18651,1.18651 0 0 1 1.19006,1.19 z"
         transform="translate(-300.34479,-190.05939)"
         fill="#cccccc"
         id="path27" /><path
         d="m 607.62666,461.92192 c -9.48085,0 -17.81459,4.29206 -22.5331,10.73464 a 29.12131,29.12131 0 0 1 17.37286,-5.5744 c 14.68157,0 26.626,10.28436 26.626,22.92543 v 10.50777 h 5.16024 v -15.668 c -4e-5,-12.64108 -11.94443,-22.92544 -26.626,-22.92544 z"
         transform="translate(-300.34479,-190.05939)"
         fill="#3f3d56"
         id="path28" /><path
         d="m 637.79828,505.89326 h -61.918 v -18.21777 c 0,-14.69824 13.88818,-26.65625 30.959,-26.65625 17.07082,0 30.959,11.958 30.959,26.65625 z m -59.918,-2 h 57.918 v -16.21777 c 0,-13.5957 -12.99073,-24.65625 -28.959,-24.65625 -15.96827,0 -28.959,11.06055 -28.959,24.65625 z"
         transform="translate(-300.34479,-190.05939)"
         fill="#ffffff"
         id="path29" /><path
         d="m 622.69671,498.93818 h -31.71484 a 5.38755,5.38755 0 0 1 -5.38135,-5.38183 v -7.25 c 0,-10.1084 9.52783,-18.332 21.23877,-18.332 11.71094,0 21.23877,8.22363 21.23877,18.332 v 7.25 a 5.38754,5.38754 0 0 1 -5.38135,5.38183 z m -15.85742,-28.96386 c -10.6084,0 -19.23877,7.32617 -19.23877,16.332 v 7.25 a 3.38525,3.38525 0 0 0 3.38135,3.38183 h 31.71484 a 3.38525,3.38525 0 0 0 3.38135,-3.38183 v -7.25 c 0,-9.00583 -8.63037,-16.332 -19.23877,-16.332 z"
         transform="translate(-300.34479,-190.05939)"
         fill="#ffffff"
         id="path30" /></g></g></svg>
