<?xml version="1.0" encoding="UTF-8" standalone="no"?>
<!-- Created with Inkscape (http://www.inkscape.org/) -->

<svg
   width="550"
   height="435"
   viewBox="0 0 550 435"
   version="1.1"
   id="svg1"
   xml:space="preserve"
   inkscape:version="1.3 (0e150ed6c4, 2023-07-21)"
   sodipodi:docname="hero_coru_rvt_original.svg"
   xmlns:inkscape="http://www.inkscape.org/namespaces/inkscape"
   xmlns:sodipodi="http://sodipodi.sourceforge.net/DTD/sodipodi-0.dtd"
   xmlns:xlink="http://www.w3.org/1999/xlink"
   xmlns="http://www.w3.org/2000/svg"
   xmlns:svg="http://www.w3.org/2000/svg"><sodipodi:namedview
     id="namedview1"
     pagecolor="#ffffff"
     bordercolor="#111111"
     borderopacity="1"
     inkscape:showpageshadow="0"
     inkscape:pageopacity="0"
     inkscape:pagecheckerboard="1"
     inkscape:deskcolor="#d1d1d1"
     inkscape:document-units="px"
     inkscape:zoom="1.0604167"
     inkscape:cx="271.11984"
     inkscape:cy="240"
     inkscape:window-width="1366"
     inkscape:window-height="705"
     inkscape:window-x="-8"
     inkscape:window-y="-8"
     inkscape:window-maximized="1"
     inkscape:current-layer="layer1"
     showguides="false" /><defs
     id="defs1"><linearGradient
       id="0bbb0783-00db-46b0-92e3-e6ca2c0b643f-5222"
       x1="436.86"
       y1="827.5"
       x2="436.86"
       y2="266.81"
       gradientUnits="userSpaceOnUse"><stop
         offset="0"
         stop-color="gray"
         stop-opacity="0.25"
         id="stop1" /><stop
         offset="0.54"
         stop-color="gray"
         stop-opacity="0.12"
         id="stop2" /><stop
         offset="1"
         stop-color="gray"
         stop-opacity="0.1"
         id="stop3" /></linearGradient><linearGradient
       id="307dda9f-981d-4ff4-9930-3a0d53b6cae3-5223"
       x1="729.55"
       y1="449.33"
       x2="729.55"
       y2="-37.39"
       gradientTransform="rotate(-34.67,813.03303,377.04299)"
       xlink:href="#0bbb0783-00db-46b0-92e3-e6ca2c0b643f-5222" /><linearGradient
       id="7f05ddf0-0286-4412-8910-1e0b2c479f08-5224"
       x1="752.36"
       y1="126.67"
       x2="752.36"
       y2="59.43"
       gradientTransform="rotate(-34.67,813.03303,377.04299)"
       xlink:href="#0bbb0783-00db-46b0-92e3-e6ca2c0b643f-5222" /></defs><g
     inkscape:label="Layer 1"
     inkscape:groupmode="layer"
     id="layer1"><text
       xml:space="preserve"
       style="font-style:normal;font-variant:normal;font-weight:normal;font-stretch:normal;font-size:128px;font-family:Gabriola;-inkscape-font-specification:'Gabriola, Normal';font-variant-ligatures:normal;font-variant-caps:normal;font-variant-numeric:normal;font-variant-east-asian:normal;text-align:center;text-anchor:middle;opacity:0.996;fill:#6c63ff;fill-opacity:1;fill-rule:evenodd;stroke-width:2.33;stroke-linecap:round;stroke-miterlimit:4.1;paint-order:markers fill stroke"
       x="274"
       y="131.08055"
       id="text1"><tspan
         sodipodi:role="line"
         id="tspan1"
         x="274"
         y="131.08055"
         style="font-style:normal;font-variant:normal;font-weight:normal;font-stretch:normal;font-size:128px;font-family:Gabriola;-inkscape-font-specification:'Gabriola, Normal';font-variant-ligatures:normal;font-variant-caps:normal;font-variant-numeric:normal;font-variant-east-asian:normal;fill:#6c63ff;fill-opacity:1">Ramani</tspan></text><g
       id="g5"
       transform="matrix(0.56161122,0,0,0.56161122,-1.8865134,195.91176)"><path
         d="M 993.71816,412.83936 H 419.142 a 9.19888,9.19888 0 0 0 0,18.39776 h 16.275 V 651.3026 a 9.19888,9.19888 0 0 0 18.39776,0 l 0.1398,-220.06548 h 461.1557 l 42.52,220.06548 a 9.198875,9.198875 0 1 0 18.39775,0 l 2.67633,-220.06548 h 15.01383 a 9.19888,9.19888 0 0 0 0,-18.39776 z"
         transform="translate(-110.33661,-237.5817)"
         fill="#cccccc"
         id="path1-5" /><path
         d="m 518.73716,371.85047 v 38.9547 H 421.141 a 19.489154,19.489154 0 1 1 -1.35523,-38.95474 q 0.67739,-0.0236 1.35523,0 z"
         transform="translate(-110.33661,-237.5817)"
         fill="#f2f2f2"
         id="path2-0" /><path
         d="m 521.13449,410.50552 a 1.49881,1.49881 0 0 1 -1.49822,1.49822 H 419.40273 a 20.52615,20.52615 0 0 1 0,-41.05229 h 100.23354 a 1.49827,1.49827 0 1 1 0,2.99653 H 419.40273 a 17.52964,17.52964 0 0 0 0,35.05924 h 100.23354 a 1.49883,1.49883 0 0 1 1.49822,1.4983 z"
         transform="translate(-110.33661,-237.5817)"
         fill="#6c63ff"
         id="path3" /><path
         d="M 518.73716,380.84 H 413.85905 a 0.29966002,0.29966002 0 0 1 -0.006,-0.59929 h 104.88363 a 0.29966,0.29966 0 0 1 0,0.59929 z"
         transform="translate(-110.33661,-237.5817)"
         fill="#cccccc"
         id="path4" /><path
         d="M 518.73716,388.03169 H 413.85905 a 0.29966002,0.29966002 0 0 1 -0.006,-0.59929 h 104.88363 a 0.29966,0.29966 0 0 1 0,0.59929 z"
         transform="translate(-110.33661,-237.5817)"
         fill="#cccccc"
         id="path5" /><path
         d="M 518.73716,395.22332 H 413.85905 a 0.29966002,0.29966002 0 0 1 -0.006,-0.59929 h 104.88363 a 0.29966,0.29966 0 0 1 0,0.59929 z"
         transform="translate(-110.33661,-237.5817)"
         fill="#cccccc"
         id="path6" /><path
         d="M 518.73716,402.41487 H 413.85905 a 0.29966002,0.29966002 0 0 1 -0.006,-0.59929 h 104.88363 a 0.29966,0.29966 0 0 1 0,0.59929 z"
         transform="translate(-110.33661,-237.5817)"
         fill="#cccccc"
         id="path7" /><path
         d="m 500.33941,330.80932 v 38.95474 h -97.59617 a 19.489153,19.489153 0 0 1 -1.35522,-38.95474 q 0.67737,-0.0236 1.35522,0 z"
         transform="translate(-110.33661,-237.5817)"
         fill="#f2f2f2"
         id="path8" /><path
         d="m 502.73673,369.46442 a 1.49885,1.49885 0 0 1 -1.49822,1.49826 H 401.005 a 20.526145,20.526145 0 0 1 0,-41.05229 h 100.23351 a 1.49826,1.49826 0 1 1 0,2.99652 H 401.005 a 17.52964,17.52964 0 0 0 0,35.05928 h 100.23351 a 1.49884,1.49884 0 0 1 1.49822,1.49823 z"
         transform="translate(-110.33661,-237.5817)"
         fill="#3f3d56"
         id="path9" /><path
         d="M 500.33941,339.79886 H 395.4613 a 0.29966002,0.29966002 0 0 1 -0.006,-0.59929 h 104.88364 a 0.29966,0.29966 0 0 1 0,0.59929 z"
         transform="translate(-110.33661,-237.5817)"
         fill="#cccccc"
         id="path10-2" /><path
         d="M 500.33941,346.99054 H 395.4613 a 0.29966002,0.29966002 0 0 1 -0.006,-0.59929 h 104.88364 a 0.29966,0.29966 0 0 1 0,0.59929 z"
         transform="translate(-110.33661,-237.5817)"
         fill="#cccccc"
         id="path11-3" /><path
         d="M 500.33941,354.18217 H 395.4613 a 0.29966002,0.29966002 0 0 1 -0.006,-0.59929 h 104.88364 a 0.29966,0.29966 0 0 1 0,0.59929 z"
         transform="translate(-110.33661,-237.5817)"
         fill="#cccccc"
         id="path12-4" /><path
         d="M 500.33941,361.37376 H 395.4613 a 0.29966002,0.29966002 0 0 1 -0.006,-0.59929 h 104.88364 a 0.29966,0.29966 0 0 1 0,0.59929 z"
         transform="translate(-110.33661,-237.5817)"
         fill="#cccccc"
         id="path13-6" /><path
         d="m 613.87355,550.68347 v -33.96509 a 5.661,5.661 0 0 0 -5.66085,-5.66085 H 479.4284 a 5.661,5.661 0 0 0 -5.66084,5.66085 v 33.96509 z"
         transform="translate(-110.33661,-237.5817)"
         fill="#cccccc"
         id="path14-3" /><rect
         x="363.43091"
         y="325.83868"
         width="140.10602"
         height="43.871578"
         fill="#cccccc"
         id="rect14" /><path
         d="M 473.76756,620.02887 V 653.994 a 5.661,5.661 0 0 0 5.66084,5.66084 h 128.7843 a 5.661,5.661 0 0 0 5.66085,-5.66084 v -33.96513 z"
         transform="translate(-110.33661,-237.5817)"
         fill="#cccccc"
         id="path15-8" /><circle
         cx="432.77634"
         cy="294.70401"
         r="4.2456398"
         fill="#ffffff"
         id="circle15" /><circle
         cx="432.77634"
         cy="351.3125"
         r="4.2456398"
         fill="#ffffff"
         id="circle16" /><circle
         cx="433.00385"
         cy="406.72229"
         r="4.2456398"
         fill="#ffffff"
         id="circle17" /><path
         d="m 597.989,472.33053 v 38.9547 h -97.59613 a 19.48916,19.48916 0 0 1 -1.35647,-38.9547 q 0.678,-0.0236 1.35647,0 z"
         transform="translate(-110.33661,-237.5817)"
         fill="#f2f2f2"
         id="path17-9" /><path
         d="m 600.38637,510.98558 a 1.49881,1.49881 0 0 1 -1.49822,1.49822 H 498.65461 a 20.52615,20.52615 0 0 1 -0.0247,-41.05229 h 100.25824 a 1.49827,1.49827 0 1 1 0,2.99653 H 498.65461 a 17.52963,17.52963 0 0 0 0,35.05923 h 100.23354 a 1.49885,1.49885 0 0 1 1.49822,1.49831 z"
         transform="translate(-110.33661,-237.5817)"
         fill="#3f3d56"
         id="path18-7" /><path
         d="M 597.989,481.32 H 493.111 a 0.29966002,0.29966002 0 0 1 -0.006,-0.59929 h 104.88366 a 0.29966,0.29966 0 0 1 0,0.59929 z"
         transform="translate(-110.33661,-237.5817)"
         fill="#cccccc"
         id="path19-4" /><path
         d="M 597.989,488.51175 H 493.111 a 0.29966002,0.29966002 0 0 1 -0.006,-0.59929 h 104.88366 a 0.29966,0.29966 0 0 1 0,0.59929 z"
         transform="translate(-110.33661,-237.5817)"
         fill="#cccccc"
         id="path20-0" /><path
         d="M 597.989,495.70338 H 493.111 a 0.29966002,0.29966002 0 0 1 -0.006,-0.59929 h 104.88366 a 0.29966,0.29966 0 0 1 0,0.59929 z"
         transform="translate(-110.33661,-237.5817)"
         fill="#cccccc"
         id="path21-8" /><path
         d="M 597.989,502.89493 H 493.111 a 0.29966002,0.29966002 0 0 1 -0.006,-0.59929 h 104.88366 a 0.29966,0.29966 0 0 1 0,0.59929 z"
         transform="translate(-110.33661,-237.5817)"
         fill="#cccccc"
         id="path22-9" /><path
         d="m 483.36747,317.81415 h -44.46585 a 2.74745,2.74745 0 0 0 -1.21689,0.28306 l -11.22288,5.61835 a 2.0452,2.0452 0 0 0 0,3.76443 l 11.22288,5.61835 a 2.74718,2.74718 0 0 0 1.21689,0.28306 h 44.46585 a 2.33381,2.33381 0 0 0 2.4628,-2.16532 v -11.2367 a 2.3338,2.3338 0 0 0 -2.4628,-2.16523 z"
         transform="translate(-110.33661,-237.5817)"
         fill="#3f3d56"
         id="path23-3" /><path
         d="m 485.83027,319.97947 v 11.2367 a 2.33383,2.33383 0 0 1 -2.4628,2.16532 h -8.8589 v -15.56734 h 8.8589 a 2.33383,2.33383 0 0 1 2.4628,2.16532 z"
         transform="translate(-110.33661,-237.5817)"
         fill="#6c63ff"
         id="path24-6" /><path
         d="m 216.78083,537.99332 a 35.33951,35.33951 0 0 0 34.12552,-6.01134 c 11.95262,-10.03214 15.70013,-26.56 18.74934,-41.864 q 4.50949,-22.63308 9.019,-45.26617 l -18.88217,13.00153 c -13.57891,9.34993 -27.46375,18.99939 -36.86572,32.54233 -9.40197,13.54294 -13.50598,32.0302 -5.9518,46.68433"
         transform="translate(-110.33661,-237.5817)"
         fill="#e6e6e6"
         id="path25-6" /><path
         d="m 218.39489,592.79741 c -1.91113,-13.92071 -3.87625,-28.0202 -2.53572,-42.09016 1.19057,-12.4956 5.00277,-24.70032 12.764,-34.70734 a 57.73582,57.73582 0 0 1 14.81307,-13.42309 c 1.48131,-0.935 2.84468,1.41257 1.36983,2.34348 a 54.88844,54.88844 0 0 0 -21.71125,26.19626 c -4.72684,12.02273 -5.48591,25.12848 -4.67135,37.90006 0.4926,7.72345 1.53656,15.39627 2.58859,23.05926 a 1.40615,1.40615 0 0 1 -0.94781,1.66928 1.3653,1.3653 0 0 1 -1.6693,-0.94781 z"
         transform="translate(-110.33661,-237.5817)"
         fill="#f2f2f2"
         id="path26-6" /><path
         d="m 236.80246,568.16434 a 26.01425,26.01425 0 0 0 22.6665,11.69871 c 11.47417,-0.54466 21.04,-8.55293 29.651,-16.15584 l 25.46969,-22.48783 -16.85671,-0.80672 c -12.12234,-0.58011 -24.55745,-1.12124 -36.10356,2.617 -11.54611,3.73824 -22.19457,12.73508 -24.30583,24.68624"
         transform="translate(-110.33661,-237.5817)"
         fill="#e6e6e6"
         id="path27-6" /><path
         d="m 212.99392,600.79976 c 9.19853,-16.27621 19.86805,-34.36538 38.93262,-40.14695 A 43.445,43.445 0 0 1 268.3022,558.962 c 1.73863,0.14991 1.30448,2.82994 -0.431,2.6803 a 40.36111,40.36111 0 0 0 -26.133,6.91386 c -7.36852,5.01554 -13.10573,11.98848 -17.96161,19.383 -2.97439,4.52936 -5.63867,9.25082 -8.30346,13.966 -0.85161,1.50687 -3.34078,0.41915 -2.47922,-1.10534 z"
         transform="translate(-110.33661,-237.5817)"
         fill="#f2f2f2"
         id="path28-9" /><path
         d="m 198.25523,617.93168 a 19.69836,19.69836 0 0 1 12.0709,-16.49847 v -9.40956 h 15.782 v 9.70608 a 19.68812,19.68812 0 0 1 11.41362,16.202 l 3.711,43.13835 h -46.68858 z"
         transform="translate(-110.33661,-237.5817)"
         fill="#f2f2f2"
         id="path29-2" /><path
         d="m 734.973,411.955 -4.69488,-1.97685 -3.22067,-23.53551 h -42.889 l -3.491,23.43936 -4.20031,2.10013 a 0.99744,0.99744 0 0 0 0.44611,1.88955 h 57.66283 A 0.99739,0.99739 0 0 0 734.973,411.955 Z"
         transform="translate(-110.33661,-237.5817)"
         fill="#e6e6e6"
         id="path30-0" /><path
         d="M 811.1898,389.574 H 600.50692 A 4.174,4.174 0 0 1 596.34225,385.4 V 355.69092 H 815.35446 V 385.4 a 4.17408,4.17408 0 0 1 -4.16466,4.174 z"
         transform="translate(-110.33661,-237.5817)"
         fill="#cccccc"
         id="path31" /><path
         d="M 815.57469,369.73213 H 596.15 V 242.61337 a 5.0375,5.0375 0 0 1 5.03186,-5.03167 h 209.361 a 5.03755,5.03755 0 0 1 5.03191,5.03167 z"
         transform="translate(-110.33661,-237.5817)"
         fill="#3f3d56"
         id="path32" /><path
         d="m 802.46932,360.50584 h -193.214 a 3.88344,3.88344 0 0 1 -3.87919,-3.87908 V 250.68707 a 3.88365,3.88365 0 0 1 3.87919,-3.87932 h 193.214 a 3.88366,3.88366 0 0 1 3.8792,3.87932 v 105.93969 a 3.88345,3.88345 0 0 1 -3.8792,3.87908 z"
         transform="translate(-110.33661,-237.5817)"
         fill="#ffffff"
         id="path33" /><path
         d="m 751.57964,397.88662 a 11.6159,11.6159 0 0 1 17.666,2.27241 l 26.13446,-4.64642 6.69716,15.19317 -36.99908,6.04328 a 11.67883,11.67883 0 0 1 -13.49855,-18.86244 z"
         transform="translate(-110.33661,-237.5817)"
         fill="#ffb6b6"
         id="path34" /><path
         d="m 775.77611,417.286 27.24571,-0.33963 3.44882,-0.0467 55.43253,-0.69843 c 0,0 15.05312,-14.3609 28.16068,-29.1465 l -1.83719,-13.28833 A 54.29159,54.29159 0 0 0 870.023,340.1519 c -18.77312,12.5441 -29.66,37.37369 -29.66,37.37369 l -34.37018,8.22071 -3.43848,0.82227 -21.35608,5.10326 z"
         transform="translate(-110.33661,-237.5817)"
         fill="#6c63ff"
         id="path35" /><path
         d="m 915.25011,498.96167 h -50.85762 c 0,2.17915 -55.59414,3.94772 -55.59414,3.94772 a 20.30858,20.30858 0 0 0 -3.33166,3.15818 19.59694,19.59694 0 0 0 -4.58,12.63271 v 3.15818 a 19.74588,19.74588 0 0 0 19.73861,19.73861 h 94.62478 a 19.75579,19.75579 0 0 0 19.73862,-19.73861 v -3.15818 a 19.76607,19.76607 0 0 0 -19.73859,-19.73861 z"
         transform="translate(-110.33661,-237.5817)"
         fill="#e4e4e4"
         id="path36" /><rect
         x="747.40192"
         y="303.23123"
         width="20.52816"
         height="118.48951"
         fill="#e4e4e4"
         id="rect36" /><path
         d="m 799.31222,658.58132 c 0,2.218 31.10721,0.858 69.47992,0.858 38.37271,0 69.47991,1.36012 69.47991,-0.858 0,-2.21812 -31.1072,-19.807 -69.47991,-19.807 -38.37271,0 -69.47992,17.58891 -69.47992,19.807 z"
         transform="translate(-110.33661,-237.5817)"
         fill="#e4e4e4"
         id="path37" /><polygon
         points="652.64,348.531 675.188,348.532 675.186,407.461 659.908,407.46 "
         fill="#ffb6b6"
         id="polygon37" /><path
         d="m 789.41863,659.852 -49.2623,-0.002 v -0.62309 a 19.17528,19.17528 0 0 1 19.17426,-19.17395 h 10e-4 l 30.08773,10e-4 z"
         transform="translate(-110.33661,-237.5817)"
         fill="#2f2e41"
         id="path38" /><polygon
         points="607.485,348.531 630.033,348.532 630.031,407.461 614.753,407.46 "
         fill="#ffb6b6"
         id="polygon38" /><path
         d="m 744.2636,659.852 -49.2623,-0.002 v -0.62309 a 19.1753,19.1753 0 0 1 19.17426,-19.17395 h 10e-4 l 30.08773,10e-4 z"
         transform="translate(-110.33661,-237.5817)"
         fill="#2f2e41"
         id="path39" /><circle
         cx="766.88654"
         cy="41.63615"
         r="26.564011"
         fill="#ffb6b6"
         id="circle39" /><path
         d="m 920.21655,461.22417 c 0,0 8.91308,47.1307 -24.99958,53.13247 -33.91266,6.00177 -82.86639,10.21993 -82.86639,10.21993 l -21.98352,102.56667 -29.53443,-2.63675 c 0,0 3.928,-123.46737 13.5876,-133.127 9.6596,-9.65963 70.71212,-38.58282 70.71212,-38.58282 z"
         transform="translate(-110.33661,-237.5817)"
         fill="#2f2e41"
         id="path40" /><path
         d="M 853.98286,441.47135 839.151,456.35062 c 0,0 -107.0941,17.25 -111.22553,41.9852 -6.23747,37.34427 -13.60493,118.552 -13.60493,118.552 l 32.1988,-2.41491 12.62647,-92.31123 51.5182,-11.71874 L 869.27729,478.5 Z"
         transform="translate(-110.33661,-237.5817)"
         fill="#2f2e41"
         id="path41" /><path
         d="m 902.78526,263.36115 c -2.6223,-4.94751 -5.95413,-14.80785 -11.24679,-16.63657 a 42.07731,42.07731 0 0 0 -9.05841,-1.92972 l -8.99618,3.46009 4.89616,-3.808 q -1.42988,-0.0852 -2.85817,-0.13928 l -6.0699,2.33453 3.10542,-2.41532 c -5.65883,-0.0581 -11.5,0.53031 -15.88468,3.9752 -3.73817,2.93677 -7.44169,14.06185 -8.04057,18.77753 a 35.9171,35.9171 0 0 0 0.6603,13.53055 l 1.53716,1.46166 a 18.85936,18.85936 0 0 0 1.206,-3.83883 18.18056,18.18056 0 0 1 8.70263,-11.80641 l 0.0837,-0.0472 c 2.5782,-1.451 5.7065,-1.3841 8.66308,-1.27769 l 14.04158,0.50527 c 3.37829,0.12158 7.01608,0.33533 9.64978,2.45443 a 15.888,15.888 0 0 1 3.85826,5.58929 c 1.30868,2.6414 3.8661,12.60418 3.8661,12.60418 0,0 1.44689,-1.88062 2.1404,-0.48092 a 48.39766,48.39766 0 0 0 2.01437,-11.23347 22.00877,22.00877 0 0 0 -2.27022,-11.07932 z"
         transform="translate(-110.33661,-237.5817)"
         fill="#2f2e41"
         id="path42" /><path
         d="M 995.69426,290.88349 A 11.61582,11.61582 0 0 0 985.181,305.26136 l -21.3614,15.75722 6.40951,15.31674 29.85389,-22.67594 a 11.67883,11.67883 0 0 0 -4.38875,-22.77589 z"
         transform="translate(-110.33661,-237.5817)"
         fill="#ffb6b6"
         id="path43" /><path
         d="m 992.25627,323.052 -53.551,59.4744 c 0,0 -25.60913,-8.19816 -45.41466,-17.08624 l -8.8977,-27.32787 a 54.34329,54.34329 0 0 1 -2.60112,-19.66442 c 27.45606,-7.306 59.391,19.87863 59.391,19.87863 l 40.08517,-31.39877 z"
         transform="translate(-110.33661,-237.5817)"
         fill="#6c63ff"
         id="path44" /><path
         d="m 867.301,465.6169 c -9.554,-3.30029 -19.43312,-6.71277 -30.08912,-7.99385 l -0.45773,-0.0553 0.12632,-0.443 c 11.03073,-38.7308 8.27761,-63.50657 2.87195,-100.72306 a 37.59072,37.59072 0 0 1 21.5483,-39.50121 l 0.0654,-0.0296 30.43436,-1.93391 0.0693,-0.004 22.13437,6.50989 a 15.18313,15.18313 0 0 1 10.86724,14.83111 c -0.23987,12.23937 0.26868,25.9043 0.80711,40.37114 1.20787,32.45569 2.45686,66.01647 -4.63045,87.79166 l -0.0372,0.11412 -0.0946,0.0742 a 36.09883,36.09883 0 0 1 -23.08086,8.10758 c -9.93489,-4e-5 -20.0736,-3.50205 -30.53446,-7.11549 z"
         transform="translate(-110.33661,-237.5817)"
         fill="#6c63ff"
         id="path45" /><path
         d="M 1088.2482,662.4183 H 111.75183 a 1.41521,1.41521 0 1 1 0,-2.83042 h 976.49637 a 1.41521,1.41521 0 1 1 0,2.83042 z"
         transform="translate(-110.33661,-237.5817)"
         fill="#cccccc"
         id="path46" /></g><text
       xml:space="preserve"
       style="font-style:normal;font-variant:normal;font-weight:normal;font-stretch:normal;font-size:128px;font-family:Gabriola;-inkscape-font-specification:'Gabriola, Normal';font-variant-ligatures:normal;font-variant-caps:normal;font-variant-numeric:normal;font-variant-east-asian:normal;text-align:center;text-anchor:middle;opacity:0.996;fill:#2f2e41;fill-opacity:1;fill-rule:evenodd;stroke-width:2.33;stroke-linecap:round;stroke-miterlimit:4.1;paint-order:markers fill stroke"
       x="339.06876"
       y="180.11789"
       id="text5"><tspan
         sodipodi:role="line"
         id="tspan5"
         x="339.06876"
         y="180.11789"
         style="font-style:normal;font-variant:normal;font-weight:normal;font-stretch:normal;font-size:74.6667px;font-family:Gabriola;-inkscape-font-specification:'Gabriola, Normal';font-variant-ligatures:normal;font-variant-caps:normal;font-variant-numeric:normal;font-variant-east-asian:normal;fill:#2f2e41;fill-opacity:1">Viswanathan</tspan></text></g></svg>
