<?xml version="1.0" encoding="UTF-8" standalone="no"?>
<!-- Created with Inkscape (http://www.inkscape.org/) -->

<svg
   width="300"
   height="300"
   viewBox="0 0 300 300"
   version="1.1"
   id="svg1"
   xml:space="preserve"
   xmlns="http://www.w3.org/2000/svg"
   xmlns:svg="http://www.w3.org/2000/svg"><defs
     id="defs1" /><g
     id="layer1"><g
       id="g3"
       transform="matrix(0.3534867,0,0,0.5063877,4.7747968,3.3983359)"><path
         d="m 371.238,218.49521 h -52.3999 a 19.01722,19.01722 0 0 0 -19,19 v 56.81 c -0.66992,-0.04 -1.33985,-0.1 -2,-0.18 a 66.99888,66.99888 0 1 1 73.10009,-77.63 c 0.10991,0.65997 0.21001,1.33002 0.29981,2 z"
         transform="translate(-189.16186,-160.49521)"
         fill="#f2f2f2"
         id="path1" /><path
         d="m 989.83814,216.49521 h -671 a 21.023,21.023 0 0 0 -21,21 v 354 a 21.023,21.023 0 0 0 21,21 h 671 a 21.023,21.023 0 0 0 20.99996,-21 v -354 a 21.023,21.023 0 0 0 -20.99996,-21 z m 18.99996,375 a 19.01722,19.01722 0 0 1 -18.99996,19 h -671 a 19.01722,19.01722 0 0 1 -19,-19 v -354 a 19.01722,19.01722 0 0 1 19,-19 h 671 a 19.01722,19.01722 0 0 1 18.99996,19 z"
         transform="translate(-189.16186,-160.49521)"
         fill="#3f3d56"
         id="path2" /><path
         d="m 956.83814,273.86484 h -605 a 1,1 0 0 1 0,-2 h 605 a 1,1 0 0 1 0,2 z"
         transform="translate(-189.16186,-160.49521)"
         fill="#3f3d56"
         id="path3" /><path
         d="m 522.83814,569.49521 a 1,1 0 0 1 -1,-1 v -329 a 1,1 0 1 1 2,0 v 329 a 1.00005,1.00005 0 0 1 -1,1 z"
         transform="translate(-189.16186,-160.49521)"
         fill="#3f3d56"
         id="path4" /><path
         d="m 673.83814,569.49521 a 1,1 0 0 1 -1,-1 v -329 a 1,1 0 1 1 2,0 v 329 a 1.00005,1.00005 0 0 1 -1,1 z"
         transform="translate(-189.16186,-160.49521)"
         fill="#3f3d56"
         id="path5" /><path
         d="m 824.83814,569.49521 a 1,1 0 0 1 -1,-1 v -329 a 1,1 0 1 1 2,0 v 329 a 1.00005,1.00005 0 0 1 -1,1 z"
         transform="translate(-189.16186,-160.49521)"
         fill="#3f3d56"
         id="path6" /><path
         d="m 425.75379,377.08261 h -36.54 a 4.505,4.505 0 0 1 -4.5,-4.5 V 329.463 a 4.505,4.505 0 0 1 4.5,-4.5 h 36.54 a 4.505,4.505 0 0 1 4.5,4.5 v 43.11963 a 4.505,4.505 0 0 1 -4.5,4.49998 z"
         transform="translate(-189.16186,-160.49521)"
         fill="#00bfa6"
         id="path7" /><path
         d="m 477.75379,500.08261 h -36.54 a 4.505,4.505 0 0 1 -4.5,-4.5 V 452.463 a 4.505,4.505 0 0 1 4.5,-4.5 h 36.54 a 4.505,4.505 0 0 1 4.5,4.5 v 43.11963 a 4.505,4.505 0 0 1 -4.5,4.49998 z"
         transform="translate(-189.16186,-160.49521)"
         fill="#00bfa6"
         id="path8" /><path
         d="m 595.75391,403.08261 h -36.54 a 4.50508,4.50508 0 0 1 -4.5,-4.5 V 355.463 a 4.50508,4.50508 0 0 1 4.5,-4.5 h 36.54 a 4.50508,4.50508 0 0 1 4.5,4.5 v 43.11963 a 4.50508,4.50508 0 0 1 -4.5,4.49998 z"
         transform="translate(-189.16186,-160.49521)"
         fill="#00bfa6"
         id="path9" /><path
         d="m 748.75391,356.08261 h -36.54 a 4.50508,4.50508 0 0 1 -4.5,-4.5 V 308.463 a 4.50508,4.50508 0 0 1 4.5,-4.5 h 36.54 a 4.50508,4.50508 0 0 1 4.5,4.5 v 43.11963 a 4.50508,4.50508 0 0 1 -4.5,4.49998 z"
         transform="translate(-189.16186,-160.49521)"
         fill="#00bfa6"
         id="path10" /><path
         d="m 889.75391,356.08261 h -36.54 a 4.50508,4.50508 0 0 1 -4.5,-4.5 V 308.463 a 4.50508,4.50508 0 0 1 4.5,-4.5 h 36.54 a 4.50508,4.50508 0 0 1 4.5,4.5 v 43.11963 a 4.50508,4.50508 0 0 1 -4.5,4.49998 z"
         transform="translate(-189.16186,-160.49521)"
         fill="#00bfa6"
         id="path11" /><path
         d="m 954.75391,368.08261 h -36.54 a 4.50508,4.50508 0 0 1 -4.5,-4.5 V 320.463 a 4.50508,4.50508 0 0 1 4.5,-4.5 h 36.54 a 4.50508,4.50508 0 0 1 4.5,4.5 v 43.11963 a 4.50508,4.50508 0 0 1 -4.5,4.49998 z"
         transform="translate(-189.16186,-160.49521)"
         fill="#e6e6e6"
         id="path12" /><path
         d="m 925.75391,445.08261 h -36.54 a 4.50508,4.50508 0 0 1 -4.5,-4.5 V 397.463 a 4.50508,4.50508 0 0 1 4.5,-4.5 h 36.54 a 4.50508,4.50508 0 0 1 4.5,4.5 v 43.11963 a 4.50508,4.50508 0 0 1 -4.5,4.49998 z"
         transform="translate(-189.16186,-160.49521)"
         fill="#e6e6e6"
         id="path13" /><path
         d="m 801.75391,429.08261 h -36.54 a 4.50508,4.50508 0 0 1 -4.5,-4.5 V 381.463 a 4.50508,4.50508 0 0 1 4.5,-4.5 h 36.54 a 4.50508,4.50508 0 0 1 4.5,4.5 v 43.11963 a 4.50508,4.50508 0 0 1 -4.5,4.49998 z"
         transform="translate(-189.16186,-160.49521)"
         fill="#ff6584"
         id="path14" /><path
         d="m 730.75391,445.08261 h -36.54 a 4.50508,4.50508 0 0 1 -4.5,-4.5 V 397.463 a 4.50508,4.50508 0 0 1 4.5,-4.5 h 36.54 a 4.50508,4.50508 0 0 1 4.5,4.5 v 43.11963 a 4.50508,4.50508 0 0 1 -4.5,4.49998 z"
         transform="translate(-189.16186,-160.49521)"
         fill="#e6e6e6"
         id="path15" /><path
         d="m 577.75391,513.08261 h -36.54 a 4.50508,4.50508 0 0 1 -4.5,-4.5 V 465.463 a 4.50508,4.50508 0 0 1 4.5,-4.5 h 36.54 a 4.50508,4.50508 0 0 1 4.5,4.5 v 43.11963 a 4.50508,4.50508 0 0 1 -4.5,4.49998 z"
         transform="translate(-189.16186,-160.49521)"
         fill="#e6e6e6"
         id="path16" /><path
         d="m 392.75379,456.08261 h -36.54 a 4.505,4.505 0 0 1 -4.5,-4.5 V 408.463 a 4.505,4.505 0 0 1 4.5,-4.5 h 36.54 a 4.505,4.505 0 0 1 4.5,4.5 v 43.11963 a 4.505,4.505 0 0 1 -4.5,4.49998 z"
         transform="translate(-189.16186,-160.49521)"
         fill="#ff6584"
         id="path17" /><path
         d="m 495.75379,377.08261 h -36.54 a 4.505,4.505 0 0 1 -4.5,-4.5 V 329.463 a 4.505,4.505 0 0 1 4.5,-4.5 h 36.54 a 4.505,4.505 0 0 1 4.5,4.5 v 43.11963 a 4.505,4.505 0 0 1 -4.5,4.49998 z"
         transform="translate(-189.16186,-160.49521)"
         fill="#e6e6e6"
         id="path18" /><path
         d="m 465.83814,257.49521 h -57 a 4,4 0 0 1 0,-8 h 57 a 4,4 0 0 1 0,8 z"
         transform="translate(-189.16186,-160.49521)"
         fill="#cccccc"
         id="path19" /><path
         d="m 626.83814,257.49521 h -57 a 4,4 0 0 1 0,-8 h 57 a 4,4 0 0 1 0,8 z"
         transform="translate(-189.16186,-160.49521)"
         fill="#cccccc"
         id="path20" /><path
         d="m 777.83814,257.49521 h -57 a 4,4 0 0 1 0,-8 h 57 a 4,4 0 0 1 0,8 z"
         transform="translate(-189.16186,-160.49521)"
         fill="#cccccc"
         id="path21" /><path
         d="m 918.83814,257.49521 h -57 a 4,4 0 0 1 0,-8 h 57 a 4,4 0 0 1 0,8 z"
         transform="translate(-189.16186,-160.49521)"
         fill="#cccccc"
         id="path22" /><path
         d="M 338.17107,550.38656 A 10.05577,10.05577 0 0 1 329.471,537.6561 l -25.63286,-23.8611 13.55277,-3.43814 25.20573,20.44382 a 10.11027,10.11027 0 0 1 -4.42557,19.58585 z"
         transform="translate(-189.16186,-160.49521)"
         fill="#ffb8b8"
         id="path23" /><polygon
         points="196.664,566.253 202.496,518.965 184.402,518.965 184.404,566.253 "
         fill="#ffb8b8"
         id="polygon23" /><path
         d="m 370.93892,723.24476 h 38.53073 v 14.88687 h -23.64388 a 14.88686,14.88686 0 0 1 -14.88686,-14.88686 v 0 z"
         transform="rotate(179.99738,295.62515,650.43844)"
         fill="#2f2e41"
         id="path24" /><polygon
         points="112.193,560.555 129.994,516.359 112.509,511.705 100.345,557.401 "
         fill="#ffb8b8"
         id="polygon24" /><path
         d="m 285.30672,718.54064 h 38.53073 v 14.88687 h -23.64387 a 14.88686,14.88686 0 0 1 -14.88686,-14.88686 v 0 z"
         transform="matrix(-0.96635,-0.25722,0.25722,-0.96635,222.9961,1345.3878)"
         fill="#2f2e41"
         id="path25" /><path
         d="m 389.12281,717.795 h -18.70728 a 4.72981,4.72981 0 0 1 -4.72607,-4.293 L 354.333,595.5704 a 3.74767,3.74767 0 0 0 -7.321,-0.71484 l -32.97342,110.19922 a 4.74216,4.74216 0 0 1 -5.7,3.24609 l -17.40308,-4.35156 a 4.74747,4.74747 0 0 1 -3.44727,-5.78711 c 0.28418,-1.11035 28.41065,-111.02832 28.65625,-112.1582 6.37281,-46.96778 13.99707,-59.55371 18.093,-66.31445 0.33911,-0.55958 0.65064,-1.07422 0.93115,-1.56055 0.35108,-0.6084 2.51245,-6.64453 3.88355,-10.56445 a 4.79,4.79 0 0 1 2.43506,-2.97754 c 17.21069,-8.80176 37.34741,-2.709 43.10913,-0.63184 a 4.6821,4.6821 0 0 1 2.33813,1.81543 c 17.28467,26.07129 8.80225,177.49121 6.92627,207.581 a 4.75127,4.75127 0 0 1 -4.73796,4.4434 z"
         transform="translate(-189.16186,-160.49521)"
         fill="#2f2e41"
         id="path26" /><circle
         cx="151.68414"
         cy="234.02423"
         r="24.561029"
         fill="#ffb8b8"
         id="circle26" /><path
         d="m 338.24365,512.3331 -0.17651,-0.1709 c -0.33105,-0.32031 -33.05566,-32.37988 -28.82056,-62.02441 1.81128,-12.67969 12.07032,-20.78125 29.66773,-23.43067 a 27.13473,27.13473 0 0 1 29.99976,19.1211 l 17.3999,59.48437 z"
         transform="translate(-189.16186,-160.49521)"
         fill="#cccccc"
         id="path27" /><path
         d="m 321.49463,535.13583 -23.31836,-23.17089 a 13.13671,13.13671 0 0 1 -3.47973,-12.39161 l 11.28857,-45.91894 a 10.35411,10.35411 0 0 1 13.17989,-7.40039 10.41072,10.41072 0 0 1 6.80908,12.79394 l -11.88448,40.39649 19.21826,20.63672 z"
         transform="translate(-189.16186,-160.49521)"
         fill="#cccccc"
         id="path28" /><path
         d="m 446.56619,456.05763 a 10.05577,10.05577 0 0 1 -14.88374,4.02868 l -31.12945,16.13447 1.37589,-13.70578 27.59693,-17.07886 a 10.11028,10.11028 0 0 1 17.04041,10.62149 z"
         transform="translate(-189.16186,-160.49521)"
         fill="#ffb8b8"
         id="path29" /><path
         d="m 428.283,466.25982 -30.34625,13.11355 a 12.80885,12.80885 0 0 1 -12.477,-1.33846 L 346.87082,450.38585 A 10.355,10.355 0 0 1 344.89728,435.4 a 10.41025,10.41025 0 0 1 14.40861,-1.568 l 33.08845,26.042 26.30022,-10.17517 z"
         transform="translate(-189.16186,-160.49521)"
         fill="#cccccc"
         id="path30-0" /><path
         d="m 344.91778,402.38974 c 3.03,-3.79642 8.69082,-4.00051 12.85285,-6.50478 5.45181,-3.28033 7.70574,-10.61077 5.94888,-16.726 -1.75686,-6.11523 -6.93808,-10.881 -12.8784,-13.16029 -5.94032,-2.27929 -12.5494,-2.30748 -18.81589,-1.20568 -9.33021,1.64048 -18.51612,5.99512 -24.20655,13.56895 -5.69043,7.57383 -7.13858,18.66583 -1.98149,26.61243 2.37026,3.65236 6.02921,6.66714 6.97549,10.91712 1.2423,5.57954 -2.6714,10.96083 -6.86421,14.846 -4.77673,4.42628 -10.257,8.1334 -14.44192,13.12294 -4.18492,4.98954 -6.97564,11.80621 -5.066,18.03215 1.6,5.21635 6.25591,9.05948 11.36143,10.98408 5.10552,1.9246 10.66607,2.2027 16.12124,2.30939 5.29718,0.10361 10.92363,-0.0252 15.386,-2.88141 4.77715,-3.05764 7.32781,-8.8583 7.51626,-14.52705 0.18845,-5.66875 -1.70587,-11.22252 -4.24464,-16.2945 -1.51323,-3.02314 -3.27267,-5.95256 -4.27818,-9.18027 -1.00551,-3.22771 -1.1797,-6.89016 0.43058,-9.86274 1.69267,-3.12465 5.1171,-5.009 8.6041,-5.69419 0.18117,-0.0356 0.37286,-0.0674 0.57335,-0.0957 a 7.39847,7.39847 0 0 0 6.33328,-8.62766 c -0.39726,-2.21434 -0.36296,-4.33384 0.67382,-5.63279 z"
         transform="translate(-189.16186,-160.49521)"
         fill="#2f2e41"
         id="path31-7" /><polygon
         points="470.969,567.3 465.137,520.012 483.231,520.013 483.229,567.3 "
         fill="#a0616a"
         id="polygon31" /><path
         d="m 462.212,563.79684 h 23.64386 v 14.88687 h -38.53077 v 0 A 14.88687,14.88687 0 0 1 462.212,563.79684 Z"
         fill="#2f2e41"
         id="path32-0" /><polygon
         points="561.033,558.506 536.079,517.917 552.538,510.399 572.184,553.413 "
         fill="#a0616a"
         id="polygon32" /><path
         d="m 743.47033,716.96167 h 23.64388 v 14.88687 h -38.53073 v 0 a 14.88685,14.88685 0 0 1 14.88685,-14.88687 z"
         transform="rotate(-24.54855,284.42348,1078.8824)"
         fill="#2f2e41"
         id="path33-9" /><path
         d="m 725.64338,568.3522 a 10.05579,10.05579 0 0 0 0.80112,-15.39851 l 14.4116,-32.69992 -18.30864,3.10281 -10.87858,30.57671 a 10.11028,10.11028 0 0 0 13.9745,14.41891 z"
         transform="translate(-189.16186,-160.49521)"
         fill="#a0616a"
         id="path34-7" /><path
         d="m 671.6094,715.32658 h -11.71192 a 4.51686,4.51686 0 0 1 -4.48828,-4.17383 l -6.387,-170.5586 a 4.49977,4.49977 0 0 1 4.92529,-4.80468 l 67.73487,7.19336 a 4.5013,4.5013 0 0 1 4.06225,4.39355 l 1.41943,75.23535 a 3.49205,3.49205 0 0 0 0.23389,1.19336 l 27.78516,72.05274 a 4.49892,4.49892 0 0 1 -2.64307,5.84082 l -11.86841,4.373 a 4.50108,4.50108 0 0 1 -5.55737,-2.16406 l -34.13257,-66.36914 a 4.475,4.475 0 0 1 -0.4043,-1.14258 l -5.83081,-28.09375 a 3.49992,3.49992 0 0 0 -6.904,0.3125 l -11.76222,102.72367 a 4.499,4.499 0 0 1 -4.47094,3.98829 z"
         transform="translate(-189.16186,-160.49521)"
         fill="#2f2e41"
         id="path35-7" /><circle
         cx="488.27942"
         cy="222.17783"
         r="24.561029"
         fill="#a0616a"
         id="circle35" /><path
         d="m 694.28491,556.18955 a 87.66432,87.66432 0 0 1 -46.8728,-14.19825 l -0.239,-0.165 0.0247,-0.28955 9.395,-109.416 a 15.4205,15.4205 0 0 1 14.59887,-14.06153 c 12.176,-0.55957 28.531,0.146 37.28589,6.66651 13.23071,9.85449 19.60767,24.69385 17.49561,40.7124 -4.38013,33.21875 0.58178,78.0293 1.16186,83.0293 l 0.042,0.36035 -0.32959,0.15137 a 77.26611,77.26611 0 0 1 -32.5625,7.2104 z"
         transform="translate(-189.16186,-160.49521)"
         fill="#00bfa6"
         id="path36-6" /><path
         d="m 727.02173,548.65292 a 5.007,5.007 0 0 1 -3.68066,-1.62207 l -5.37256,-5.86132 a 5.02581,5.02581 0 0 1 -1.10913,-4.79493 l 12.25073,-41.46386 -18.63989,-39.14356 a 8.8323,8.8323 0 0 1 -0.60376,-5.87939 8.809,8.809 0 0 1 16.31323,-2.084 l 25.29468,41.042 a 11.95092,11.95092 0 0 1 0.72,11.19824 l -20.60986,45.665 a 4.98754,4.98754 0 0 1 -3.76636,2.87988 5.05373,5.05373 0 0 1 -0.79642,0.064 z"
         transform="translate(-189.16186,-160.49521)"
         fill="#00bfa6"
         id="path37-0" /><path
         d="m 553.89965,469.44778 a 10.05577,10.05577 0 0 0 14.99854,-3.57767 l 35.438,4.59612 -8.14419,-16.68847 -32.404,-1.806 a 10.11028,10.11028 0 0 0 -9.88836,17.476 z"
         transform="translate(-189.16186,-160.49521)"
         fill="#a0616a"
         id="path38" /><path
         d="m 632.01123,478.5621 a 13.42535,13.42535 0 0 1 -1.84472,-0.12744 l -55.751,-7.73242 a 5.54112,5.54112 0 0 1 -4.25073,-3.11133 5.65746,5.65746 0 0 1 -0.31787,-0.8291 h -2.5e-4 a 5.56408,5.56408 0 0 1 0.575,-4.43164 l 4.61353,-7.64893 a 5.58411,5.58411 0 0 1 4.75586,-2.686 h 0.008 l 48.59594,0.0557 36.29395,-32.51709 a 9.86788,9.86788 0 0 1 6.10718,-2.49951 9.83491,9.83491 0 0 1 7.37256,16.81543 L 641.95313,474.128 a 13.364,13.364 0 0 1 -9.9419,4.4341 z"
         transform="translate(-189.16186,-160.49521)"
         fill="#00bfa6"
         id="path39" /><path
         d="m 680.2335,404.52319 c 2.2445,-5.19457 4.14379,-12.11253 -0.16123,-15.78514 -2.49712,-2.13029 -6.09385,-2.13469 -9.36546,-2.39972 -9.21732,-0.74668 -18.70553,-4.98771 -23.21077,-13.06356 -4.50524,-8.07585 -1.98923,-20.08442 6.51023,-23.728 5.72923,-2.456 12.29743,-0.78291 18.29443,0.91767 l 18.0058,5.10593 c 5.35006,1.51712 10.96737,3.19025 14.819,7.20149 6.14268,6.39729 5.6835,17.21166 0.80459,24.618 -4.87891,7.40634 -12.22635,15.13079 -20.63767,17.94281 z"
         transform="translate(-189.16186,-160.49521)"
         fill="#2f2e41"
         id="path40" /><path
         d="m 928.64656,739.50479 h -738.294 a 1.19069,1.19069 0 1 1 0,-2.38137 h 738.294 a 1.19069,1.19069 0 1 1 0,2.38137 z"
         transform="translate(-189.16186,-160.49521)"
         fill="#3f3d56"
         id="path41" /></g></g></svg>
