<?xml version="1.0" encoding="UTF-8" standalone="no"?>
<!-- Created with Inkscape (http://www.inkscape.org/) -->

<svg
   width="120"
   height="120"
   viewBox="0 0 120 120"
   version="1.1"
   id="svg1"
   xml:space="preserve"
   xmlns="http://www.w3.org/2000/svg"
   xmlns:svg="http://www.w3.org/2000/svg"><defs
     id="defs1" /><g
     id="layer1"
     style="display:inline" /><text
     xml:space="preserve"
     style="font-style:normal;font-variant:normal;font-weight:bold;font-stretch:normal;font-size:10.6667px;font-family:Sans;-inkscape-font-specification:'Sans, Bold';font-variant-ligatures:normal;font-variant-caps:normal;font-variant-numeric:normal;font-variant-east-asian:normal;text-align:center;text-anchor:middle;fill:#000000;fill-opacity:1;fill-rule:evenodd;stroke:none;stroke-width:2.33;stroke-linecap:round;stroke-miterlimit:4.1;paint-order:markers fill stroke"
     x="59.41927"
     y="18.950531"
     id="text3"><tspan
       id="tspan3"
       x="59.41927"
       y="18.950531">Project Liftoff</tspan></text><text
     xml:space="preserve"
     style="font-style:normal;font-variant:normal;font-weight:bold;font-stretch:normal;font-size:10.6667px;font-family:Sans;-inkscape-font-specification:'Sans, Bold';font-variant-ligatures:normal;font-variant-caps:normal;font-variant-numeric:normal;font-variant-east-asian:normal;text-align:center;text-anchor:middle;opacity:1;fill:#000000;fill-opacity:1;fill-rule:evenodd;stroke:none;stroke-width:2.33;stroke-linecap:round;stroke-miterlimit:4.1;paint-order:markers fill stroke"
     x="40.340687"
     y="68.059433"
     id="text8"><tspan
       id="tspan8"
       x="40.340687"
       y="68.059433" /></text><text
     xml:space="preserve"
     style="font-style:normal;font-variant:normal;font-weight:bold;font-stretch:normal;font-size:8px;font-family:Sans;-inkscape-font-specification:'Sans, Bold';font-variant-ligatures:normal;font-variant-caps:normal;font-variant-numeric:normal;font-variant-east-asian:normal;text-align:center;text-anchor:middle;fill:#6c63ff;fill-opacity:1;fill-rule:evenodd;stroke:none;stroke-width:2.33;stroke-linecap:round;stroke-miterlimit:4.1;paint-order:markers fill stroke"
     x="64.987968"
     y="28.338213"
     id="text9"><tspan
       id="tspan9"
       x="64.987968"
       y="28.338213"
       style="font-style:normal;font-variant:normal;font-weight:bold;font-stretch:normal;font-size:8px;font-family:Sans;-inkscape-font-specification:'Sans, Bold';font-variant-ligatures:normal;font-variant-caps:normal;font-variant-numeric:normal;font-variant-east-asian:normal;fill:#6c63ff;fill-opacity:1">Launching 2024</tspan></text><g
     id="g10"
     transform="matrix(0.13699594,0,0,0.13699594,0.99952815,38.72664)"><path
       d="m 487.96668,298.31443 c 37.10109,-23.94307 88.20046,-14.64015 124.34793,10.72884 a 196.9347,196.9347 0 0 1 32.30722,28.82658 c 5.64318,6.18962 10.99283,12.68743 16.10981,19.409 1.26068,1.64909 2.51531,3.31471 3.74573,4.99679 q 1.26287,1.70574 2.50473,3.43526 c 10.37769,14.42492 19.89188,29.60015 29.20575,44.63751 23.25089,37.5382 47.10783,76.19386 82.53441,102.54908 7.29895,5.42842 17.482,10.31693 24.95986,5.13332 6.48912,-4.50162 6.7671,-13.96718 5.29023,-21.72428 -5.49032,-28.74 -25.29548,-52.55662 -46.33553,-72.88759 -21.03978,-20.33084 -44.332,-38.97058 -60.22963,-63.5374 -15.8979,-24.56687 -23.16127,-57.36431 -9.23631,-83.09406 12.00085,-22.17255 37.8208,-34.60974 63.02364,-35.189 25.20065,-0.57377 49.68543,9.22225 71.00676,22.6735 21.31941,13.45676 40.066,30.53133 59.63091,46.42986 11.79386,9.5917 28.26094,19.10907 41.11381,10.98808 10.85632,-6.863 11.70313,-23.33834 5.233,-34.43131 -6.47013,-11.09297 -18.01809,-18.0644 -29.08878,-24.56575 q -51.5577,-30.28842 -103.11733,-60.5713 c -10.54549,-6.18859 -21.32085,-12.575 -29.10512,-22.01161 -7.78648,-9.43112 -12.10823,-22.68629 -7.81685,-34.1389 4.23393,-11.2862 16.05933,-18.45281 28.02325,-19.94843 11.95605,-1.49217 24.0148,1.823 35.19936,6.31353 41.91245,16.83224 140.602,126.95133 166.90453,145.77839 16.90324,12.0919 34.65984,27.40012 36.36934,48.11155 2.1296,25.78425 -23.526,47.18186 -49.27766,49.68313 -25.74808,2.50866 -50.70386,-8.68727 -73.71019,-20.52382 -23.00633,-11.83655 -46.48564,-24.88724 -72.30913,-26.53029 -25.823,-1.64282 -54.79532,12.16074 -60.91654,37.29958 -5.32348,21.87428 8.20967,44.44617 25.83789,58.44235 13.79843,10.95842 29.99225,18.25607 45.63451,26.46205 4.3438,2.27173 8.64194,4.62083 12.8341,7.132 a 180.25086,180.25086 0 0 1 29.93459,22.5045 183.67679,183.67679 0 0 1 25.77414,29.64094 179.18159,179.18159 0 0 1 15.62068,27.17341 q 1.00641,2.1759 1.95446,4.4124 c 0.59864,1.42551 1.17874,2.86947 1.72867,4.32782 7.17972,18.91307 9.97662,40.10751 0.8045,57.76316 -9.14885,17.60784 -28.96516,28.03412 -48.75259,29.48 a 89.80071,89.80071 0 0 1 -33.791,-4.46408 137.2297,137.2297 0 0 1 -23.12969,-9.94084 C 794.52567,600.7 767.40355,571.54178 742.6339,541.566 717.8702,511.5923 694.55135,480.0324 665.15237,454.58856 635.75503,429.13911 598.91568,409.89847 560.03188,410.19072 c -38.88188,0.2867 -78.96477,23.97778 -90.00792,61.25757 -16.09646,-27.73614 -26.98109,-59.35475 -25.544,-91.388 1.43709,-32.03325 16.54404,-64.35504 43.48672,-81.74586 z"
       transform="translate(-169.32858,-125.66032)"
       fill="#3f3d56"
       id="path1" /><circle
       cx="469.48709"
       cy="272.01678"
       r="4.2718"
       fill="#6c63ff"
       id="circle1" /><circle
       cx="308.49927"
       cy="275.79175"
       r="6.6045699"
       fill="#ff6584"
       id="circle2" /><circle
       cx="785.86505"
       cy="221.51746"
       r="2.44032"
       fill="#ff6584"
       id="circle3" /><circle
       cx="736.48895"
       cy="90.362106"
       r="2.44032"
       fill="#ff6584"
       id="circle4" /><path
       d="m 843.02633,456.74236 a 26.07891,26.07891 0 0 1 2.78,-5.68327 c 4.3438,2.27173 8.64194,4.62083 12.8341,7.132 a 180.25086,180.25086 0 0 1 29.93459,22.5045 26.02472,26.02472 0 0 1 -45.54867,-23.95319 z"
       transform="translate(-169.32858,-125.66032)"
       fill="#ff6584"
       id="path4" /><circle
       cx="362.47379"
       cy="249.1678"
       r="2.49578"
       fill="#f0f0f0"
       id="circle5" /><circle
       cx="668.24982"
       cy="64.513062"
       r="2.49578"
       fill="#f0f0f0"
       id="circle6" /><circle
       cx="645.77832"
       cy="20.056749"
       r="2.49578"
       fill="#f0f0f0"
       id="circle7" /><circle
       cx="822.50256"
       cy="185.77007"
       r="2.49578"
       fill="#f0f0f0"
       id="circle8" /><circle
       cx="691.4035"
       cy="189.35567"
       r="2.49578"
       fill="#f0f0f0"
       id="circle9" /><circle
       cx="621.83508"
       cy="427.40631"
       r="2.49578"
       fill="#f0f0f0"
       id="circle10" /><circle
       cx="543.40784"
       cy="193.29037"
       r="2.49578"
       fill="#f0f0f0"
       id="circle11" /><circle
       cx="539.9043"
       cy="146.09721"
       r="2.49578"
       fill="#f0f0f0"
       id="circle12" /><path
       d="m 866.14147,532.28381 c -3.70615,-0.15179 -7.30281,-0.16975 -10.76983,-0.0499 -21.35628,0.73815 -35.58147,6.85689 -39.02807,16.788 -3.4466,9.93111 3.92974,23.54668 20.23724,37.35613 q 2.419,2.0484 5.04258,4.06347 a 80.0276,80.0276 0 0 1 24.51808,-58.15768 z"
       transform="translate(-169.32858,-125.66032)"
       fill="none"
       id="path12" /><path
       d="m 846.04959,563.68214 a 79.49915,79.49915 0 0 1 20.09249,-31.39921 q 1.80051,-1.72372 3.7035,-3.33106 a 80.08128,80.08128 0 0 1 44.50356,-18.61538 179.18438,179.18438 0 0 1 15.62068,27.17341 q 1.00639,2.17594 1.95446,4.4124 c 0.59864,1.42551 1.17874,2.86947 1.72867,4.32782 7.17972,18.91307 9.97662,40.10751 0.8045,57.76316 -9.14885,17.60784 -28.96517,28.03416 -48.7526,29.48007 a 89.80131,89.80131 0 0 1 -33.791,-4.46411 79.90212,79.90212 0 0 1 -10.1306,-34.05964 c -0.0984,-1.50666 -0.14666,-3.01457 -0.16151,-4.52952 a 79.68475,79.68475 0 0 1 4.42785,-26.75794 z"
       transform="translate(-169.32858,-125.66032)"
       fill="#6c63ff"
       id="path13" /><path
       d="m 813.01622,547.86864 c 4.00872,-11.55075 19.00577,-18.34978 42.2361,-19.15377 4.64842,-0.16374 9.76062,1.76955 14.59326,0.237 23.44495,-7.43488 44.71546,-2.57642 62.07868,12.9704 0.59863,1.42553 1.17876,2.86948 1.72869,4.32783 -0.23093,-0.0864 -0.46379,-0.16717 -0.69664,-0.248 -23.462,-8.14252 -46.75216,-12.8952 -66.81423,-13.7192 -3.707,-0.14949 -8.129,-2.29424 -10.76958,-0.0471 -21.20758,18.04834 -35.55151,10.486 -39.02911,16.78748 -5.07941,9.204 3.93167,23.5454 20.23837,37.35631 q 2.41941,2.05122 5.04,4.06041 c 0.0149,1.51495 0.0631,3.02286 0.16151,4.52952 q -3.94577,-2.91643 -7.47707,-5.90033 c -17.73787,-15.02205 -25.29676,-29.6554 -21.28998,-41.2006 z"
       transform="translate(-169.32858,-125.66032)"
       fill="#e4e4e4"
       id="path14" /><circle
       cx="731.55933"
       cy="501.52258"
       r="2.49578"
       fill="#f0f0f0"
       id="circle14" /><circle
       cx="687.40277"
       cy="469.42249"
       r="2.49578"
       fill="#f0f0f0"
       id="circle15" /><circle
       cx="721.18622"
       cy="454.4306"
       r="24.270281"
       fill="#f0f0f0"
       id="circle16" /><path
       d="m 509.19491,311.783 c 5.67345,0.26659 17.40774,3.08394 30.12317,6.72643 12.70782,3.64607 26.49182,8.09431 40.10029,12.4941 q 35.73268,11.54366 71.46211,23.08 4.91208,1.5836 9.85116,3.19521 c 1.26068,1.64909 2.51531,3.31471 3.74573,4.99679 -2.89437,-1.02316 -5.8003,-2.013 -8.69749,-2.95637 -12.37844,-4.02258 -23.1198,-6.67554 -35.13327,-10.33536 -18.48821,-5.62729 -37.99248,-13.0176 -56.909,-19.8995 -18.91461,-6.88737 -40.6163,-14.30095 -54.5427,-17.3013 z"
       transform="translate(-169.32858,-125.66032)"
       fill="#f0f0f0"
       opacity="0.3"
       id="path16" /><path
       d="m 932.75759,262.92414 53.58031,88.947 -50.55816,-90.71607 a 1.84948,1.84948 0 1 0 -3.02215,1.76906 z"
       transform="translate(-169.32858,-125.66032)"
       fill="#f0f0f0"
       opacity="0.3"
       id="path17" /><circle
       cx="737.29639"
       cy="397.26895"
       r="2.49578"
       fill="#f0f0f0"
       id="circle17" /><circle
       cx="299.53812"
       cy="375.52679"
       r="16"
       fill="#6c63ff"
       id="circle18" /><path
       d="m 459.3879,492.40273 a 11.44042,11.44042 0 0 1 -7.3141,-15.94512 l -28.97124,-28.52261 20.66168,-4.40845 24.344,27.76138 a 11.50245,11.50245 0 0 1 -8.72027,21.11472 z"
       transform="translate(-169.32858,-125.66032)"
       fill="#a0616a"
       id="path18" /><path
       d="m 320.86565,270.42666 16.157,10.64925 18.91194,4.43 c 0,0 14.99907,107.19866 22.36959,113.62868 7.37052,6.43002 1.16,7.03958 3.15737,15.909 1.99737,8.86942 6.61965,27.01462 6.61965,27.01462 -44.89679,27.82945 -85.006,31.22731 -119.22623,4.57454 a 8.05237,8.05237 0 0 1 3.76528,-9.36653 c 5.786,-3.59436 -6.76409,-17.67495 -2.02758,-20.495 4.73651,-2.82005 -3.63329,-23.91315 -3.63329,-23.91315 l 1.46049,-45.29872 -4.0663,-6.94806 5.72828,-44.60031 14.76652,-6.56237 5.05588,-14.98693 z"
       transform="translate(-169.32858,-125.66032)"
       fill="#6c63ff"
       id="path19" /><path
       d="m 327.8667,274.18712 26.64115,8.8716 c 0,0 29.47047,-3.11176 30.66466,40.75832 1.19419,43.87008 -4.29794,67.41167 -4.29794,67.41167 0,0 61.30315,123.27829 -5.10236,86.86829 l -19.40551,-76.40988 -20,-120 z"
       transform="translate(-169.32858,-125.66032)"
       fill="#2f2e41"
       id="path20" /><path
       d="m 354.5843,371.17746 13.81877,-1.90862 c 0,0 1.33426,20.8342 7.94429,23.99172 6.61003,3.15752 4.38173,3.67716 5.16118,7.01962 0.77945,3.34246 -5.8779,12.60375 -0.64184,14.90694 5.23606,2.30319 51,60 51,60 l 27,-25 c -1.85564,-5.02813 -10.78512,-0.93686 -11.345,-6.26714 -0.70457,-8.05889 -14.8379,-30.07437 -17.84566,-32.89719 -3.00776,-2.82282 -1.81872,-7.79907 -3.37763,-14.484 -1.55891,-6.68493 -0.4767,-0.48633 -3.07488,-11.62786 -2.59818,-11.14153 -37.80825,-67.91285 -39.03245,-78.2 -1.2242,-10.28715 -15.55843,-16.34242 -15.55843,-16.34242 l -11.14153,2.59818 z"
       transform="translate(-169.32858,-125.66032)"
       fill="#2f2e41"
       id="path21" /><polygon
       points="84.845,620.268 109.058,559.567 85.054,553.264 68.581,615.998 "
       fill="#a0616a"
       id="polygon21" /><path
       d="m 232.881,758.47391 50.014,13.13347 0.16612,-0.6325 a 20.12793,20.12793 0 0 0 -14.35407,-24.579 l -10e-4,-3.2e-4 -7.31533,-9.33008 -18.86557,2.45516 -4.36588,-1.14648 z"
       transform="translate(-169.32858,-125.66032)"
       fill="#2f2e41"
       id="path22" /><polygon
       points="168.771,628.164 176.771,563.303 151.953,563.305 151.957,628.165 "
       fill="#a0616a"
       id="polygon22" /><path
       d="m 320.69272,771.36718 51.70963,-0.002 v -0.654 a 20.12793,20.12793 0 0 0 -20.12682,-20.12651 h -10e-4 l -9.44543,-7.1658 -17.62308,7.16689 -4.51391,1.5e-4 z"
       transform="translate(-169.32858,-125.66032)"
       fill="#2f2e41"
       id="path23" /><path
       d="m 279.2272,443.4438 c -4.062,5.07751 -2.031,22.341 -2.031,22.341 0,0 -7.10852,55.85264 -4.062,60.93015 3.04652,5.07751 -2.031,9.13953 -5.07752,16.248 -3.04652,7.10847 -6.093,24.37206 -6.093,24.37206 -17.26354,14.217 -16.248,79.2092 -16.248,79.2092 l -6.093,57.88364 c 2.031,6.093 30.46508,7.10852 34.52709,6.093 4.06201,-1.01552 43.66653,-144.20125 43.66653,-144.20125 0,0 -2.031,138.10834 -2.031,144.20136 0,6.09302 27.41857,3.0465 33.51158,3.0465 6.09301,0 44.68212,-248.79814 44.68212,-248.79814 v -14.217 l -5.07751,-7.10851 c 0,0 -105.61228,-5.07752 -109.67429,-10e-6 z"
       transform="translate(-169.32858,-125.66032)"
       fill="#2f2e41"
       id="path24" /><path
       d="m 288.8667,277.18712 -24.93794,15.88868 -12.06206,10.11132 16,102 c 0,0 -24.30892,92.71612 14,87 38.30892,-5.71612 36.16111,-89.03846 36.16111,-89.03846 z"
       transform="translate(-169.32858,-125.66032)"
       fill="#2f2e41"
       id="path25" /><path
       d="m 322.23542,422.083 a 11.44044,11.44044 0 0 1 -16.54431,-5.83342 l -40.64366,0.98165 11.20149,-17.91273 36.87863,1.814 a 11.50245,11.50245 0 0 1 9.10783,20.9505 z"
       transform="translate(-169.32858,-125.66032)"
       fill="#a0616a"
       id="path26" /><circle
       cx="132.62956"
       cy="105.61497"
       r="32.11879"
       fill="#a0616a"
       id="circle26" /><path
       d="m 265.52656,210.17108 c 3.60658,-5.57961 10.37456,-9.29825 16.93562,-8.25331 a 23.12708,23.12708 0 0 1 38.75042,-13.4894 7.19154,7.19154 0 0 1 7.03282,-0.70384 14.82856,14.82856 0 0 1 5.71367,4.58627 33.28016,33.28016 0 0 1 4.65684,33.85669 c 0.80185,-2.915 -2.11948,-5.65739 -5.07118,-6.31152 -2.95144,-0.65414 -6.04757,-0.0353 -9.04074,-0.46126 -3.83627,-0.54587 -7.28476,-2.77134 -11.12709,-3.27218 -3.22918,-0.42092 -6.47658,0.407 -9.62557,1.23693 -3.149,0.82981 -6.388,1.67606 -9.62178,1.29208 -3.234,-0.384 -7.39959,11.87152 -7.34369,20.5035 0.0106,1.63584 -0.32631,3.73609 -1.925,4.08314 -1.96872,0.42749 -3.10954,-2.28971 -4.9834,-3.0301 a 3.46671,3.46671 0 0 0 -4.25212,2.26113 5.652,5.652 0 0 0 1.07909,5.06131 16.70142,16.70142 0 0 0 4.04925,3.51261 l -0.77175,0.64187 c -1.28373,1.69591 -3.94655,1.7694 -5.7969,0.72015 a 12.5112,12.5112 0 0 1 -4.16206,-4.739 c -3.4232,-5.69369 -6.426,-11.76023 -7.63408,-18.29308 -1.20808,-6.53285 -0.46868,-13.62238 3.13765,-19.20199 z"
       transform="translate(-169.32858,-125.66032)"
       fill="#2f2e41"
       id="path27" /><path
       d="m 276.8667,306.18712 -14.43307,-12.3687 c 0,0 -16.85215,5.25847 -19.70951,16.31358 -22.49139,28.75861 -34.60418,62.34589 -37.85742,100.05512 29.36371,11.09012 65.31909,15.02441 104,16 l -8,-30 -55,-10 z"
       transform="translate(-169.32858,-125.66032)"
       fill="#2f2e41"
       id="path28" /><path
       d="m 225.72794,757.227 -7.71,-12.39 -1.54,7.08008 c -0.27,1.24 -0.54,2.5 -0.79,3.75 -2.18995,-1.87012 -4.52,-3.6001 -6.79981,-5.26 q -10.5,-7.62012 -20.99023,-15.26 l 2.18994,12.7 c 1.3501,7.82007 2.76025,15.8 6.1001,22.94995 0.37011,0.81006 0.77,1.61011 1.20019,2.39014 h 32.54 a 10.48765,10.48765 0 0 0 0.54,-2.24011 0.77484,0.77484 0 0 0 0.01,-0.15 c 0.51031,-4.85006 -2.16989,-9.42 -4.74995,-13.57006 z"
       transform="translate(-169.32858,-125.66032)"
       fill="#f2f2f2"
       id="path29" /><path
       d="m 513.29792,742.99305 14.58608,-23.44 2.91353,13.39444 c 0.51083,2.34587 1.02167,4.72962 1.49463,7.09443 4.143,-3.538 8.55119,-6.81084 12.8642,-9.95114 q 19.86441,-14.41611 39.71035,-28.86963 l -4.143,24.02639 c -2.55418,14.79438 -5.222,29.8913 -11.54046,43.41783 -0.70021,1.53251 -1.45676,3.04608 -2.27059,4.52178 h -61.56087 a 19.84078,19.84078 0 0 1 -1.02167,-4.238 1.46446,1.46446 0 0 1 -0.0185,-0.28382 c -0.96532,-9.17542 4.10517,-17.82107 8.98628,-25.67228 z"
       transform="translate(-169.32858,-125.66032)"
       fill="#f2f2f2"
       id="path30" /><path
       d="M 501.855,773.68712 H 434.87842 A 11.52467,11.52467 0 0 1 423.3667,762.1754 V 527.19884 a 11.52466,11.52466 0 0 1 11.51172,-11.51172 H 501.855 a 11.52466,11.52466 0 0 1 11.51172,11.51172 V 762.1754 A 11.52467,11.52467 0 0 1 501.855,773.68712 Z"
       transform="translate(-169.32858,-125.66032)"
       fill="#f2f2f2"
       id="path31" /><path
       d="M 486.04,521.68712 H 451.69336 A 4.332,4.332 0 0 1 447.3667,517.36 v -12.3457 a 4.332,4.332 0 0 1 4.32666,-4.32715 H 486.04 a 4.332,4.332 0 0 1 4.32666,4.32715 V 517.36 a 4.332,4.332 0 0 1 -4.32666,4.32712 z"
       transform="translate(-169.32858,-125.66032)"
       fill="#3f3d56"
       id="path32" /><path
       d="m 584.26926,774.03235 -413.75,0.30733 a 1.19069,1.19069 0 0 1 0,-2.38137 l 413.75,-0.30733 a 1.19069,1.19069 0 0 1 0,2.38137 z"
       transform="translate(-169.32858,-125.66032)"
       fill="#cacaca"
       id="path33" /></g></svg>
