<?xml version="1.0" encoding="UTF-8" standalone="no"?>
<!-- Created with Inkscape (http://www.inkscape.org/) -->

<svg
   width="300"
   height="300"
   viewBox="0 0 300 300"
   version="1.1"
   id="svg1"
   xml:space="preserve"
   xmlns="http://www.w3.org/2000/svg"
   xmlns:svg="http://www.w3.org/2000/svg"><defs
     id="defs1" /><g
     id="layer1"
     transform="translate(-2.9995512,-5.3294924)"><g
       id="g4"
       transform="matrix(0.36050791,0,0,0.43279942,7.2028287,7.7679238)"><path
         d="M 866.24553,659.31387 597.90045,536.80922 736.07526,234.13885 1004.4203,356.64351 Z"
         transform="translate(-195.57967,-109.0532)"
         fill="#f2f2f2"
         id="path1-2" /><path
         d="m 907.12341,483.47827 -203.14462,-92.7394 a 1.5859425,1.5859425 0 0 1 1.31725,-2.88543 l 203.14462,92.7394 a 1.5859425,1.5859425 0 0 1 -1.31725,2.88543 z"
         transform="translate(-195.57967,-109.0532)"
         fill="#ffffff"
         id="path2-9" /><path
         d="M 918.41962,458.73405 715.275,365.99465 a 1.5859425,1.5859425 0 1 1 1.31725,-2.88543 l 203.14462,92.7394 a 1.5859425,1.5859425 0 1 1 -1.31725,2.88543 z"
         transform="translate(-195.57967,-109.0532)"
         fill="#ffffff"
         id="path3-2" /><path
         d="M 929.71583,433.98984 726.57121,341.25043 a 1.5859425,1.5859425 0 1 1 1.31725,-2.88543 l 203.14462,92.7394 a 1.58595,1.58595 0 0 1 -1.31725,2.88544 z"
         transform="translate(-195.57967,-109.0532)"
         fill="#ffffff"
         id="path4-9" /><path
         d="M 941.012,409.24562 737.86742,316.50621 a 1.5859425,1.5859425 0 1 1 1.31725,-2.88543 l 203.14462,92.73941 a 1.5859425,1.5859425 0 0 1 -1.31725,2.88543 z"
         transform="translate(-195.57967,-109.0532)"
         fill="#ffffff"
         id="path5-8" /><path
         d="M 896.91469,505.84036 693.77007,413.101 a 1.5859425,1.5859425 0 1 1 1.31725,-2.88543 l 203.14462,92.7394 a 1.5859425,1.5859425 0 0 1 -1.31725,2.88543 z"
         transform="translate(-195.57967,-109.0532)"
         fill="#ffffff"
         id="path6-2" /><path
         d="M 930.83742,372.9484 772.15573,300.50717 a 3.9649,3.9649 0 0 1 -2.22982,-4.77891 3.816,3.816 0 0 1 5.20033,-2.25249 L 933.75967,365.895 a 4.00065,4.00065 0 0 1 2.261,4.85011 3.81579,3.81579 0 0 1 -5.18325,2.20329 z"
         transform="translate(-195.57967,-109.0532)"
         fill="#ffffff"
         id="path7-1" /><path
         d="M 320.27065,356.64351 588.61572,234.13885 726.79053,536.80922 458.44546,659.31387 Z"
         transform="translate(-195.57967,-109.0532)"
         fill="#f2f2f2"
         id="path8-9" /><path
         d="m 417.56758,483.47827 203.14461,-92.7394 a 1.5859425,1.5859425 0 1 0 -1.31725,-2.88543 l -203.14462,92.7394 a 1.5859445,1.5859445 0 1 0 1.31726,2.88543 z"
         transform="translate(-195.57967,-109.0532)"
         fill="#ffffff"
         id="path9-9" /><path
         d="M 406.27137,458.73405 609.416,365.99465 a 1.5859445,1.5859445 0 0 0 -1.31726,-2.88543 l -203.14462,92.7394 a 1.5859445,1.5859445 0 1 0 1.31726,2.88543 z"
         transform="translate(-195.57967,-109.0532)"
         fill="#ffffff"
         id="path10-1" /><path
         d="M 394.97516,433.98984 598.11978,341.25043 A 1.5859445,1.5859445 0 0 0 596.80252,338.365 L 393.6579,431.1044 a 1.58595,1.58595 0 0 0 1.31726,2.88544 z"
         transform="translate(-195.57967,-109.0532)"
         fill="#ffffff"
         id="path11-3" /><path
         d="m 383.679,409.24562 203.14462,-92.73941 a 1.5859445,1.5859445 0 1 0 -1.31726,-2.88543 l -203.14467,92.73941 a 1.5859445,1.5859445 0 0 0 1.31726,2.88543 z"
         transform="translate(-195.57967,-109.0532)"
         fill="#ffffff"
         id="path12-6" /><path
         d="M 427.7763,505.84036 630.92092,413.101 a 1.5859445,1.5859445 0 0 0 -1.31726,-2.88543 L 426.459,502.95493 a 1.5859445,1.5859445 0 1 0 1.31726,2.88543 z"
         transform="translate(-195.57967,-109.0532)"
         fill="#ffffff"
         id="path13-8" /><path
         d="m 393.85356,372.9484 158.68169,-72.44123 a 3.96488,3.96488 0 0 0 2.22982,-4.77891 3.816,3.816 0 0 0 -5.20032,-2.25249 L 390.93131,365.895 a 4.00067,4.00067 0 0 0 -2.261,4.85011 3.81579,3.81579 0 0 0 5.18325,2.20329 z"
         transform="translate(-195.57967,-109.0532)"
         fill="#ffffff"
         id="path14-5" /><path
         d="m 222.40481,714.03126 c 1.69423,-26.24429 16.317,-52.871 40.65983,-62.82314 a 121.16927,121.16927 0 0 0 4.93287,83.04447 c 4.43053,10.10062 10.41006,20.87363 7.43637,31.49487 -1.85017,6.60882 -7.02235,11.888 -12.94859,15.34869 -5.92661,3.46069 -12.6203,5.33966 -19.23087,7.18405 l -1.25323,1.16816 c -12.05459,-23.37347 -21.29061,-49.17281 -19.59638,-75.4171 z"
         transform="translate(-195.57967,-109.0532)"
         fill="#f0f0f0"
         id="path15-3" /><path
         d="m 263.34042,651.68609 a 103.56706,103.56706 0 0 0 -22.24942,59.71 44.59937,44.59937 0 0 0 1.33347,13.91012 25.57977,25.57977 0 0 0 7.05351,11.46684 c 3.04906,2.97518 6.51244,5.66536 8.78518,9.32991 a 15.66257,15.66257 0 0 1 1.52111,12.71858 c -1.50058,5.29374 -4.81379,9.73259 -8.20469,13.96082 -3.76494,4.69464 -7.74992,9.51126 -9.11223,15.51981 -0.16506,0.728 -1.28505,0.42933 -1.12024,-0.29759 2.37018,-10.45385 12.00015,-16.88329 16.20867,-26.422 1.96377,-4.45092 2.5981,-9.52061 0.24636,-13.9565 -2.05648,-3.879 -5.62559,-6.6562 -8.73886,-9.64195 a 27.29558,27.29558 0 0 1 -7.31456,-10.95513 41.23112,41.23112 0 0 1 -1.86335,-13.80753 100.47854,100.47854 0 0 1 5.51711,-30.9156 105.40343,105.40343 0 0 1 17.12084,-31.44219 c 0.46185,-0.58333 1.27593,0.24285 0.8171,0.82236 z"
         transform="translate(-195.57967,-109.0532)"
         fill="#ffffff"
         id="path16-1" /><path
         d="m 240.987,704.37553 a 15.53836,15.53836 0 0 1 -12.771,-15.548 0.58005,0.58005 0 0 1 1.15934,-0.0108 14.38817,14.38817 0 0 0 11.90924,14.43856 c 0.73455,0.12924 0.43276,1.24874 -0.29759,1.12023 z"
         transform="translate(-195.57967,-109.0532)"
         fill="#ffffff"
         id="path17-1" /><path
         d="m 247.73331,735.46815 a 29.94891,29.94891 0 0 0 12.329,-18.01017 c 0.16764,-0.72741 1.28767,-0.42894 1.12024,0.29759 A 31.15139,31.15139 0 0 1 248.315,736.47071 c -0.619,0.41865 -1.19736,-0.58618 -0.5817,-1.00256 z"
         transform="translate(-195.57967,-109.0532)"
         fill="#ffffff"
         id="path18-3" /><path
         d="m 250.4132,671.958 a 8.79547,8.79547 0 0 0 8.29544,-0.916 c 0.61341,-0.42629 1.19112,0.579 0.5817,1.00255 a 9.856,9.856 0 0 1 -9.17473,1.0337 0.599,0.599 0 0 1 -0.41132,-0.70892 0.58248,0.58248 0 0 1 0.70891,-0.41132 z"
         transform="translate(-195.57967,-109.0532)"
         fill="#ffffff"
         id="path19-2" /><path
         d="m 341.5588,693.24718 c -0.37545,0.27708 -0.75091,0.55416 -1.12626,0.841 A 115.83119,115.83119 0 0 0 326.333,706.50791 c -0.34231,0.34372 -0.684,0.69721 -1.01576,1.05 a 122.11237,122.11237 0 0 0 -24.32369,37.80982 118.58674,118.58674 0 0 0 -5.489,17.16153 c -1.92168,8.08117 -3.36229,16.99612 -7.71329,23.77108 a 20.34637,20.34637 0 0 1 -1.46623,2.04693 l -42.80152,2.53933 c -0.10017,-0.043 -0.20024,-0.0764 -0.30088,-0.11936 l -1.7043,0.17952 c 0.0507,-0.30679 0.10989,-0.6239 0.16059,-0.9307 0.0287,-0.17809 0.0669,-0.35674 0.0956,-0.53483 0.0221,-0.11891 0.0447,-0.2379 0.0579,-0.34646 0.007,-0.0396 0.0149,-0.0792 0.0227,-0.10913 0.0132,-0.10857 0.037,-0.208 0.0507,-0.3068 q 0.48887,-2.66019 1.01683,-5.32276 c -5.8e-4,-0.01 -5.8e-4,-0.01 0.008,-0.0201 2.71642,-13.51815 6.58525,-26.9283 12.36649,-39.32491 0.17406,-0.37291 0.34707,-0.75556 0.54068,-1.12963 a 113.15757,113.15757 0 0 1 9.23324,-15.99213 100.03668,100.03668 0 0 1 6.19893,-8.00172 83.18731,83.18731 0 0 1 19.85692,-16.7988 c 14.87044,-9.016 32.45882,-13.17575 49.1586,-9.19806 0.42712,0.1021 0.8452,0.20464 1.27292,0.31647 z"
         transform="translate(-195.57967,-109.0532)"
         fill="#f0f0f0"
         id="path20-9" /><path
         d="m 341.49481,693.79613 a 103.56714,103.56714 0 0 0 -53.71447,34.27942 44.59967,44.59967 0 0 0 -7.31015,11.90929 25.57987,25.57987 0 0 0 -1.272,13.40234 c 0.64324,4.21125 1.78888,8.44441 1.39723,12.73869 a 15.66261,15.66261 0 0 1 -6.44294,11.07089 c -4.38533,3.3233 -9.70324,4.87269 -14.95637,6.20714 -5.83259,1.48165 -11.91431,2.92822 -16.6196,6.90551 -0.57011,0.4819 -1.28453,-0.4309 -0.71528,-0.91207 8.18639,-6.9198 19.74636,-6.25544 28.84956,-11.33772 4.24772,-2.37149 7.8065,-6.03745 8.59949,-10.99517 0.69343,-4.33531 -0.48423,-8.70159 -1.17237,-12.95995 a 27.29557,27.29557 0 0 1 0.75547,-13.15093 41.2313,41.2313 0 0 1 6.82531,-12.1464 100.47866,100.47866 0 0 1 23.01843,-21.3627 105.40368,105.40368 0 0 1 32.6004,-14.7969 c 0.72,-0.18769 0.87255,0.9621 0.15729,1.14856 z"
         transform="translate(-195.57967,-109.0532)"
         fill="#ffffff"
         id="path21-8" /><path
         d="m 291.92419,722.40742 a 15.53837,15.53837 0 0 1 -0.836,-20.10319 c 0.46083,-0.58635 1.39363,0.10222 0.93219,0.68934 a 14.38819,14.38819 0 0 0 0.81585,18.69857 c 0.5087,0.54544 -0.40628,1.2576 -0.91207,0.71528 z"
         transform="translate(-195.57967,-109.0532)"
         fill="#ffffff"
         id="path22-0" /><path
         d="m 278.59082,751.29486 a 29.94894,29.94894 0 0 0 20.68738,-6.9572 c 0.5718,-0.47987 1.28639,0.43278 0.71528,0.91207 a 31.15143,31.15143 0 0 1 -21.54181,7.19584 c -0.74632,-0.0384 -0.60311,-1.18893 0.13915,-1.15071 z"
         transform="translate(-195.57967,-109.0532)"
         fill="#ffffff"
         id="path23-6" /><path
         d="m 318.96807,702.199 a 8.79545,8.79545 0 0 0 7.17495,4.263 c 0.74643,0.029 0.60242,1.17947 -0.13915,1.15071 a 9.856,9.856 0 0 1 -7.94787,-4.69847 0.599,0.599 0 0 1 0.0984,-0.81367 0.58246,0.58246 0 0 1 0.81367,0.0984 z"
         transform="translate(-195.57967,-109.0532)"
         fill="#ffffff"
         id="path24-1" /><path
         d="M 861.997,661.85822 H 460.74089 V 209.2756 H 861.997 Z"
         transform="translate(-195.57967,-109.0532)"
         fill="#ffffff"
         id="path25-0" /><path
         d="M 861.997,661.85822 H 460.74089 V 209.2756 H 861.997 Z m -399.09877,-2.15729 h 396.94143 v -448.268 H 462.89818 Z"
         transform="translate(-195.57967,-109.0532)"
         fill="#cacaca"
         id="path26-7" /><path
         d="M 813.24987,421.18544 H 509.488 a 2.15729,2.15729 0 1 1 0,-4.31458 h 303.7619 a 2.15729,2.15729 0 0 1 0,4.31458 z"
         transform="translate(-195.57967,-109.0532)"
         fill="#e4e4e4"
         id="path27-4" /><path
         d="M 813.24987,384.18544 H 509.488 a 2.15729,2.15729 0 1 1 0,-4.31458 h 303.7619 a 2.15729,2.15729 0 0 1 0,4.31458 z"
         transform="translate(-195.57967,-109.0532)"
         fill="#e4e4e4"
         id="path28-2" /><path
         d="M 813.24987,347.18544 H 509.488 a 2.15729,2.15729 0 1 1 0,-4.31458 h 303.7619 a 2.15729,2.15729 0 0 1 0,4.31458 z"
         transform="translate(-195.57967,-109.0532)"
         fill="#e4e4e4"
         id="path29-7" /><path
         d="M 813.24987,310.18544 H 509.488 a 2.15729,2.15729 0 1 1 0,-4.31458 h 303.7619 a 2.15729,2.15729 0 0 1 0,4.31458 z"
         transform="translate(-195.57967,-109.0532)"
         fill="#e4e4e4"
         id="path30" /><path
         d="M 813.24987,454.62344 H 509.488 a 2.15729,2.15729 0 1 1 0,-4.31458 h 303.7619 a 2.15729,2.15729 0 0 1 0,4.31458 z"
         transform="translate(-195.57967,-109.0532)"
         fill="#e4e4e4"
         id="path31" /><path
         d="M 813.24987,620.62344 H 509.488 a 2.15729,2.15729 0 1 1 0,-4.31458 h 303.7619 a 2.15729,2.15729 0 0 1 0,4.31458 z"
         transform="translate(-195.57967,-109.0532)"
         fill="#e4e4e4"
         id="path32" /><path
         d="m 740.48441,585.9937 h -158.231 a 3.99339,3.99339 0 0 1 -3.989,-3.989 v -93.07708 a 3.99338,3.99338 0 0 1 3.989,-3.989 h 158.231 a 3.99337,3.99337 0 0 1 3.989,3.989 v 93.07706 a 3.99338,3.99338 0 0 1 -3.989,3.98902 z"
         transform="translate(-195.57967,-109.0532)"
         fill="#ffffff"
         id="path33" /><path
         d="m 687.64325,532.82035 a 8.8014,8.8014 0 0 0 -12.64552,-0.226 L 630.46735,577.125 a 6.28787,6.28787 0 0 1 -8.86881,0.0133 l -6.59513,-6.58189 a 8.78014,8.78014 0 0 0 -12.41958,0 l -12.76433,12.77817 h 143.09883 v -1.82165 z"
         transform="translate(-195.57967,-109.0532)"
         fill="#6c63ff"
         id="path34" /><path
         d="m 740.48441,585.9937 h -158.231 a 3.99339,3.99339 0 0 1 -3.989,-3.989 v -93.07708 a 3.99338,3.99338 0 0 1 3.989,-3.989 h 158.231 a 3.99337,3.99337 0 0 1 3.989,3.989 v 93.07706 a 3.99338,3.99338 0 0 1 -3.989,3.98902 z M 582.25342,487.598 a 1.3312,1.3312 0 0 0 -1.32967,1.32967 v 93.07706 a 1.33119,1.33119 0 0 0 1.32967,1.32967 h 158.231 a 1.33119,1.33119 0 0 0 1.32968,-1.32967 v -93.07711 a 1.3312,1.3312 0 0 0 -1.32968,-1.32967 z"
         transform="translate(-195.57967,-109.0532)"
         fill="#3f3d56"
         id="path35" /><path
         d="m 359.01738,570.43562 a 10.05575,10.05575 0 0 0 -8.67173,-12.74978 l -8.29088,-34.75975 -12.7075,13.5408 9.82137,30.9325 a 10.11027,10.11027 0 0 0 19.84874,3.03623 z"
         transform="translate(-195.57967,-109.0532)"
         fill="#ffb6b6"
         id="path36" /><path
         d="m 336.85563,557.82806 a 4.505,4.505 0 0 1 -2.70763,-2.47619 l -17.579,-42.99751 a 46.37343,46.37343 0 0 1 -1.64817,-32.60257 l 11.264,-35.28292 a 14.49652,14.49652 0 1 1 28.87239,2.642 l -14.93809,56.81578 10.00513,44.62172 a 4.51466,4.51466 0 0 1 -2.20041,4.67919 l -7.41611,4.23741 a 4.50564,4.50564 0 0 1 -2.62316,0.57567 4.45469,4.45469 0 0 1 -1.02895,-0.21258 z"
         transform="translate(-195.57967,-109.0532)"
         fill="#e4e4e4"
         id="path37" /><polygon
         points="221.891,621.794 203.796,621.794 203.799,669.082 216.058,669.082 "
         fill="#ffb6b6"
         id="polygon37" /><path
         d="m 396.25093,774.13262 24.144,-10e-4 h 0.001 a 15.3873,15.3873 0 0 1 15.38647,15.38623 v 0.5 l -39.53076,0.001 z"
         transform="translate(-195.57967,-109.0532)"
         fill="#2f2e41"
         id="path38-5" /><polygon
         points="152.891,621.794 134.796,621.794 134.799,669.082 147.058,669.082 "
         fill="#ffb6b6"
         id="polygon38" /><path
         d="m 327.25093,774.13262 24.144,-10e-4 h 0.001 a 15.3873,15.3873 0 0 1 15.38647,15.38623 v 0.5 l -39.53076,0.001 z"
         transform="translate(-195.57967,-109.0532)"
         fill="#2f2e41"
         id="path39-6" /><path
         d="m 406.76052,539.61811 -71.89678,-6.32584 c 0,0 -7.10322,45.32584 -6.10322,63.32584 1,18 2,46 2,46 l -8,122 31,-4 4,-101 13,-55 15,70 10,90 27,-3 -9,-109 c 0,0 7.99997,-98 -7,-113 z"
         transform="translate(-195.57967,-109.0532)"
         fill="#2f2e41"
         id="path40-3" /><circle
         cx="182.18086"
         cy="277.56494"
         r="20"
         fill="#ffb8b8"
         id="circle40" /><path
         d="m 399.66234,431.2756 -14.28451,-11.3709 c 0,0 -15.469,-11.93613 -24.54315,-3.11136 l -4.07412,5.82477 c 0,0 -23.09822,8.65749 -23.09822,19.65749 l 1.09822,60.34251 c 0,0 -8,31 4,33 l 69.90178,5.65749 -0.90178,-57.65749 z"
         transform="translate(-195.57967,-109.0532)"
         fill="#e4e4e4"
         id="path41-0" /><path
         d="m 362.26052,404.11811 c 0,0 -21,-15 -10,-33 7.63117,-12.48737 23.44413,-11.49893 32.414,-9.72226 a 15.154,15.154 0 0 1 11.086,8.72226 c 1.5,3.5 1.5,7 -4.5,7 -12,0 -6,9 -6,9 0,0 -8,2 -6,9 2,7 -17,9 -17,9 z"
         transform="translate(-195.57967,-109.0532)"
         fill="#2f2e41"
         id="path42" /><path
         d="m 471.81865,536.66284 a 10.05576,10.05576 0 0 0 -13.94451,-6.58077 l -24.79214,-25.73572 -4.072,18.11774 24.16736,21.66143 a 10.11027,10.11027 0 0 0 18.64135,-7.46268 z"
         transform="translate(-195.57967,-109.0532)"
         fill="#ffb6b6"
         id="path43" /><path
         d="m 446.32471,537.05427 a 4.505,4.505 0 0 1 -3.58993,-0.75841 l -36.97666,-28.11642 a 46.37345,46.37345 0 0 1 -17.97415,-27.2502 l -8.21132,-36.11559 a 14.49652,14.49652 0 1 1 26.215,-12.38415 l 15.97959,56.5317 31.27651,33.36137 a 4.51469,4.51469 0 0 1 0.48026,5.1484 l -4.2374,7.41612 a 4.50564,4.50564 0 0 1 -1.96754,1.82787 4.45492,4.45492 0 0 1 -0.99436,0.33931 z"
         transform="translate(-195.57967,-109.0532)"
         fill="#e4e4e4"
         id="path44" /><path
         d="M 954.23551,139.23028 H 376.67973 a 0.83826,0.83826 0 0 1 0,-1.67651 h 577.55578 a 0.83826,0.83826 0 0 1 0,1.67651 z"
         transform="translate(-195.57967,-109.0532)"
         fill="#cacaca"
         id="path45" /><circle
         cx="199.96735"
         cy="9.2207699"
         r="9.2207699"
         fill="#3f3d56"
         id="circle45" /><circle
         cx="231.82092"
         cy="9.2207699"
         r="9.2207699"
         fill="#3f3d56"
         id="circle46" /><circle
         cx="263.6745"
         cy="9.2207699"
         r="9.2207699"
         fill="#3f3d56"
         id="circle47" /><path
         d="m 935.15042,114.69325 h -22.63281 a 1.67651,1.67651 0 0 1 0,-3.353 h 22.63281 a 1.67651,1.67651 0 0 1 0,3.353 z"
         transform="translate(-195.57967,-109.0532)"
         fill="#3f3d56"
         id="path47" /><path
         d="m 935.15042,120.98014 h -22.63281 a 1.67651,1.67651 0 0 1 0,-3.353 h 22.63281 a 1.67651,1.67651 0 0 1 0,3.353 z"
         transform="translate(-195.57967,-109.0532)"
         fill="#3f3d56"
         id="path48" /><path
         d="m 935.15042,127.267 h -22.63281 a 1.67651,1.67651 0 0 1 0,-3.353 h 22.63281 a 1.67651,1.67651 0 0 1 0,3.353 z"
         transform="translate(-195.57967,-109.0532)"
         fill="#3f3d56"
         id="path49" /><path
         d="m 577.57967,790.2756 h -381 a 1,1 0 1 1 0,-2 h 381 a 1,1 0 0 1 0,2 z"
         transform="translate(-195.57967,-109.0532)"
         fill="#cacaca"
         id="path50" /><path
         d="M 780.15534,271.01854 H 542.8788 a 5.39326,5.39326 0 0 1 -5.45881,-4.65385 5.19076,5.19076 0 0 1 5.1625,-5.72493 h 237.20438 a 5.44194,5.44194 0 0 1 5.53758,4.72437 5.19046,5.19046 0 0 1 -5.16911,5.65441 z"
         transform="translate(-195.57967,-109.0532)"
         fill="#6c63ff"
         id="path51" /></g></g></svg>
