<?xml version="1.0" encoding="UTF-8" standalone="no"?>
<!-- Created with Inkscape (http://www.inkscape.org/) -->

<svg
   width="300"
   height="300"
   viewBox="0 0 300 300"
   version="1.1"
   id="svg1"
   xml:space="preserve"
   inkscape:version="1.3 (0e150ed6c4, 2023-07-21)"
   sodipodi:docname="Utube.svg"
   xmlns:inkscape="http://www.inkscape.org/namespaces/inkscape"
   xmlns:sodipodi="http://sodipodi.sourceforge.net/DTD/sodipodi-0.dtd"
   xmlns="http://www.w3.org/2000/svg"
   xmlns:svg="http://www.w3.org/2000/svg"><sodipodi:namedview
     id="namedview1"
     pagecolor="#ffffff"
     bordercolor="#111111"
     borderopacity="1"
     inkscape:showpageshadow="0"
     inkscape:pageopacity="0"
     inkscape:pagecheckerboard="1"
     inkscape:deskcolor="#d1d1d1"
     inkscape:document-units="px"
     inkscape:zoom="0.64379276"
     inkscape:cx="150.6696"
     inkscape:cy="149.89296"
     inkscape:window-width="1366"
     inkscape:window-height="705"
     inkscape:window-x="-8"
     inkscape:window-y="-8"
     inkscape:window-maximized="1"
     inkscape:current-layer="layer1" /><defs
     id="defs1" /><g
     inkscape:label="Layer 1"
     inkscape:groupmode="layer"
     id="layer1"><g
       id="g2"
       transform="matrix(0.47260558,0,0,0.51039153,3.8474062,5.0789492)"><path
         d="m 333.94482,671.57974 c -10.14013,6.98242 -20.50927,14.18854 -27.53076,24.30218 -7.021,10.11371 -10.08594,23.91974 -4.44433,34.86322 l -0.14551,0.68207 a 26.3915,26.3915 0 0 0 25.48486,-4.48913 c 8.92578,-7.49189 11.72461,-19.83472 14.00147,-31.26349 l 6.73535,-33.8042 z"
         transform="translate(-290.75,-166.05906)"
         fill="#f0f0f0"
         id="path1-8" /><path
         d="m 343.71141,705.66908 c -6.76417,1.49654 -13.695,3.06129 -19.4952,6.85012 -5.7999,3.789 -10.31778,10.3399 -9.6903,17.23941 l -0.22011,0.32489 a 14.85042,14.85042 0 0 0 14.23834,3.04866 c 6.23868,-2.019 10.30836,-7.86324 13.91256,-13.34122 l 10.661,-16.20269 z"
         transform="translate(-290.75,-166.05906)"
         fill="#f0f0f0"
         id="path2-5" /><path
         d="M 908.41175,196.23614 H 330.856 a 0.83826,0.83826 0 0 1 0,-1.67651 h 577.55575 a 0.83826,0.83826 0 0 1 0,1.67651 z"
         transform="translate(-290.75,-166.05906)"
         fill="#cacaca"
         id="path3-2" /><circle
         cx="58.97324"
         cy="9.2207699"
         r="9.2207699"
         fill="#3f3d56"
         id="circle3" /><circle
         cx="90.826828"
         cy="9.2207699"
         r="9.2207699"
         fill="#3f3d56"
         id="circle4" /><circle
         cx="122.68041"
         cy="9.2207699"
         r="9.2207699"
         fill="#3f3d56"
         id="circle5" /><path
         d="m 889.32666,171.69911 h -22.63281 a 1.6765,1.6765 0 1 1 0,-3.353 h 22.63281 a 1.6765,1.6765 0 0 1 0,3.353 z"
         transform="translate(-290.75,-166.05906)"
         fill="#3f3d56"
         id="path5-7" /><path
         d="m 889.32666,177.986 h -22.63281 a 1.6765,1.6765 0 1 1 0,-3.353 h 22.63281 a 1.6765,1.6765 0 0 1 0,3.353 z"
         transform="translate(-290.75,-166.05906)"
         fill="#3f3d56"
         id="path6-3" /><path
         d="m 889.32666,184.27289 h -22.63281 a 1.6765,1.6765 0 1 1 0,-3.353 h 22.63281 a 1.67651,1.67651 0 0 1 0,3.353 z"
         transform="translate(-290.75,-166.05906)"
         fill="#3f3d56"
         id="path7-7" /><rect
         x="49.521461"
         y="66.122917"
         width="383.08127"
         height="229.68111"
         fill="#f0f0f0"
         id="rect7" /><rect
         x="479.54483"
         y="66.122917"
         width="120.70832"
         height="72.372169"
         fill="#f0f0f0"
         id="rect8" /><path
         d="M 866.92116,337.80175 H 795.1 a 3.38288,3.38288 0 0 1 0,-6.76576 h 71.82119 a 3.38288,3.38288 0 0 1 0,6.76576 z"
         transform="translate(-290.75,-166.05906)"
         fill="#e4e4e4"
         id="path8-7" /><path
         d="m 855.34129,326.22189 h -48.66145 a 3.38288,3.38288 0 0 1 0,-6.76576 h 48.66145 a 3.38288,3.38288 0 0 1 0,6.76576 z"
         transform="translate(-290.75,-166.05906)"
         fill="#e4e4e4"
         id="path9-3" /><rect
         x="479.54483"
         y="197.72852"
         width="120.70832"
         height="72.372169"
         fill="#f0f0f0"
         id="rect9" /><path
         d="M 866.92116,469.40735 H 795.1 a 3.38288,3.38288 0 0 1 0,-6.76576 h 71.82119 a 3.38288,3.38288 0 0 1 0,6.76576 z"
         transform="translate(-290.75,-166.05906)"
         fill="#e4e4e4"
         id="path10-8" /><path
         d="m 855.34129,457.82749 h -48.66145 a 3.382885,3.382885 0 0 1 0,-6.76577 h 48.66145 a 3.38289,3.38289 0 0 1 0,6.76577 z"
         transform="translate(-290.75,-166.05906)"
         fill="#e4e4e4"
         id="path11-5" /><circle
         cx="247.71892"
         cy="161.09572"
         r="28.586571"
         fill="#9e616a"
         id="circle11" /><polygon
         points="266.872,205.264 267.534,205.91 285.406,223.035 295.884,295.804 224.205,295.804 228.228,205.164 228.723,204.644 235.84,197.133 258.473,197.133 "
         fill="#f9a826"
         id="polygon11" /><path
         d="m 534.79631,461.86308 h -54.4782 c -0.36019,-34.68688 -0.64547,-60.85709 -0.64547,-60.85709 l 2.78325,-1.69328 0.0168,-0.008 30.554,-18.55053 6.413,-10.41947 0.0336,0.36883 1.88607,21.96222 c 0,0 10.2514,33.11936 13.437,69.19771 z"
         transform="translate(-290.75,-166.05906)"
         fill="#2f2e41"
         id="path12-8" /><path
         d="m 608.92311,461.86308 h -48.4762 c -2.59047,-11.75231 -3.93994,-22.943 -3.353,-32.27271 2.3805,-38.1153 -3.10989,-59.25605 -0.72938,-59.25605 l 1.25738,0.98913 14.95428,11.811 19.69075,7.21734 13.66334,5.01273 2.38051,0.87181 v 1.14841 c 0.009,5.76718 0.0671,32.54926 0.61232,64.47834 z"
         transform="translate(-290.75,-166.05906)"
         fill="#2f2e41"
         id="path13-6" /><path
         d="m 511.4244,336.09854 c 0,0 2.42881,-4.26539 1.86415,-18.51458 -0.56466,-14.24919 21.13347,-6.19 39.26452,-7.54932 18.13105,-1.35932 14.293,23.78939 14.293,23.78939 0,0 1.308,-1.495 4.10855,-13.63245 2.80055,-12.13745 -3.55814,-24.233 -3.55814,-24.233 -1.87272,-12.75424 -11.96538,-8.6665 -11.96538,-8.6665 4.8605,1.89215 3.927,5.938 3.927,5.938 -4.11425,-7.21338 -14.2069,-3.12564 -14.2069,-3.12564 -13.4607,-8.44691 -27.103,2.67661 -27.103,2.67661 -16.26119,3.69055 -6.72462,16.62239 -6.72462,16.62239 -16.35335,8.26427 0.10082,26.6951 0.10082,26.6951 z"
         transform="translate(-290.75,-166.05906)"
         fill="#2f2e41"
         id="path14-2" /><path
         d="m 464.53416,461.86308 c 1.39122,-27.82159 2.45582,-49.64966 2.03669,-51.33456 -1.17347,-4.68585 15.382,-11.03142 15.885,-11.21581 l 0.008,-0.008 h 0.009 l 3.16022,1.70167 2.31338,60.85709 z"
         transform="translate(-290.75,-166.05906)"
         fill="#2f2e41"
         id="path15-1" /><path
         d="m 620.323,461.86308 h -24.60237 l -7.04163,-69.54976 2.90032,-2.1208 c 0,0 0.25172,0.0587 0.68763,0.15927 2.25485,0.56161 9.531,2.46446 13.66334,5.01273 a 8.28016,8.28016 0 0 1 2.38051,2.02022 2.43609,2.43609 0 0 1 0.562,1.72679 c -0.2096,1.96988 5.15513,29.81664 11.4502,62.75155 z"
         transform="translate(-290.75,-166.05906)"
         fill="#2f2e41"
         id="path16-2" /><path
         d="M 661.74118,489.94453 H 401.883 a 3.77214,3.77214 0 0 0 0,7.54427 h 259.85818 a 3.77214,3.77214 0 1 0 0,-7.54427 z"
         transform="translate(-290.75,-166.05906)"
         fill="#cacaca"
         id="path17-6" /><path
         d="m 591.328,489.94453 v 7.54427 H 401.883 a 3.77214,3.77214 0 0 1 0,-7.54427 z"
         transform="translate(-290.75,-166.05906)"
         fill="#3f3d56"
         id="path18-8" /><circle
         cx="300.578"
         cy="327.65762"
         r="7.54427"
         fill="#3f3d56"
         id="circle18" /><path
         d="m 531.81209,556.58558 a 15.57329,15.57329 0 1 1 15.57329,-15.57329 15.59094,15.59094 0 0 1 -15.57329,15.57329 z m 0,-29.94863 a 14.37535,14.37535 0 1 0 14.37534,14.37534 14.39173,14.39173 0 0 0 -14.37534,-14.37529 z"
         transform="translate(-290.75,-166.05906)"
         fill="#f9a826"
         id="path19-6" /><path
         d="m 529.75536,549.39791 a 0.599,0.599 0 0 1 -0.599,-0.599 v -15.57326 a 0.599,0.599 0 1 1 1.19794,0 v 15.57329 a 0.599,0.599 0 0 1 -0.59894,0.59897 z"
         transform="translate(-290.75,-166.05906)"
         fill="#f9a826"
         id="path20-8" /><path
         d="m 533.86882,549.39791 a 0.599,0.599 0 0 1 -0.599,-0.599 v -15.57326 a 0.599,0.599 0 1 1 1.19795,0 v 15.57329 a 0.599,0.599 0 0 1 -0.59895,0.59897 z"
         transform="translate(-290.75,-166.05906)"
         fill="#f9a826"
         id="path21-6" /><path
         d="m 460.48272,541.01229 a 15.57329,15.57329 0 1 1 15.57328,15.57329 15.59094,15.59094 0 0 1 -15.57328,-15.57329 z m 1.198,0 A 14.37535,14.37535 0 1 0 476.056,526.637 14.39172,14.39172 0 0 0 461.68067,541.01229 Z"
         transform="translate(-290.75,-166.05906)"
         fill="#3f3d56"
         id="path22-8" /><path
         d="m 482.7825,546.25554 a 0.49816,0.49816 0 0 0 0.24954,-0.92957 l -7.47162,-4.3137 7.47162,-4.3137 a 0.49818465,0.49818465 0 0 0 -0.4981,-0.86293 l -8.2188,4.74516 a 0.49828,0.49828 0 0 0 0,0.86294 l 8.2188,4.74516 a 0.496,0.496 0 0 0 0.24856,0.0666 z"
         transform="translate(-290.75,-166.05906)"
         fill="#3f3d56"
         id="path23-5" /><path
         d="m 471.76234,547.98581 a 0.49813,0.49813 0 0 0 0.49811,-0.49811 v -12.95082 a 0.49811,0.49811 0 0 0 -0.99622,0 v 12.95082 a 0.49813,0.49813 0 0 0 0.49811,0.49811 z"
         transform="translate(-290.75,-166.05906)"
         fill="#3f3d56"
         id="path24-8" /><path
         d="m 587.56816,556.58558 a 15.57329,15.57329 0 1 1 15.57329,-15.57329 15.59094,15.59094 0 0 1 -15.57329,15.57329 z m 0,-29.94863 a 14.37535,14.37535 0 1 0 14.37535,14.37534 14.39172,14.39172 0 0 0 -14.37535,-14.37529 z"
         transform="translate(-290.75,-166.05906)"
         fill="#3f3d56"
         id="path25-8" /><path
         d="m 580.84167,546.25554 a 0.49817,0.49817 0 0 1 -0.24954,-0.92957 l 7.47163,-4.3137 -7.47163,-4.3137 a 0.49819,0.49819 0 0 1 0.49811,-0.86293 l 8.21879,4.74516 a 0.49828,0.49828 0 0 1 0,0.86294 l -8.21879,4.74516 a 0.496,0.496 0 0 1 -0.24857,0.0666 z"
         transform="translate(-290.75,-166.05906)"
         fill="#3f3d56"
         id="path26-7" /><path
         d="m 591.86184,547.98581 a 0.49813,0.49813 0 0 1 -0.49811,-0.49811 v -12.95082 a 0.49811,0.49811 0 0 1 0.99622,0 v 12.95082 a 0.49813,0.49813 0 0 1 -0.49811,0.49811 z"
         transform="translate(-290.75,-166.05906)"
         fill="#3f3d56"
         id="path27-9" /><path
         d="m 381.99345,552.74967 a 7.97,7.97 0 0 1 1.08851,-12.17252 l -7.66226,-27.26669 14.02076,4.47645 5.12668,25.20662 a 8.01323,8.01323 0 0 1 -12.57369,9.75614 z"
         transform="translate(-290.75,-166.05906)"
         fill="#ffb6b6"
         id="path28-0" /><path
         d="m 378.246,416.90146 -2.9043,-3.02253 c 0,0 -8.97943,6.16773 -7.07952,25.28678 1.40332,14.122 -3.03125,20.111 -2.53565,61.15741 L 378.246,537.91366 392.72635,530.32311 382.25,483.94094 Z"
         transform="translate(-290.75,-166.05906)"
         fill="#f9a826"
         id="path29-8" /><polygon
         points="113.682,515.882 98.357,515.883 98.359,555.931 108.742,555.931 "
         fill="#ffb6b6"
         id="polygon29" /><path
         d="m 386.46063,718.60014 20.44784,-8.3e-4 h 8.3e-4 a 13.03166,13.03166 0 0 1 13.031,13.03076 v 0.42345 l -33.479,10e-4 z"
         transform="translate(-290.75,-166.05906)"
         fill="#2f2e41"
         id="path30" /><polygon
         points="148.723,514.368 133.513,512.503 128.639,552.254 138.945,553.517 "
         fill="#ffb6b6"
         id="polygon30" /><path
         d="m 417.17264,714.62551 20.29584,2.48858 8.2e-4,10e-5 a 13.03166,13.03166 0 0 1 11.34762,14.52027 l -0.0515,0.4203 -33.23013,-4.07463 z"
         transform="translate(-290.75,-166.05906)"
         fill="#2f2e41"
         id="path31" /><path
         d="m 383.72735,516.65381 c 0,0 -20.001,13.6693 -10.001,50.6693 l 13.52365,143.61783 16.06693,-0.1139 6.80537,-70.86582 4.625,-49.89008 15.45359,51.59055 -12.71071,63.30449 18.75982,1.97476 22.47638,-73.61783 -10.83906,-104.81417 z"
         transform="translate(-290.75,-166.05906)"
         fill="#2f2e41"
         id="path32" /><path
         d="m 431.98733,409.99893 -10.17,-8.18 -26.97,-1.11 -19.50561,13.17 c 0,0 -2.01344,46.89579 11.18561,88.67 l -6.92,17.45 69.19,8.68 z"
         transform="translate(-290.75,-166.05906)"
         fill="#f9a826"
         id="path33" /><circle
         cx="119.43163"
         cy="201.47916"
         r="23.13402"
         fill="#ffb6b6"
         id="circle33" /><path
         d="m 416.25,338.94094 h -5.14111 a 24.00282,24.00282 0 0 0 -30.85889,23 l -8.00684,26.42206 a 5.09932,5.09932 0 0 0 4.88038,6.57794 h 3.9082 a 11.50551,11.50551 0 0 0 2.00342,-8.01281 23.64175,23.64175 0 0 1 1.5166,5.51355 9.714,9.714 0 0 1 -0.0513,2.49926 H 418.501 a 12.68828,12.68828 0 0 0 -3.07422,-9.14678 45.74437,45.74437 0 0 1 7.08545,9.14678 h 0.63867 a 5.09929,5.09929 0 0 0 5.09912,-5.09918 v -25.90082 h 13 a 25,25 0 0 0 -25.00002,-25 z"
         transform="translate(-290.75,-166.05906)"
         fill="#2f2e41"
         id="path34" /><path
         d="m 441.99345,550.74967 a 7.97,7.97 0 0 1 1.08851,-12.17252 l -7.66226,-27.26669 14.02076,4.47645 5.12668,25.20662 a 8.01323,8.01323 0 0 1 -12.57369,9.75614 z"
         transform="translate(-290.75,-166.05906)"
         fill="#ffb6b6"
         id="path35" /><path
         d="m 423.21734,415.1735 8.77,-5.17457 c 0,0 13.79417,-2.43173 15.26661,15.94622 1.47244,18.37795 3.59327,66.08374 3.59327,66.08374 l 4.30242,40.21548 -15.96615,3.40452 -18.35075,-54.99508 z"
         transform="translate(-290.75,-166.05906)"
         fill="#f9a826"
         id="path36" /><path
         d="m 503.75,733.94094 h -212 a 1,1 0 0 1 0,-2 h 212 a 1,1 0 0 1 0,2 z"
         transform="translate(-290.75,-166.05906)"
         fill="#cacaca"
         id="path37" /></g></g></svg>
